<?xml version="1.0" encoding="UTF-8" standalone="no"?>
<svg
   xmlns:xsi="http://www.w3.org/2001/XMLSchema-instance"
   xmlns:dc="http://purl.org/dc/elements/1.1/"
   xmlns:cc="http://creativecommons.org/ns#"
   xmlns:rdf="http://www.w3.org/1999/02/22-rdf-syntax-ns#"
   xmlns:svg="http://www.w3.org/2000/svg"
   xmlns="http://www.w3.org/2000/svg"
   xmlns:sodipodi="http://sodipodi.sourceforge.net/DTD/sodipodi-0.dtd"
   xmlns:inkscape="http://www.inkscape.org/namespaces/inkscape"
   xsi:schemaLocation="http://purl.org/dc/elements/1.1/ "
   version="1.1"
   viewBox="0 0 886.09793 359.87691"
   fill="none"
   stroke="none"
   stroke-linecap="square"
   stroke-miterlimit="10"
   id="svg660"
   sodipodi:docname="types-vs-classes.svg"
   width="664.57349pt"
   height="269.90768pt"
   inkscape:version="1.0beta2 (2b71d25, 2019-12-03)">
  <metadata
     id="metadata666">
    <rdf:RDF>
      <cc:Work
         rdf:about="">
        <dc:format>image/svg+xml</dc:format>
        <dc:type
           rdf:resource="http://purl.org/dc/dcmitype/StillImage" />
        <dc:title></dc:title>
      </cc:Work>
    </rdf:RDF>
  </metadata>
  <defs
     id="defs664" />
  <sodipodi:namedview
     lock-margins="true"
     units="pt"
     pagecolor="#ffffff"
     bordercolor="#666666"
     inkscape:document-rotation="0"
     borderopacity="1"
     objecttolerance="10"
     gridtolerance="10"
     guidetolerance="10"
     inkscape:pageopacity="0"
     inkscape:pageshadow="2"
     inkscape:window-width="1366"
     inkscape:window-height="844"
     id="namedview662"
     showgrid="false"
     fit-margin-top="12"
     fit-margin-left="12"
     fit-margin-right="12"
     fit-margin-bottom="12"
     inkscape:zoom="0.64550295"
     inkscape:cx="348.78768"
     inkscape:cy="196.54047"
     inkscape:window-x="0"
     inkscape:window-y="23"
     inkscape:window-maximized="0"
     inkscape:current-layer="g658" />
  <clipPath
     id="g409398e341_0_22.0">
    <path
       d="M 0,0 H 960 V 540 H 0 Z"
       clip-rule="nonzero"
       id="path10"
       inkscape:connector-curvature="0" />
  </clipPath>
  <g
     clip-path="url(#g409398e341_0_22.0)"
     id="g658"
     transform="translate(-36.95811,-144.67455)">
    <defs
       id="defs32">
      <filter
         id="shadowFilter-g409398e341_0_22.1"
         filterUnits="userSpaceOnUse">
        <feGaussianBlur
           in="SourceAlpha"
           stdDeviation="2.0"
           result="blur"
           id="feGaussianBlur19" />
        <feComponentTransfer
           in="blur"
           color-interpolation-filters="sRGB"
           id="feComponentTransfer29">
          <feFuncR
             type="linear"
             slope="0"
             intercept="0.0"
             id="feFuncR21" />
          <feFuncG
             type="linear"
             slope="0"
             intercept="0.0"
             id="feFuncG23" />
          <feFuncB
             type="linear"
             slope="0"
             intercept="0.0"
             id="feFuncB25" />
          <feFuncA
             type="linear"
             slope="0.5"
             intercept="0"
             id="feFuncA27" />
        </feComponentTransfer>
      </filter>
    </defs>
    <rect
       style="fill:#e6e6e6;stroke:#000000;stroke-width:1;stroke-opacity:1"
       id="rect1141"
       width="255.61464"
       height="326.87689"
       x="650.94147"
       y="161.17455" />
    <rect
       y="161.17455"
       x="189.28592"
       height="326.87689"
       width="255.61464"
       id="rect312"
       style="fill:#e6e6e6;stroke:#000000;stroke-width:1;stroke-opacity:1" />
    <defs
       id="defs58">
      <filter
         id="shadowFilter-g409398e341_0_22.2"
         filterUnits="userSpaceOnUse">
        <feGaussianBlur
           in="SourceAlpha"
           stdDeviation="2.0"
           result="blur"
           id="feGaussianBlur45" />
        <feComponentTransfer
           in="blur"
           color-interpolation-filters="sRGB"
           id="feComponentTransfer55">
          <feFuncR
             type="linear"
             slope="0"
             intercept="0.0"
             id="feFuncR47" />
          <feFuncG
             type="linear"
             slope="0"
             intercept="0.0"
             id="feFuncG49" />
          <feFuncB
             type="linear"
             slope="0"
             intercept="0.0"
             id="feFuncB51" />
          <feFuncA
             type="linear"
             slope="0.5"
             intercept="0"
             id="feFuncA53" />
        </feComponentTransfer>
      </filter>
    </defs>
    <g
       id="g409398e341_0_22.2"
       style="fill:#cccccc">
      <path
         fill="#ffe599"
         d="m 674.5105,186.01581 h 216.69293 v 161.7638 H 674.5105 Z"
         fill-rule="evenodd"
         id="path60"
         style="fill:#cccccc"
         inkscape:connector-curvature="0" />
      <path
         stroke="#595959"
         stroke-width="1.0"
         stroke-linejoin="round"
         stroke-linecap="butt"
         d="m 674.5105,186.01581 h 216.69293 v 161.7638 H 674.5105 Z"
         fill-rule="evenodd"
         id="path62"
         style="fill:#cccccc"
         inkscape:connector-curvature="0" />
      <path
         fill="#000000"
         d="m 763.3399,334.6996 v -13.35938 h 1.64062 v 4.79688 q 1.14063,-1.32813 2.89063,-1.32813 1.07812,0 1.85937,0.42188 0.79688,0.42187 1.14063,1.17187 0.34375,0.75 0.34375,2.17188 v 6.125 h -1.64063 v -6.125 q 0,-1.23438 -0.53125,-1.79688 -0.53125,-0.5625 -1.51562,-0.5625 -0.71875,0 -1.35938,0.39063 -0.64062,0.375 -0.92187,1.01562 -0.26563,0.64063 -0.26563,1.78125 v 5.29688 z m 17.00073,-3.10938 1.6875,0.20313 q -0.40625,1.48437 -1.48437,2.3125 -1.07813,0.8125 -2.76563,0.8125 -2.125,0 -3.375,-1.29688 -1.23437,-1.3125 -1.23437,-3.67187 0,-2.45313 1.25,-3.79688 1.26562,-1.34375 3.26562,-1.34375 1.9375,0 3.15625,1.32813 1.23438,1.3125 1.23438,3.70312 0,0.15625 0,0.4375 h -7.21875 q 0.0937,1.59375 0.90625,2.45313 0.8125,0.84375 2.01562,0.84375 0.90625,0 1.54688,-0.46875 0.64062,-0.48438 1.01562,-1.51563 z m -5.39062,-2.65625 h 5.40625 q -0.10938,-1.21875 -0.625,-1.82812 -0.78125,-0.95313 -2.03125,-0.95313 -1.125,0 -1.90625,0.76563 -0.76563,0.75 -0.84375,2.01562 z m 15.45379,4.57813 q -0.92187,0.76562 -1.76562,1.09375 -0.82813,0.3125 -1.79688,0.3125 -1.59375,0 -2.45312,-0.78125 -0.85938,-0.78125 -0.85938,-1.98438 0,-0.71875 0.32813,-1.29687 0.32812,-0.59375 0.84375,-0.9375 0.53125,-0.35938 1.1875,-0.54688 0.46875,-0.125 1.45312,-0.25 1.98438,-0.23437 2.92188,-0.5625 0.0156,-0.34375 0.0156,-0.42187 0,-1 -0.46875,-1.42188 -0.625,-0.54687 -1.875,-0.54687 -1.15625,0 -1.70312,0.40625 -0.54688,0.40625 -0.8125,1.42187 l -1.60938,-0.21875 q 0.21875,-1.01562 0.71875,-1.64062 0.5,-0.64063 1.45313,-0.98438 0.95312,-0.34375 2.1875,-0.34375 1.25,0 2.01562,0.29688 0.78125,0.28125 1.14063,0.73437 0.375,0.4375 0.51562,1.10938 0.0781,0.42187 0.0781,1.51562 v 2.1875 q 0,2.28125 0.10937,2.89063 0.10938,0.59375 0.40625,1.15625 h -1.70312 q -0.26563,-0.51563 -0.32813,-1.1875 z m -0.14062,-3.67188 q -0.89063,0.375 -2.67188,0.625 -1.01562,0.14063 -1.4375,0.32813 -0.42187,0.1875 -0.65625,0.53125 -0.21875,0.34375 -0.21875,0.78125 0,0.65625 0.5,1.09375 0.5,0.4375 1.45313,0.4375 0.9375,0 1.67187,-0.40625 0.75,-0.42188 1.09375,-1.14063 0.26563,-0.5625 0.26563,-1.64062 z m 4.20386,8.5625 v -13.375 h 1.48437 v 1.25 q 0.53125,-0.73437 1.1875,-1.09375 0.67188,-0.375 1.625,-0.375 1.23438,0 2.17188,0.64063 0.95312,0.625 1.4375,1.79687 0.48437,1.15625 0.48437,2.54688 0,1.48437 -0.53125,2.67187 -0.53125,1.1875 -1.54687,1.82813 -1.01563,0.625 -2.14063,0.625 -0.8125,0 -1.46875,-0.34375 -0.65625,-0.34375 -1.0625,-0.875 v 4.70312 z m 1.48437,-8.48437 q 0,1.85937 0.75,2.76562 0.76563,0.89063 1.82813,0.89063 1.09375,0 1.875,-0.92188 0.78125,-0.9375 0.78125,-2.875 0,-1.84375 -0.76563,-2.76562 -0.75,-0.92188 -1.8125,-0.92188 -1.04687,0 -1.85937,0.98438 -0.79688,0.96875 -0.79688,2.84375 z"
         fill-rule="nonzero"
         id="path64"
         style="fill:#cccccc"
         inkscape:connector-curvature="0" />
    </g>
    <defs
       id="defs84">
      <filter
         id="shadowFilter-g409398e341_0_22.3"
         filterUnits="userSpaceOnUse">
        <feGaussianBlur
           in="SourceAlpha"
           stdDeviation="2.0"
           result="blur"
           id="feGaussianBlur71" />
        <feComponentTransfer
           in="blur"
           color-interpolation-filters="sRGB"
           id="feComponentTransfer81">
          <feFuncR
             type="linear"
             slope="0"
             intercept="0.0"
             id="feFuncR73" />
          <feFuncG
             type="linear"
             slope="0"
             intercept="0.0"
             id="feFuncG75" />
          <feFuncB
             type="linear"
             slope="0"
             intercept="0.0"
             id="feFuncB77" />
          <feFuncA
             type="linear"
             slope="0.5"
             intercept="0"
             id="feFuncA79" />
        </feComponentTransfer>
      </filter>
    </defs>
    <g
       id="g409398e341_0_22.3">
      <path
         fill="#ffffff"
         d="m 509.75732,263.51706 h 87.52759 v 91.42752 l -14.58826,14.58823 h -72.93933 z"
         fill-rule="evenodd"
         id="path86"
         inkscape:connector-curvature="0" />
      <path
         fill="#cbcbcb"
         d="m 582.69666,369.5328 2.91766,-11.67056 11.6706,-2.91767 z"
         fill-rule="evenodd"
         id="path88"
         inkscape:connector-curvature="0" />
      <path
         fill="#000000"
         fill-opacity="0.0"
         d="m 582.69666,369.5328 2.91766,-11.67056 11.6706,-2.91767 -14.58826,14.58823 H 509.75733 V 263.51705 h 87.52759 v 91.42752"
         fill-rule="evenodd"
         id="path90"
         inkscape:connector-curvature="0" />
      <path
         stroke="#595959"
         stroke-width="1.0"
         stroke-linejoin="round"
         stroke-linecap="butt"
         d="m 582.69666,369.5328 2.91766,-11.67056 11.6706,-2.91767 -14.58826,14.58823 H 509.75733 V 263.51705 h 87.52759 v 91.42752"
         fill-rule="evenodd"
         id="path92"
         inkscape:connector-curvature="0" />
      <path
         fill="#000000"
         d="m 529.7261,289.46332 1.76562,0.45312 q -0.5625,2.17188 -2,3.32813 -1.4375,1.14062 -3.53125,1.14062 -2.15625,0 -3.51562,-0.875 -1.34375,-0.89062 -2.0625,-2.54687 -0.70313,-1.67188 -0.70313,-3.59375 0,-2.07813 0.79688,-3.625 0.79687,-1.5625 2.26562,-2.35938 1.48438,-0.8125 3.25,-0.8125 2,0 3.35938,1.01563 1.375,1.01562 1.90625,2.875 l -1.73438,0.40625 q -0.46875,-1.45313 -1.35937,-2.10938 -0.875,-0.67187 -2.20313,-0.67187 -1.54687,0 -2.57812,0.73437 -1.03125,0.73438 -1.45313,1.98438 -0.42187,1.23437 -0.42187,2.5625 0,1.70312 0.5,2.96875 0.5,1.26562 1.54687,1.90625 1.04688,0.625 2.26563,0.625 1.48437,0 2.51562,-0.85938 1.03125,-0.85937 1.39063,-2.54687 z m 2.47296,4.6875 5.125,-13.35938 h 1.90625 l 5.46875,13.35938 h -2.01562 l -1.54688,-4.04688 h -5.59375 l -1.46875,4.04688 z m 3.85938,-5.48438 h 4.53125 l -1.40625,-3.70312 q -0.625,-1.6875 -0.9375,-2.76563 -0.26563,1.28125 -0.71875,2.54688 z m 10.14666,5.48438 v -13.35938 h 9.01563 v 1.57813 h -7.25 v 4.14062 h 6.26562 v 1.57813 h -6.26562 v 6.0625 z m 11.3335,0 v -13.35938 h 9.65625 v 1.57813 h -7.875 v 4.09375 h 7.375 v 1.5625 h -7.375 v 4.54687 h 8.1875 v 1.57813 z"
         fill-rule="nonzero"
         id="path94"
         inkscape:connector-curvature="0" />
      <path
         fill="#000000"
         d="m 520.1167,316.15082 v -13.35938 h 5.01563 q 1.53125,0 2.45312,0.40625 0.92188,0.40625 1.4375,1.25 0.53125,0.84375 0.53125,1.76563 0,0.85937 -0.46875,1.625 -0.45312,0.75 -1.39062,1.20312 1.20312,0.35938 1.85937,1.21875 0.65625,0.85938 0.65625,2.01563 0,0.9375 -0.40625,1.75 -0.39062,0.79687 -0.98437,1.23437 -0.57813,0.4375 -1.45313,0.67188 -0.875,0.21875 -2.15625,0.21875 z m 1.78125,-7.75 h 2.875 q 1.1875,0 1.6875,-0.14063 0.67188,-0.20312 1.01563,-0.67187 0.34375,-0.46875 0.34375,-1.17188 0,-0.65625 -0.32813,-1.15625 -0.3125,-0.51562 -0.90625,-0.70312 -0.59375,-0.1875 -2.03125,-0.1875 h -2.65625 z m 0,6.17187 h 3.3125 q 0.85938,0 1.20313,-0.0625 0.60937,-0.10937 1.01562,-0.35937 0.42188,-0.26563 0.6875,-0.75 0.26563,-0.48438 0.26563,-1.125 0,-0.75 -0.39063,-1.29688 -0.375,-0.54687 -1.0625,-0.76562 -0.67187,-0.23438 -1.95312,-0.23438 h -3.07813 z m 9.27173,1.57813 5.125,-13.35938 h 1.90625 l 5.46875,13.35938 h -2.01563 l -1.54687,-4.04688 h -5.59375 l -1.46875,4.04688 z m 3.85937,-5.48438 h 4.53125 l -1.40625,-3.70312 q -0.625,-1.6875 -0.9375,-2.76563 -0.26562,1.28125 -0.71875,2.54688 z m 9.9748,5.48438 v -13.35938 h 5.01562 q 1.53125,0 2.45313,0.40625 0.92187,0.40625 1.4375,1.25 0.53125,0.84375 0.53125,1.76563 0,0.85937 -0.46875,1.625 -0.45313,0.75 -1.39063,1.20312 1.20313,0.35938 1.85938,1.21875 0.65625,0.85938 0.65625,2.01563 0,0.9375 -0.40625,1.75 -0.39063,0.79687 -0.98438,1.23437 -0.57812,0.4375 -1.45312,0.67188 -0.875,0.21875 -2.15625,0.21875 z m 1.78125,-7.75 h 2.875 q 1.1875,0 1.6875,-0.14063 0.67187,-0.20312 1.01562,-0.67187 0.34375,-0.46875 0.34375,-1.17188 0,-0.65625 -0.32812,-1.15625 -0.3125,-0.51562 -0.90625,-0.70312 -0.59375,-0.1875 -2.03125,-0.1875 h -2.65625 z m 0,6.17187 h 3.3125 q 0.85937,0 1.20312,-0.0625 0.60938,-0.10937 1.01563,-0.35937 0.42187,-0.26563 0.6875,-0.75 0.26562,-0.48438 0.26562,-1.125 0,-0.75 -0.39062,-1.29688 -0.375,-0.54687 -1.0625,-0.76562 -0.67188,-0.23438 -1.95313,-0.23438 h -3.07812 z m 10.77172,1.57813 v -13.35938 h 9.65625 v 1.57813 h -7.875 v 4.09375 h 7.375 v 1.5625 h -7.375 v 4.54687 h 8.1875 v 1.57813 z"
         fill-rule="nonzero"
         id="path96"
         inkscape:connector-curvature="0" />
      <path
         fill="#000000"
         d="m 520.4448,338.15082 v -1.875 h 1.875 v 1.875 z m 5.18329,0 v -1.875 h 1.875 v 1.875 z m 5.18335,0 v -1.875 h 1.875 v 1.875 z"
         fill-rule="nonzero"
         id="path98"
         inkscape:connector-curvature="0" />
    </g>
    <defs
       id="defs118">
      <filter
         id="shadowFilter-g409398e341_0_22.4"
         filterUnits="userSpaceOnUse">
        <feGaussianBlur
           in="SourceAlpha"
           stdDeviation="2.0"
           result="blur"
           id="feGaussianBlur105" />
        <feComponentTransfer
           in="blur"
           color-interpolation-filters="sRGB"
           id="feComponentTransfer115">
          <feFuncR
             type="linear"
             slope="0"
             intercept="0.0"
             id="feFuncR107" />
          <feFuncG
             type="linear"
             slope="0"
             intercept="0.0"
             id="feFuncG109" />
          <feFuncB
             type="linear"
             slope="0"
             intercept="0.0"
             id="feFuncB111" />
          <feFuncA
             type="linear"
             slope="0.5"
             intercept="0"
             id="feFuncA113" />
        </feComponentTransfer>
      </filter>
    </defs>
    <g
       id="g409398e341_0_22.4">
      <path
         fill="#ffffff"
         d="m 61.45812,255.51706 h 87.52756 v 91.42752 l -14.58821,14.58823 H 61.458119 Z"
         fill-rule="evenodd"
         id="path120"
         inkscape:connector-curvature="0" />
      <path
         fill="#cbcbcb"
         d="m 134.39746,361.5328 2.91763,-11.67056 11.67058,-2.91767 z"
         fill-rule="evenodd"
         id="path122"
         inkscape:connector-curvature="0" />
      <path
         fill="#000000"
         fill-opacity="0.0"
         d="m 134.39746,361.5328 2.91763,-11.67056 11.67058,-2.91767 -14.58821,14.58823 H 61.45811 V 255.51705 h 87.52756 v 91.42752"
         fill-rule="evenodd"
         id="path124"
         inkscape:connector-curvature="0" />
      <path
         stroke="#595959"
         stroke-width="1.0"
         stroke-linejoin="round"
         stroke-linecap="butt"
         d="m 134.39746,361.5328 2.91763,-11.67056 11.67058,-2.91767 -14.58821,14.58823 H 61.45811 V 255.51705 h 87.52756 v 91.42752"
         fill-rule="evenodd"
         id="path126"
         inkscape:connector-curvature="0" />
      <path
         fill="#000000"
         d="m 72.083115,286.15082 v -8.40625 H 70.62999 v -1.26563 h 1.453125 v -1.03125 q 0,-0.96875 0.171875,-1.45312 0.234375,-0.64063 0.828125,-1.03125 0.59375,-0.39063 1.671875,-0.39063 0.6875,0 1.53125,0.15625 l -0.25,1.4375 q -0.5,-0.0937 -0.953125,-0.0937 -0.75,0 -1.0625,0.32813 -0.3125,0.3125 -0.3125,1.1875 v 0.89062 h 1.890625 v 1.26563 h -1.890625 v 8.40625 z m 4.183304,-4.84375 q 0,-2.6875 1.484375,-3.96875 1.25,-1.07813 3.046875,-1.07813 2,0 3.265625,1.3125 1.265625,1.29688 1.265625,3.60938 0,1.85937 -0.5625,2.9375 -0.5625,1.0625 -1.640625,1.65625 -1.0625,0.59375 -2.328125,0.59375 -2.03125,0 -3.28125,-1.29688 -1.25,-1.3125 -1.25,-3.76562 z m 1.6875,0 q 0,1.85937 0.796875,2.79687 0.8125,0.92188 2.046875,0.92188 1.21875,0 2.03125,-0.92188 0.8125,-0.9375 0.8125,-2.84375 0,-1.79687 -0.8125,-2.71875 -0.8125,-0.92187 -2.03125,-0.92187 -1.234375,0 -2.046875,0.92187 -0.796875,0.90625 -0.796875,2.76563 z m 8.688217,0 q 0,-2.6875 1.484375,-3.96875 1.25,-1.07813 3.046875,-1.07813 2,0 3.265625,1.3125 1.265625,1.29688 1.265625,3.60938 0,1.85937 -0.5625,2.9375 -0.5625,1.0625 -1.640625,1.65625 -1.0625,0.59375 -2.328125,0.59375 -2.03125,0 -3.28125,-1.29688 -1.25,-1.3125 -1.25,-3.76562 z m 1.6875,0 q 0,1.85937 0.796875,2.79687 0.8125,0.92188 2.046875,0.92188 1.21875,0 2.03125,-0.92188 0.8125,-0.9375 0.8125,-2.84375 0,-1.79687 -0.8125,-2.71875 -0.8125,-0.92187 -2.03125,-0.92187 -1.234375,0 -2.046875,0.92187 -0.796875,0.90625 -0.796875,2.76563 z m 12.422594,8.76562 q -1.359377,-1.70312 -2.296877,-4 -0.9375,-2.29687 -0.9375,-4.76562 0,-2.15625 0.703125,-4.14063 0.828125,-2.3125 2.531252,-4.59375 h 1.17187 q -1.09375,1.89063 -1.45312,2.70313 -0.546877,1.25 -0.875002,2.625 -0.390625,1.70312 -0.390625,3.42187 0,4.375 2.718747,8.75 z m 4.1658,0 h -1.1875 q 2.73438,-4.375 2.73438,-8.75 0,-1.71875 -0.39063,-3.39062 -0.3125,-1.375 -0.875,-2.625 -0.35937,-0.82813 -1.46875,-2.73438 h 1.1875 q 1.70313,2.28125 2.53125,4.59375 0.6875,1.98438 0.6875,4.14063 0,2.46875 -0.9375,4.76562 -0.9375,2.29688 -2.28125,4 z m 9.59911,-9.5 q 0.70312,-0.0156 1.14062,-0.375 0.45313,-0.35937 0.59375,-0.98437 0.14063,-0.625 0.14063,-2.14063 0.0156,-1.53125 0.0625,-2.01562 0.0937,-0.76563 0.3125,-1.23438 0.21875,-0.46875 0.54687,-0.73437 0.32813,-0.28125 0.84375,-0.42188 0.34375,-0.0937 1.125,-0.0937 h 0.51563 v 1.42188 h -0.28125 q -0.95313,0 -1.26563,0.34375 -0.3125,0.34375 -0.3125,1.53125 0,2.39062 -0.0937,3.01562 -0.15625,0.96875 -0.5625,1.5 -0.39062,0.53125 -1.23437,0.9375 1,0.42188 1.4375,1.28125 0.45312,0.85938 0.45312,2.8125 0,1.78125 0.0469,2.125 0.0625,0.60938 0.35937,0.85938 0.29688,0.25 1.17188,0.25 h 0.28125 v 1.42187 h -0.51563 q -0.89062,0 -1.29687,-0.14062 -0.57813,-0.20313 -0.96875,-0.6875 -0.375,-0.46875 -0.5,-1.1875 -0.10938,-0.71875 -0.125,-2.35938 0,-1.64062 -0.14063,-2.26562 -0.14062,-0.625 -0.59375,-0.98438 -0.4375,-0.375 -1.14062,-0.39062 z"
         fill-rule="nonzero"
         id="path128"
         inkscape:connector-curvature="0" />
      <path
         fill="#000000"
         d="m 72.145615,308.15082 v -1.875 h 1.875 v 1.875 z m 5.183304,0 v -1.875 h 1.875 v 1.875 z m 5.183304,0 v -1.875 h 1.875 v 1.875 z"
         fill-rule="nonzero"
         id="path130"
         inkscape:connector-curvature="0" />
      <path
         fill="#000000"
         d="m 76.16124,324.5727 v 1.48437 q -0.703125,0.0156 -1.140625,0.39063 -0.4375,0.35937 -0.59375,0.98437 -0.140625,0.625 -0.15625,2.15625 0,1.51563 -0.04687,2 -0.07813,0.76563 -0.3125,1.21875 -0.21875,0.46875 -0.546875,0.75 -0.328125,0.28125 -0.84375,0.42188 -0.34375,0.0937 -1.125,0.0937 h -0.51563 v -1.42188 h 0.28125 q 0.953125,0 1.265625,-0.34375 0.3125,-0.34375 0.3125,-1.53125 0,-2.28125 0.07813,-2.89062 0.140625,-1.01563 0.578125,-1.60938 0.4375,-0.60937 1.25,-0.95312 -1.046875,-0.5 -1.484375,-1.32813 -0.421875,-0.82812 -0.421875,-2.78125 0,-1.78125 -0.04687,-2.125 -0.0625,-0.60937 -0.359375,-0.84375 -0.296875,-0.25 -1.171875,-0.25 H 70.88 v -1.42187 h 0.515625 q 0.890625,0 1.296875,0.14062 0.578125,0.20313 0.953125,0.6875 0.390625,0.46875 0.5,1.1875 0.125,0.71875 0.125,2.35938 0.01563,1.64062 0.15625,2.26562 0.15625,0.60938 0.59375,0.98438 0.4375,0.35937 1.140625,0.375 z"
         fill-rule="nonzero"
         id="path132"
         inkscape:connector-curvature="0" />
    </g>
    <defs
       id="defs156">
      <filter
         id="shadowFilter-g409398e341_0_22.5"
         filterUnits="userSpaceOnUse">
        <feGaussianBlur
           in="SourceAlpha"
           stdDeviation="2.0"
           result="blur"
           id="feGaussianBlur143" />
        <feComponentTransfer
           in="blur"
           color-interpolation-filters="sRGB"
           id="feComponentTransfer153">
          <feFuncR
             type="linear"
             slope="0"
             intercept="0.0"
             id="feFuncR145" />
          <feFuncG
             type="linear"
             slope="0"
             intercept="0.0"
             id="feFuncG147" />
          <feFuncB
             type="linear"
             slope="0"
             intercept="0.0"
             id="feFuncB149" />
          <feFuncA
             type="linear"
             slope="0.5"
             intercept="0"
             id="feFuncA151" />
        </feComponentTransfer>
      </filter>
    </defs>
    <g
       id="g409398e341_0_22.5">
      <path
         fill="#ffffff"
         d="m 53.45812,247.51706 h 87.52756 v 91.42752 l -14.58821,14.58823 H 53.458119 Z"
         fill-rule="evenodd"
         id="path158"
         inkscape:connector-curvature="0" />
      <path
         fill="#cbcbcb"
         d="m 126.39746,353.5328 2.91763,-11.67056 11.67058,-2.91767 z"
         fill-rule="evenodd"
         id="path160"
         inkscape:connector-curvature="0" />
      <path
         fill="#000000"
         fill-opacity="0.0"
         d="m 126.39746,353.5328 2.91763,-11.67056 11.67058,-2.91767 -14.58821,14.58823 H 53.45811 V 247.51705 h 87.52756 v 91.42752"
         fill-rule="evenodd"
         id="path162"
         inkscape:connector-curvature="0" />
      <path
         stroke="#595959"
         stroke-width="1.0"
         stroke-linejoin="round"
         stroke-linecap="butt"
         d="m 126.39746,353.5328 2.91763,-11.67056 11.67058,-2.91767 -14.58821,14.58823 H 53.45811 V 247.51705 h 87.52756 v 91.42752"
         fill-rule="evenodd"
         id="path164"
         inkscape:connector-curvature="0" />
      <path
         fill="#000000"
         d="m 64.083115,278.15082 v -8.40625 h -1.453121 v -1.26563 h 1.453121 v -1.03125 q 0,-0.96875 0.171875,-1.45312 0.234375,-0.64063 0.828125,-1.03125 0.59375,-0.39063 1.671875,-0.39063 0.6875,0 1.53125,0.15625 l -0.25,1.4375 q -0.5,-0.0937 -0.953125,-0.0937 -0.75,0 -1.0625,0.32813 -0.3125,0.3125 -0.3125,1.1875 v 0.89062 h 1.890625 v 1.26563 h -1.890625 v 8.40625 z m 11.120804,0 v -1.42188 q -1.125,1.64063 -3.0625,1.64063 -0.859375,0 -1.609375,-0.32813 -0.734375,-0.32812 -1.09375,-0.82812 -0.359375,-0.5 -0.5,-1.21875 -0.109375,-0.46875 -0.109375,-1.53125 v -5.98438 h 1.640625 v 5.35938 q 0,1.28125 0.109375,1.73437 0.15625,0.64063 0.65625,1.01563 0.5,0.375 1.234375,0.375 0.734375,0 1.375,-0.375 0.65625,-0.39063 0.921875,-1.03125 0.265625,-0.65625 0.265625,-1.89063 v -5.1875 h 1.640625 v 9.67188 z m 4.047592,0 v -9.67188 h 1.46875 v 1.375 q 1.0625,-1.59375 3.078125,-1.59375 0.875,0 1.609375,0.3125 0.734375,0.3125 1.09375,0.82813 0.375,0.5 0.515625,1.20312 0.09375,0.45313 0.09375,1.59375 v 5.95313 h -1.640625 v -5.89063 q 0,-1 -0.203125,-1.48437 -0.1875,-0.5 -0.671875,-0.79688 -0.484375,-0.29687 -1.140625,-0.29687 -1.046875,0 -1.8125,0.67187 -0.75,0.65625 -0.75,2.51563 v 5.28125 z m 15.949646,0 v -8.40625 h -1.453125 v -1.26563 h 1.453125 v -1.03125 q 0,-0.96875 0.171875,-1.45312 0.234375,-0.64063 0.828125,-1.03125 0.59375,-0.39063 1.671875,-0.39063 0.6875,0 1.53125,0.15625 l -0.25,1.4375 q -0.5,-0.0937 -0.953125,-0.0937 -0.75,0 -1.0625,0.32813 -0.3125,0.3125 -0.3125,1.1875 v 0.89062 h 1.890625 v 1.26563 h -1.890625 v 8.40625 z m 7.917683,3.92187 q -1.35938,-1.70312 -2.29688,-4 -0.937499,-2.29687 -0.937499,-4.76562 0,-2.15625 0.703129,-4.14063 0.82812,-2.3125 2.53125,-4.59375 h 1.17187 q -1.09375,1.89063 -1.45312,2.70313 -0.54688,1.25 -0.875,2.625 -0.39063,1.70312 -0.39063,3.42187 0,4.375 2.71875,8.75 z m 4.1658,0 h -1.1875 q 2.73437,-4.375 2.73437,-8.75 0,-1.71875 -0.39062,-3.39062 -0.3125,-1.375 -0.875,-2.625 -0.35938,-0.82813 -1.46875,-2.73438 h 1.1875 q 1.70312,2.28125 2.53125,4.59375 0.6875,1.98438 0.6875,4.14063 0,2.46875 -0.9375,4.76562 -0.9375,2.29688 -2.28125,4 z m 9.5991,-9.5 q 0.70313,-0.0156 1.14063,-0.375 0.45312,-0.35937 0.59375,-0.98437 0.14062,-0.625 0.14062,-2.14063 0.0156,-1.53125 0.0625,-2.01562 0.0937,-0.76563 0.3125,-1.23438 0.21875,-0.46875 0.54688,-0.73437 0.32812,-0.28125 0.84375,-0.42188 0.34375,-0.0937 1.125,-0.0937 h 0.51562 v 1.42188 h -0.28125 q -0.95312,0 -1.26562,0.34375 -0.3125,0.34375 -0.3125,1.53125 0,2.39062 -0.0937,3.01562 -0.15625,0.96875 -0.5625,1.5 -0.39063,0.53125 -1.23438,0.9375 1,0.42188 1.4375,1.28125 0.45313,0.85938 0.45313,2.8125 0,1.78125 0.0469,2.125 0.0625,0.60938 0.35938,0.85938 0.29687,0.25 1.17187,0.25 h 0.28125 v 1.42187 h -0.51562 q -0.89063,0 -1.29688,-0.14062 -0.57812,-0.20313 -0.96875,-0.6875 -0.375,-0.46875 -0.5,-1.1875 -0.10937,-0.71875 -0.125,-2.35938 0,-1.64062 -0.14062,-2.26562 -0.14063,-0.625 -0.59375,-0.98438 -0.4375,-0.375 -1.14063,-0.39062 z"
         fill-rule="nonzero"
         id="path166"
         inkscape:connector-curvature="0" />
      <path
         fill="#000000"
         d="m 84.87883,300.15082 v -1.875 h 1.875 v 1.875 z m 5.183304,0 v -1.875 h 1.875 v 1.875 z m 5.183304,0 v -1.875 h 1.875 v 1.875 z"
         fill-rule="nonzero"
         id="path168"
         inkscape:connector-curvature="0" />
      <path
         fill="#000000"
         d="m 68.16124,316.5727 v 1.48437 q -0.703125,0.0156 -1.140625,0.39063 -0.4375,0.35937 -0.59375,0.98437 -0.140625,0.625 -0.15625,2.15625 0,1.51563 -0.04687,2 -0.07813,0.76563 -0.3125,1.21875 -0.21875,0.46875 -0.546875,0.75 -0.328125,0.28125 -0.84375,0.42188 -0.34375,0.0937 -1.124996,0.0937 h -0.515625 v -1.42188 h 0.28125 q 0.953121,0 1.265621,-0.34375 0.3125,-0.34375 0.3125,-1.53125 0,-2.28125 0.07813,-2.89062 0.140625,-1.01563 0.578125,-1.60938 0.4375,-0.60937 1.25,-0.95312 -1.046875,-0.5 -1.484375,-1.32813 -0.421875,-0.82812 -0.421875,-2.78125 0,-1.78125 -0.04687,-2.125 -0.0625,-0.60937 -0.359375,-0.84375 -0.296875,-0.25 -1.171871,-0.25 h -0.28125 v -1.42187 h 0.515625 q 0.890621,0 1.296871,0.14062 0.578125,0.20313 0.953125,0.6875 0.390625,0.46875 0.5,1.1875 0.125,0.71875 0.125,2.35938 0.01563,1.64062 0.15625,2.26562 0.15625,0.60938 0.59375,0.98438 0.4375,0.35937 1.140625,0.375 z"
         fill-rule="nonzero"
         id="path170"
         inkscape:connector-curvature="0" />
    </g>
    <defs
       id="defs190">
      <filter
         id="shadowFilter-g409398e341_0_22.6"
         filterUnits="userSpaceOnUse">
        <feGaussianBlur
           in="SourceAlpha"
           stdDeviation="2.0"
           result="blur"
           id="feGaussianBlur177" />
        <feComponentTransfer
           in="blur"
           color-interpolation-filters="sRGB"
           id="feComponentTransfer187">
          <feFuncR
             type="linear"
             slope="0"
             intercept="0.0"
             id="feFuncR179" />
          <feFuncG
             type="linear"
             slope="0"
             intercept="0.0"
             id="feFuncG181" />
          <feFuncB
             type="linear"
             slope="0"
             intercept="0.0"
             id="feFuncB183" />
          <feFuncA
             type="linear"
             slope="0.5"
             intercept="0"
             id="feFuncA185" />
        </feComponentTransfer>
      </filter>
    </defs>
    <g
       id="g409398e341_0_22.6">
      <path
         fill="#ffffff"
         d="m 501.75732,255.51706 h 87.52759 v 91.42752 l -14.58826,14.58823 h -72.93933 z"
         fill-rule="evenodd"
         id="path192"
         inkscape:connector-curvature="0" />
      <path
         fill="#cbcbcb"
         d="m 574.69666,361.5328 2.91766,-11.67056 11.6706,-2.91767 z"
         fill-rule="evenodd"
         id="path194"
         inkscape:connector-curvature="0" />
      <path
         fill="#000000"
         fill-opacity="0.0"
         d="m 574.69666,361.5328 2.91766,-11.67056 11.6706,-2.91767 -14.58826,14.58823 H 501.75733 V 255.51705 h 87.52759 v 91.42752"
         fill-rule="evenodd"
         id="path196"
         inkscape:connector-curvature="0" />
      <path
         stroke="#595959"
         stroke-width="1.0"
         stroke-linejoin="round"
         stroke-linecap="butt"
         d="m 574.69666,361.5328 2.91766,-11.67056 11.6706,-2.91767 -14.58826,14.58823 H 501.75733 V 255.51705 h 87.52759 v 91.42752"
         fill-rule="evenodd"
         id="path198"
         inkscape:connector-curvature="0" />
      <path
         fill="#000000"
         d="m 517.71045,282.43707 h -1.64062 v -10.45313 q -0.59375,0.5625 -1.5625,1.14063 -0.95313,0.5625 -1.71875,0.84375 v -1.59375 q 1.375,-0.64063 2.40625,-1.5625 1.03125,-0.92188 1.45312,-1.78125 h 1.0625 z m 4.20386,-6.59375 q 0,-2.35938 0.48437,-3.79688 0.48438,-1.45312 1.4375,-2.23437 0.96875,-0.78125 2.42188,-0.78125 1.07812,0 1.89062,0.4375 0.8125,0.42187 1.32813,1.25 0.53125,0.8125 0.82812,1.98437 0.3125,1.15625 0.3125,3.14063 0,2.35937 -0.48437,3.8125 -0.48438,1.4375 -1.45313,2.23437 -0.95312,0.78125 -2.42187,0.78125 -1.92188,0 -3.03125,-1.39062 -1.3125,-1.67188 -1.3125,-5.4375 z m 1.67187,0 q 0,3.29687 0.76563,4.39062 0.78125,1.07813 1.90625,1.07813 1.14062,0 1.90625,-1.09375 0.76562,-1.09375 0.76562,-4.375 0,-3.29688 -0.76562,-4.375 -0.76563,-1.07813 -1.92188,-1.07813 -1.125,0 -1.79687,0.95313 -0.85938,1.21875 -0.85938,4.5 z m 14.87573,6.59375 h -1.64062 v -10.45313 q -0.59375,0.5625 -1.5625,1.14063 -0.95313,0.5625 -1.71875,0.84375 v -1.59375 q 1.375,-0.64063 2.40625,-1.5625 1.03125,-0.92188 1.45312,-1.78125 h 1.0625 z m 4.2038,-6.59375 q 0,-2.35938 0.48438,-3.79688 0.48437,-1.45312 1.4375,-2.23437 0.96875,-0.78125 2.42187,-0.78125 1.07813,0 1.89063,0.4375 0.8125,0.42187 1.32812,1.25 0.53125,0.8125 0.82813,1.98437 0.3125,1.15625 0.3125,3.14063 0,2.35937 -0.48438,3.8125 -0.48437,1.4375 -1.45312,2.23437 -0.95313,0.78125 -2.42188,0.78125 -1.92187,0 -3.03125,-1.39062 -1.3125,-1.67188 -1.3125,-5.4375 z m 1.67188,0 q 0,3.29687 0.76562,4.39062 0.78125,1.07813 1.90625,1.07813 1.14063,0 1.90625,-1.09375 0.76563,-1.09375 0.76563,-4.375 0,-3.29688 -0.76563,-4.375 -0.76562,-1.07813 -1.92187,-1.07813 -1.125,0 -1.79688,0.95313 -0.85937,1.21875 -0.85937,4.5 z m 8.70385,0 q 0,-2.35938 0.48438,-3.79688 0.48437,-1.45312 1.4375,-2.23437 0.96875,-0.78125 2.42187,-0.78125 1.07813,0 1.89063,0.4375 0.8125,0.42187 1.32812,1.25 0.53125,0.8125 0.82813,1.98437 0.3125,1.15625 0.3125,3.14063 0,2.35937 -0.48438,3.8125 -0.48437,1.4375 -1.45312,2.23437 -0.95313,0.78125 -2.42188,0.78125 -1.92187,0 -3.03125,-1.39062 -1.3125,-1.67188 -1.3125,-5.4375 z m 1.67188,0 q 0,3.29687 0.76562,4.39062 0.78125,1.07813 1.90625,1.07813 1.14063,0 1.90625,-1.09375 0.76563,-1.09375 0.76563,-4.375 0,-3.29688 -0.76563,-4.375 -0.76562,-1.07813 -1.92187,-1.07813 -1.125,0 -1.79688,0.95313 -0.85937,1.21875 -0.85937,4.5 z m 14.87573,6.59375 h -1.64063 v -10.45313 q -0.59375,0.5625 -1.5625,1.14063 -0.95312,0.5625 -1.71875,0.84375 v -1.59375 q 1.375,-0.64063 2.40625,-1.5625 1.03125,-0.92188 1.45313,-1.78125 h 1.0625 z"
         fill-rule="nonzero"
         id="path200"
         inkscape:connector-curvature="0" />
      <path
         fill="#000000"
         d="m 511.53857,297.84332 q 0,-2.35938 0.48437,-3.79688 0.48438,-1.45312 1.4375,-2.23437 0.96875,-0.78125 2.42188,-0.78125 1.07812,0 1.89062,0.4375 0.8125,0.42187 1.32813,1.25 0.53125,0.8125 0.82812,1.98437 0.3125,1.15625 0.3125,3.14063 0,2.35937 -0.48437,3.8125 -0.48438,1.4375 -1.45313,2.23437 -0.95312,0.78125 -2.42187,0.78125 -1.92188,0 -3.03125,-1.39062 -1.3125,-1.67188 -1.3125,-5.4375 z m 1.67187,0 q 0,3.29687 0.76563,4.39062 0.78125,1.07813 1.90625,1.07813 1.14062,0 1.90625,-1.09375 0.76562,-1.09375 0.76562,-4.375 0,-3.29688 -0.76562,-4.375 -0.76563,-1.07813 -1.92188,-1.07813 -1.125,0 -1.79687,0.95313 -0.85938,1.21875 -0.85938,4.5 z m 14.87574,6.59375 h -1.64063 v -10.45313 q -0.59375,0.5625 -1.5625,1.14063 -0.95312,0.5625 -1.71875,0.84375 v -1.59375 q 1.375,-0.64063 2.40625,-1.5625 1.03125,-0.92188 1.45313,-1.78125 h 1.0625 z m 8.99029,0 h -1.64062 v -10.45313 q -0.59375,0.5625 -1.5625,1.14063 -0.95313,0.5625 -1.71875,0.84375 v -1.59375 q 1.375,-0.64063 2.40625,-1.5625 1.03125,-0.92188 1.45312,-1.78125 h 1.0625 z m 4.20386,-6.59375 q 0,-2.35938 0.48437,-3.79688 0.48438,-1.45312 1.4375,-2.23437 0.96875,-0.78125 2.42188,-0.78125 1.07812,0 1.89062,0.4375 0.8125,0.42187 1.32813,1.25 0.53125,0.8125 0.82812,1.98437 0.3125,1.15625 0.3125,3.14063 0,2.35937 -0.48437,3.8125 -0.48438,1.4375 -1.45313,2.23437 -0.95312,0.78125 -2.42187,0.78125 -1.92188,0 -3.03125,-1.39062 -1.3125,-1.67188 -1.3125,-5.4375 z m 1.67187,0 q 0,3.29687 0.76563,4.39062 0.78125,1.07813 1.90625,1.07813 1.14062,0 1.90625,-1.09375 0.76562,-1.09375 0.76562,-4.375 0,-3.29688 -0.76562,-4.375 -0.76563,-1.07813 -1.92188,-1.07813 -1.125,0 -1.79687,0.95313 -0.85938,1.21875 -0.85938,4.5 z m 8.7038,0 q 0,-2.35938 0.48438,-3.79688 0.48437,-1.45312 1.4375,-2.23437 0.96875,-0.78125 2.42187,-0.78125 1.07813,0 1.89063,0.4375 0.8125,0.42187 1.32812,1.25 0.53125,0.8125 0.82813,1.98437 0.3125,1.15625 0.3125,3.14063 0,2.35937 -0.48438,3.8125 -0.48437,1.4375 -1.45312,2.23437 -0.95313,0.78125 -2.42188,0.78125 -1.92187,0 -3.03125,-1.39062 -1.3125,-1.67188 -1.3125,-5.4375 z m 1.67188,0 q 0,3.29687 0.76562,4.39062 0.78125,1.07813 1.90625,1.07813 1.14063,0 1.90625,-1.09375 0.76563,-1.09375 0.76563,-4.375 0,-3.29688 -0.76563,-4.375 -0.76562,-1.07813 -1.92187,-1.07813 -1.125,0 -1.79688,0.95313 -0.85937,1.21875 -0.85937,4.5 z m 14.87573,6.59375 h -1.64063 v -10.45313 q -0.59375,0.5625 -1.5625,1.14063 -0.95312,0.5625 -1.71875,0.84375 v -1.59375 q 1.375,-0.64063 2.40625,-1.5625 1.03125,-0.92188 1.45313,-1.78125 h 1.0625 z"
         fill-rule="nonzero"
         id="path202"
         inkscape:connector-curvature="0" />
      <path
         fill="#000000"
         d="m 511.53857,319.84332 q 0,-2.35938 0.48437,-3.79688 0.48438,-1.45312 1.4375,-2.23437 0.96875,-0.78125 2.42188,-0.78125 1.07812,0 1.89062,0.4375 0.8125,0.42187 1.32813,1.25 0.53125,0.8125 0.82812,1.98437 0.3125,1.15625 0.3125,3.14063 0,2.35937 -0.48437,3.8125 -0.48438,1.4375 -1.45313,2.23437 -0.95312,0.78125 -2.42187,0.78125 -1.92188,0 -3.03125,-1.39062 -1.3125,-1.67188 -1.3125,-5.4375 z m 1.67187,0 q 0,3.29687 0.76563,4.39062 0.78125,1.07813 1.90625,1.07813 1.14062,0 1.90625,-1.09375 0.76562,-1.09375 0.76562,-4.375 0,-3.29688 -0.76562,-4.375 -0.76563,-1.07813 -1.92188,-1.07813 -1.125,0 -1.79687,0.95313 -0.85938,1.21875 -0.85938,4.5 z m 14.87574,6.59375 h -1.64063 v -10.45313 q -0.59375,0.5625 -1.5625,1.14063 -0.95312,0.5625 -1.71875,0.84375 v -1.59375 q 1.375,-0.64063 2.40625,-1.5625 1.03125,-0.92188 1.45313,-1.78125 h 1.0625 z m 8.99029,0 h -1.64062 v -10.45313 q -0.59375,0.5625 -1.5625,1.14063 -0.95313,0.5625 -1.71875,0.84375 v -1.59375 q 1.375,-0.64063 2.40625,-1.5625 1.03125,-0.92188 1.45312,-1.78125 h 1.0625 z m 8.9903,0 h -1.64063 v -10.45313 q -0.59375,0.5625 -1.5625,1.14063 -0.95312,0.5625 -1.71875,0.84375 v -1.59375 q 1.375,-0.64063 2.40625,-1.5625 1.03125,-0.92188 1.45313,-1.78125 h 1.0625 z m 4.20385,-6.59375 q 0,-2.35938 0.48438,-3.79688 0.48437,-1.45312 1.4375,-2.23437 0.96875,-0.78125 2.42187,-0.78125 1.07813,0 1.89063,0.4375 0.8125,0.42187 1.32812,1.25 0.53125,0.8125 0.82813,1.98437 0.3125,1.15625 0.3125,3.14063 0,2.35937 -0.48438,3.8125 -0.48437,1.4375 -1.45312,2.23437 -0.95313,0.78125 -2.42188,0.78125 -1.92187,0 -3.03125,-1.39062 -1.3125,-1.67188 -1.3125,-5.4375 z m 1.67188,0 q 0,3.29687 0.76562,4.39062 0.78125,1.07813 1.90625,1.07813 1.14063,0 1.90625,-1.09375 0.76563,-1.09375 0.76563,-4.375 0,-3.29688 -0.76563,-4.375 -0.76562,-1.07813 -1.92187,-1.07813 -1.125,0 -1.79688,0.95313 -0.85937,1.21875 -0.85937,4.5 z m 8.7038,0 q 0,-2.35938 0.48437,-3.79688 0.48438,-1.45312 1.4375,-2.23437 0.96875,-0.78125 2.42188,-0.78125 1.07812,0 1.89062,0.4375 0.8125,0.42187 1.32813,1.25 0.53125,0.8125 0.82812,1.98437 0.3125,1.15625 0.3125,3.14063 0,2.35937 -0.48437,3.8125 -0.48438,1.4375 -1.45313,2.23437 -0.95312,0.78125 -2.42187,0.78125 -1.92188,0 -3.03125,-1.39062 -1.3125,-1.67188 -1.3125,-5.4375 z m 1.67187,0 q 0,3.29687 0.76563,4.39062 0.78125,1.07813 1.90625,1.07813 1.14062,0 1.90625,-1.09375 0.76562,-1.09375 0.76562,-4.375 0,-3.29688 -0.76562,-4.375 -0.76563,-1.07813 -1.92188,-1.07813 -1.125,0 -1.79687,0.95313 -0.85938,1.21875 -0.85938,4.5 z"
         fill-rule="nonzero"
         id="path204"
         inkscape:connector-curvature="0" />
      <path
         fill="#000000"
         d="m 517.71045,348.43707 h -1.64062 v -10.45313 q -0.59375,0.5625 -1.5625,1.14063 -0.95313,0.5625 -1.71875,0.84375 v -1.59375 q 1.375,-0.64063 2.40625,-1.5625 1.03125,-0.92188 1.45312,-1.78125 h 1.0625 z m 8.99029,0 h -1.64062 v -10.45313 q -0.59375,0.5625 -1.5625,1.14063 -0.95313,0.5625 -1.71875,0.84375 v -1.59375 q 1.375,-0.64063 2.40625,-1.5625 1.03125,-0.92188 1.45312,-1.78125 h 1.0625 z m 4.20386,-6.59375 q 0,-2.35938 0.48438,-3.79688 0.48437,-1.45312 1.4375,-2.23437 0.96875,-0.78125 2.42187,-0.78125 1.07813,0 1.89063,0.4375 0.8125,0.42187 1.32812,1.25 0.53125,0.8125 0.82813,1.98437 0.3125,1.15625 0.3125,3.14063 0,2.35937 -0.48438,3.8125 -0.48437,1.4375 -1.45312,2.23437 -0.95313,0.78125 -2.42188,0.78125 -1.92187,0 -3.03125,-1.39062 -1.3125,-1.67188 -1.3125,-5.4375 z m 1.67188,0 q 0,3.29687 0.76562,4.39062 0.78125,1.07813 1.90625,1.07813 1.14063,0 1.90625,-1.09375 0.76563,-1.09375 0.76563,-4.375 0,-3.29688 -0.76563,-4.375 -0.76562,-1.07813 -1.92187,-1.07813 -1.125,0 -1.79688,0.95313 -0.85937,1.21875 -0.85937,4.5 z m 8.70385,0 q 0,-2.35938 0.48438,-3.79688 0.48437,-1.45312 1.4375,-2.23437 0.96875,-0.78125 2.42187,-0.78125 1.07813,0 1.89063,0.4375 0.8125,0.42187 1.32812,1.25 0.53125,0.8125 0.82813,1.98437 0.3125,1.15625 0.3125,3.14063 0,2.35937 -0.48438,3.8125 -0.48437,1.4375 -1.45312,2.23437 -0.95313,0.78125 -2.42188,0.78125 -1.92187,0 -3.03125,-1.39062 -1.3125,-1.67188 -1.3125,-5.4375 z m 1.67188,0 q 0,3.29687 0.76562,4.39062 0.78125,1.07813 1.90625,1.07813 1.14063,0 1.90625,-1.09375 0.76563,-1.09375 0.76563,-4.375 0,-3.29688 -0.76563,-4.375 -0.76562,-1.07813 -1.92187,-1.07813 -1.125,0 -1.79688,0.95313 -0.85937,1.21875 -0.85937,4.5 z m 9.61005,6.59375 v -1.875 h 1.875 v 1.875 z m 5.18334,0 v -1.875 h 1.875 v 1.875 z m 5.18329,0 v -1.875 h 1.875 v 1.875 z"
         fill-rule="nonzero"
         id="path206"
         inkscape:connector-curvature="0" />
    </g>
    <defs
       id="defs226">
      <filter
         id="shadowFilter-g409398e341_0_22.7"
         filterUnits="userSpaceOnUse">
        <feGaussianBlur
           in="SourceAlpha"
           stdDeviation="2.0"
           result="blur"
           id="feGaussianBlur213" />
        <feComponentTransfer
           in="blur"
           color-interpolation-filters="sRGB"
           id="feComponentTransfer223">
          <feFuncR
             type="linear"
             slope="0"
             intercept="0.0"
             id="feFuncR215" />
          <feFuncG
             type="linear"
             slope="0"
             intercept="0.0"
             id="feFuncG217" />
          <feFuncB
             type="linear"
             slope="0"
             intercept="0.0"
             id="feFuncB219" />
          <feFuncA
             type="linear"
             slope="0.5"
             intercept="0"
             id="feFuncA221" />
        </feComponentTransfer>
      </filter>
    </defs>
    <defs
       id="defs252">
      <filter
         id="shadowFilter-g409398e341_0_22.8"
         filterUnits="userSpaceOnUse">
        <feGaussianBlur
           in="SourceAlpha"
           stdDeviation="2.0"
           result="blur"
           id="feGaussianBlur239" />
        <feComponentTransfer
           in="blur"
           color-interpolation-filters="sRGB"
           id="feComponentTransfer249">
          <feFuncR
             type="linear"
             slope="0"
             intercept="0.0"
             id="feFuncR241" />
          <feFuncG
             type="linear"
             slope="0"
             intercept="0.0"
             id="feFuncG243" />
          <feFuncB
             type="linear"
             slope="0"
             intercept="0.0"
             id="feFuncB245" />
          <feFuncA
             type="linear"
             slope="0.5"
             intercept="0"
             id="feFuncA247" />
        </feComponentTransfer>
      </filter>
    </defs>
    <g
       id="g409398e341_0_22.8">
      <path
         fill="#eeeeee"
         d="m 580.3221,292.35095 h 55.18109 v -16.17322 l 32.3465,32.34647 -32.3465,32.34643 V 324.69742 H 580.3221 Z"
         fill-rule="evenodd"
         id="path254"
         inkscape:connector-curvature="0" />
      <path
         stroke="#595959"
         stroke-width="1.0"
         stroke-linejoin="round"
         stroke-linecap="butt"
         d="m 580.3221,292.35095 h 55.18109 v -16.17322 l 32.3465,32.34647 -32.3465,32.34643 V 324.69742 H 580.3221 Z"
         fill-rule="evenodd"
         id="path256"
         inkscape:connector-curvature="0" />
    </g>
    <defs
       id="defs276">
      <filter
         id="shadowFilter-g409398e341_0_22.9"
         filterUnits="userSpaceOnUse">
        <feGaussianBlur
           in="SourceAlpha"
           stdDeviation="2.0"
           result="blur"
           id="feGaussianBlur263" />
        <feComponentTransfer
           in="blur"
           color-interpolation-filters="sRGB"
           id="feComponentTransfer273">
          <feFuncR
             type="linear"
             slope="0"
             intercept="0.0"
             id="feFuncR265" />
          <feFuncG
             type="linear"
             slope="0"
             intercept="0.0"
             id="feFuncG267" />
          <feFuncB
             type="linear"
             slope="0"
             intercept="0.0"
             id="feFuncB269" />
          <feFuncA
             type="linear"
             slope="0.5"
             intercept="0"
             id="feFuncA271" />
        </feComponentTransfer>
      </filter>
    </defs>
    <g
       id="g409398e341_0_22.9"
       style="fill:#b3b3b3">
      <path
         fill="#595959"
         d="m 724.8753,246.94226 v 0 c 0,-8.85396 7.17755,-16.03149 16.03149,-16.03149 v 0 c 4.25184,0 8.32953,1.68902 11.336,4.69551 3.00647,3.00648 4.6955,7.08416 4.6955,11.33598 v 0 c 0,8.85394 -7.17749,16.03149 -16.0315,16.03149 v 0 c -8.85394,0 -16.03149,-7.17755 -16.03149,-16.03149 z"
         fill-rule="evenodd"
         id="path278"
         style="fill:#b3b3b3"
         inkscape:connector-curvature="0" />
      <path
         stroke="#595959"
         stroke-width="1.0"
         stroke-linejoin="round"
         stroke-linecap="butt"
         d="m 724.8753,246.94226 v 0 c 0,-8.85396 7.17755,-16.03149 16.03149,-16.03149 v 0 c 4.25184,0 8.32953,1.68902 11.336,4.69551 3.00647,3.00648 4.6955,7.08416 4.6955,11.33598 v 0 c 0,8.85394 -7.17749,16.03149 -16.0315,16.03149 v 0 c -8.85394,0 -16.03149,-7.17755 -16.03149,-16.03149 z"
         fill-rule="evenodd"
         id="path280"
         style="fill:#b3b3b3"
         inkscape:connector-curvature="0" />
    </g>
    <defs
       id="defs300">
      <filter
         id="shadowFilter-g409398e341_0_22.10"
         filterUnits="userSpaceOnUse">
        <feGaussianBlur
           in="SourceAlpha"
           stdDeviation="2.0"
           result="blur"
           id="feGaussianBlur287" />
        <feComponentTransfer
           in="blur"
           color-interpolation-filters="sRGB"
           id="feComponentTransfer297">
          <feFuncR
             type="linear"
             slope="0"
             intercept="0.0"
             id="feFuncR289" />
          <feFuncG
             type="linear"
             slope="0"
             intercept="0.0"
             id="feFuncG291" />
          <feFuncB
             type="linear"
             slope="0"
             intercept="0.0"
             id="feFuncB293" />
          <feFuncA
             type="linear"
             slope="0.5"
             intercept="0"
             id="feFuncA295" />
        </feComponentTransfer>
      </filter>
    </defs>
    <g
       id="g409398e341_0_22.10"
       style="fill:#b3b3b3">
      <path
         fill="#ffe599"
         d="m 714.7756,299.6483 v 0 c 0,-8.85394 7.17755,-16.03149 16.03149,-16.03149 v 0 c 4.25184,0 8.32953,1.68902 11.336,4.69552 3.00647,3.0065 4.6955,7.08417 4.6955,11.33597 v 0 c 0,8.85397 -7.17755,16.03149 -16.0315,16.03149 v 0 c -8.85394,0 -16.03149,-7.17752 -16.03149,-16.03149 z"
         fill-rule="evenodd"
         id="path302"
         style="fill:#b3b3b3"
         inkscape:connector-curvature="0" />
      <path
         stroke="#595959"
         stroke-width="1.0"
         stroke-linejoin="round"
         stroke-linecap="butt"
         d="m 714.7756,299.6483 v 0 c 0,-8.85394 7.17755,-16.03149 16.03149,-16.03149 v 0 c 4.25184,0 8.32953,1.68902 11.336,4.69552 3.00647,3.0065 4.6955,7.08417 4.6955,11.33597 v 0 c 0,8.85397 -7.17755,16.03149 -16.0315,16.03149 v 0 c -8.85394,0 -16.03149,-7.17752 -16.03149,-16.03149 z"
         fill-rule="evenodd"
         id="path304"
         style="fill:#b3b3b3"
         inkscape:connector-curvature="0" />
    </g>
    <defs
       id="defs324">
      <filter
         id="shadowFilter-g409398e341_0_22.11"
         filterUnits="userSpaceOnUse">
        <feGaussianBlur
           in="SourceAlpha"
           stdDeviation="2.0"
           result="blur"
           id="feGaussianBlur311" />
        <feComponentTransfer
           in="blur"
           color-interpolation-filters="sRGB"
           id="feComponentTransfer321">
          <feFuncR
             type="linear"
             slope="0"
             intercept="0.0"
             id="feFuncR313" />
          <feFuncG
             type="linear"
             slope="0"
             intercept="0.0"
             id="feFuncG315" />
          <feFuncB
             type="linear"
             slope="0"
             intercept="0.0"
             id="feFuncB317" />
          <feFuncA
             type="linear"
             slope="0.5"
             intercept="0"
             id="feFuncA319" />
        </feComponentTransfer>
      </filter>
    </defs>
    <g
       id="g409398e341_0_22.11"
       style="fill:#b3b3b3">
      <path
         fill="#ffe599"
         d="m 778.4344,235.59842 v 0 c 0,-8.85394 7.17755,-16.03149 16.03149,-16.03149 v 0 c 4.25183,0 8.32947,1.68902 11.336,4.69552 3.00647,3.00649 4.6955,7.08415 4.6955,11.33597 v 0 c 0,8.85396 -7.17755,16.03151 -16.0315,16.03151 v 0 c -8.85394,0 -16.03149,-7.17755 -16.03149,-16.03151 z"
         fill-rule="evenodd"
         id="path326"
         style="fill:#b3b3b3"
         inkscape:connector-curvature="0" />
      <path
         stroke="#595959"
         stroke-width="1.0"
         stroke-linejoin="round"
         stroke-linecap="butt"
         d="m 778.4344,235.59842 v 0 c 0,-8.85394 7.17755,-16.03149 16.03149,-16.03149 v 0 c 4.25183,0 8.32947,1.68902 11.336,4.69552 3.00647,3.00649 4.6955,7.08415 4.6955,11.33597 v 0 c 0,8.85396 -7.17755,16.03151 -16.0315,16.03151 v 0 c -8.85394,0 -16.03149,-7.17755 -16.03149,-16.03151 z"
         fill-rule="evenodd"
         id="path328"
         style="fill:#b3b3b3"
         inkscape:connector-curvature="0" />
    </g>
    <defs
       id="defs348">
      <filter
         id="shadowFilter-g409398e341_0_22.12"
         filterUnits="userSpaceOnUse">
        <feGaussianBlur
           in="SourceAlpha"
           stdDeviation="2.0"
           result="blur"
           id="feGaussianBlur335" />
        <feComponentTransfer
           in="blur"
           color-interpolation-filters="sRGB"
           id="feComponentTransfer345">
          <feFuncR
             type="linear"
             slope="0"
             intercept="0.0"
             id="feFuncR337" />
          <feFuncG
             type="linear"
             slope="0"
             intercept="0.0"
             id="feFuncG339" />
          <feFuncB
             type="linear"
             slope="0"
             intercept="0.0"
             id="feFuncB341" />
          <feFuncA
             type="linear"
             slope="0.5"
             intercept="0"
             id="feFuncA343" />
        </feComponentTransfer>
      </filter>
    </defs>
    <g
       id="g409398e341_0_22.12"
       style="fill:#b3b3b3">
      <path
         fill="#ffe599"
         d="m 778.4344,294.77692 v 0 c 0,-8.85397 7.17755,-16.03152 16.03149,-16.03152 v 0 c 4.25183,0 8.32947,1.68905 11.336,4.69552 3.00647,3.0065 4.6955,7.08417 4.6955,11.336 v 0 c 0,8.85394 -7.17755,16.03149 -16.0315,16.03149 v 0 c -8.85394,0 -16.03149,-7.17755 -16.03149,-16.03149 z"
         fill-rule="evenodd"
         id="path350"
         style="fill:#b3b3b3"
         inkscape:connector-curvature="0" />
      <path
         stroke="#595959"
         stroke-width="1.0"
         stroke-linejoin="round"
         stroke-linecap="butt"
         d="m 778.4344,294.77692 v 0 c 0,-8.85397 7.17755,-16.03152 16.03149,-16.03152 v 0 c 4.25183,0 8.32947,1.68905 11.336,4.69552 3.00647,3.0065 4.6955,7.08417 4.6955,11.336 v 0 c 0,8.85394 -7.17755,16.03149 -16.0315,16.03149 v 0 c -8.85394,0 -16.03149,-7.17755 -16.03149,-16.03149 z"
         fill-rule="evenodd"
         id="path352"
         style="fill:#b3b3b3"
         inkscape:connector-curvature="0" />
    </g>
    <defs
       id="defs372">
      <filter
         id="shadowFilter-g409398e341_0_22.13"
         filterUnits="userSpaceOnUse">
        <feGaussianBlur
           in="SourceAlpha"
           stdDeviation="2.0"
           result="blur"
           id="feGaussianBlur359" />
        <feComponentTransfer
           in="blur"
           color-interpolation-filters="sRGB"
           id="feComponentTransfer369">
          <feFuncR
             type="linear"
             slope="0"
             intercept="0.0"
             id="feFuncR361" />
          <feFuncG
             type="linear"
             slope="0"
             intercept="0.0"
             id="feFuncG363" />
          <feFuncB
             type="linear"
             slope="0"
             intercept="0.0"
             id="feFuncB365" />
          <feFuncA
             type="linear"
             slope="0.5"
             intercept="0"
             id="feFuncA367" />
        </feComponentTransfer>
      </filter>
    </defs>
    <g
       id="g409398e341_0_22.13"
       style="fill:#b3b3b3">
      <path
         fill="#ffe599"
         d="m 831.9934,240.59317 v 0 c 0,-8.85394 7.17755,-16.03149 16.03155,-16.03149 v 0 c 4.25177,0 8.32947,1.68902 11.33594,4.69552 3.00653,3.00649 4.69556,7.08415 4.69556,11.33597 v 0 c 0,8.85396 -7.17755,16.03149 -16.03149,16.03149 v 0 c -8.85401,0 -16.03156,-7.17753 -16.03156,-16.03149 z"
         fill-rule="evenodd"
         id="path374"
         style="fill:#b3b3b3"
         inkscape:connector-curvature="0" />
      <path
         stroke="#595959"
         stroke-width="1.0"
         stroke-linejoin="round"
         stroke-linecap="butt"
         d="m 831.9934,240.59317 v 0 c 0,-8.85394 7.17755,-16.03149 16.03155,-16.03149 v 0 c 4.25177,0 8.32947,1.68902 11.33594,4.69552 3.00653,3.00649 4.69556,7.08415 4.69556,11.33597 v 0 c 0,8.85396 -7.17755,16.03149 -16.03149,16.03149 v 0 c -8.85401,0 -16.03156,-7.17753 -16.03156,-16.03149 z"
         fill-rule="evenodd"
         id="path376"
         style="fill:#b3b3b3"
         inkscape:connector-curvature="0" />
    </g>
    <defs
       id="defs396">
      <filter
         id="shadowFilter-g409398e341_0_22.14"
         filterUnits="userSpaceOnUse">
        <feGaussianBlur
           in="SourceAlpha"
           stdDeviation="2.0"
           result="blur"
           id="feGaussianBlur383" />
        <feComponentTransfer
           in="blur"
           color-interpolation-filters="sRGB"
           id="feComponentTransfer393">
          <feFuncR
             type="linear"
             slope="0"
             intercept="0.0"
             id="feFuncR385" />
          <feFuncG
             type="linear"
             slope="0"
             intercept="0.0"
             id="feFuncG387" />
          <feFuncB
             type="linear"
             slope="0"
             intercept="0.0"
             id="feFuncB389" />
          <feFuncA
             type="linear"
             slope="0.5"
             intercept="0"
             id="feFuncA391" />
        </feComponentTransfer>
      </filter>
    </defs>
    <g
       id="g409398e341_0_22.14"
       style="fill:#b3b3b3">
      <path
         fill="#ffe599"
         d="m 831.9934,299.6483 v 0 c 0,-8.85394 7.17755,-16.03149 16.03155,-16.03149 v 0 c 4.25177,0 8.32947,1.68902 11.33594,4.69552 3.00653,3.0065 4.69556,7.08417 4.69556,11.33597 v 0 c 0,8.85397 -7.17755,16.03149 -16.03149,16.03149 v 0 c -8.85401,0 -16.03156,-7.17752 -16.03156,-16.03149 z"
         fill-rule="evenodd"
         id="path398"
         style="fill:#b3b3b3"
         inkscape:connector-curvature="0" />
      <path
         stroke="#595959"
         stroke-width="1.0"
         stroke-linejoin="round"
         stroke-linecap="butt"
         d="m 831.9934,299.6483 v 0 c 0,-8.85394 7.17755,-16.03149 16.03155,-16.03149 v 0 c 4.25177,0 8.32947,1.68902 11.33594,4.69552 3.00653,3.0065 4.69556,7.08417 4.69556,11.33597 v 0 c 0,8.85397 -7.17755,16.03149 -16.03149,16.03149 v 0 c -8.85401,0 -16.03156,-7.17752 -16.03156,-16.03149 z"
         fill-rule="evenodd"
         id="path400"
         style="fill:#b3b3b3"
         inkscape:connector-curvature="0" />
    </g>
    <defs
       id="defs420">
      <filter
         id="shadowFilter-g409398e341_0_22.15"
         filterUnits="userSpaceOnUse">
        <feGaussianBlur
           in="SourceAlpha"
           stdDeviation="2.0"
           result="blur"
           id="feGaussianBlur407" />
        <feComponentTransfer
           in="blur"
           color-interpolation-filters="sRGB"
           id="feComponentTransfer417">
          <feFuncR
             type="linear"
             slope="0"
             intercept="0.0"
             id="feFuncR409" />
          <feFuncG
             type="linear"
             slope="0"
             intercept="0.0"
             id="feFuncG411" />
          <feFuncB
             type="linear"
             slope="0"
             intercept="0.0"
             id="feFuncB413" />
          <feFuncA
             type="linear"
             slope="0.5"
             intercept="0"
             id="feFuncA415" />
        </feComponentTransfer>
      </filter>
    </defs>
    <g
       id="g409398e341_0_22.15"
       style="fill:#b3b3b3">
      <path
         fill="#ffe599"
         d="m 686.0696,214.30708 v 0 c 0,-8.85394 7.17749,-16.03149 16.03149,-16.03149 v 0 c 4.25177,0 8.32947,1.68902 11.33594,4.69551 3.00653,3.0065 4.69556,7.08416 4.69556,11.33598 v 0 c 0,8.85396 -7.17755,16.03149 -16.0315,16.03149 v 0 c -8.854,0 -16.03149,-7.17753 -16.03149,-16.03149 z"
         fill-rule="evenodd"
         id="path422"
         style="fill:#b3b3b3"
         inkscape:connector-curvature="0" />
      <path
         stroke="#595959"
         stroke-width="1.0"
         stroke-linejoin="round"
         stroke-linecap="butt"
         d="m 686.0696,214.30708 v 0 c 0,-8.85394 7.17749,-16.03149 16.03149,-16.03149 v 0 c 4.25177,0 8.32947,1.68902 11.33594,4.69551 3.00653,3.0065 4.69556,7.08416 4.69556,11.33598 v 0 c 0,8.85396 -7.17755,16.03149 -16.0315,16.03149 v 0 c -8.854,0 -16.03149,-7.17753 -16.03149,-16.03149 z"
         fill-rule="evenodd"
         id="path424"
         style="fill:#b3b3b3"
         inkscape:connector-curvature="0" />
    </g>
    <defs
       id="defs444">
      <filter
         id="shadowFilter-g409398e341_0_22.16"
         filterUnits="userSpaceOnUse">
        <feGaussianBlur
           in="SourceAlpha"
           stdDeviation="2.0"
           result="blur"
           id="feGaussianBlur431" />
        <feComponentTransfer
           in="blur"
           color-interpolation-filters="sRGB"
           id="feComponentTransfer441">
          <feFuncR
             type="linear"
             slope="0"
             intercept="0.0"
             id="feFuncR433" />
          <feFuncG
             type="linear"
             slope="0"
             intercept="0.0"
             id="feFuncG435" />
          <feFuncB
             type="linear"
             slope="0"
             intercept="0.0"
             id="feFuncB437" />
          <feFuncA
             type="linear"
             slope="0.5"
             intercept="0"
             id="feFuncA439" />
        </feComponentTransfer>
      </filter>
    </defs>
    <g
       id="g409398e341_0_22.16"
       style="fill:#cccccc">
      <path
         fill="#ffe599"
         d="m 674.5105,360.958 h 216.69293 v 32.06299 H 674.5105 Z"
         fill-rule="evenodd"
         id="path446"
         style="fill:#cccccc"
         inkscape:connector-curvature="0" />
      <path
         stroke="#595959"
         stroke-width="1.0"
         stroke-linejoin="round"
         stroke-linecap="butt"
         d="m 674.5105,360.958 h 216.69293 v 32.06299 H 674.5105 Z"
         fill-rule="evenodd"
         id="path448"
         style="fill:#cccccc"
         inkscape:connector-curvature="0" />
      <path
         fill="#000000"
         d="m 769.15137,380.3626 1.60938,0.21875 q -0.26563,1.65625 -1.35938,2.60937 -1.07812,0.9375 -2.67187,0.9375 -1.98438,0 -3.1875,-1.29687 -1.20313,-1.29688 -1.20313,-3.71875 0,-1.57813 0.51563,-2.75 0.51562,-1.17188 1.57812,-1.75 1.0625,-0.59375 2.3125,-0.59375 1.57813,0 2.57813,0.79687 1,0.79688 1.28125,2.26563 l -1.59375,0.23437 q -0.23438,-0.96875 -0.8125,-1.45312 -0.57813,-0.5 -1.39063,-0.5 -1.23437,0 -2.01562,0.89062 -0.78125,0.89063 -0.78125,2.8125 0,1.95313 0.75,2.84375 0.75,0.875 1.95312,0.875 0.96875,0 1.60938,-0.59375 0.65625,-0.59375 0.82812,-1.82812 z m 2.96875,3.54687 V 370.5501 h 1.64063 v 13.35937 z m 10.50421,-1.1875 q -0.92187,0.76563 -1.76562,1.09375 -0.82813,0.3125 -1.79688,0.3125 -1.59375,0 -2.45312,-0.78125 -0.85938,-0.78125 -0.85938,-1.98437 0,-0.71875 0.32813,-1.29688 0.32812,-0.59375 0.84375,-0.9375 0.53125,-0.35937 1.1875,-0.54687 0.46875,-0.125 1.45312,-0.25 1.98438,-0.23438 2.92188,-0.5625 0.0156,-0.34375 0.0156,-0.42188 0,-1 -0.46875,-1.42187 -0.625,-0.54688 -1.875,-0.54688 -1.15625,0 -1.70312,0.40625 -0.54688,0.40625 -0.8125,1.42188 l -1.60938,-0.21875 q 0.21875,-1.01563 0.71875,-1.64063 0.5,-0.64062 1.45313,-0.98437 0.95312,-0.34375 2.1875,-0.34375 1.25,0 2.01562,0.29687 0.78125,0.28125 1.14063,0.73438 0.375,0.4375 0.51562,1.10937 0.0781,0.42188 0.0781,1.51563 v 2.1875 q 0,2.28125 0.10937,2.89062 0.10938,0.59375 0.40625,1.15625 h -1.70312 q -0.26563,-0.51562 -0.32813,-1.1875 z m -0.14062,-3.67187 q -0.89063,0.375 -2.67188,0.625 -1.01562,0.14062 -1.4375,0.32812 -0.42187,0.1875 -0.65625,0.53125 -0.21875,0.34375 -0.21875,0.78125 0,0.65625 0.5,1.09375 0.5,0.4375 1.45313,0.4375 0.9375,0 1.67187,-0.40625 0.75,-0.42187 1.09375,-1.14062 0.26563,-0.5625 0.26563,-1.64063 z m 3.5476,1.96875 1.625,-0.25 q 0.125,0.96875 0.75,1.5 0.625,0.51562 1.75,0.51562 1.125,0 1.67188,-0.45312 0.54687,-0.46875 0.54687,-1.09375 0,-0.54688 -0.48437,-0.875 -0.32813,-0.21875 -1.67188,-0.54688 -1.8125,-0.46875 -2.51562,-0.79687 -0.6875,-0.32813 -1.04688,-0.90625 -0.35937,-0.59375 -0.35937,-1.3125 0,-0.64063 0.29687,-1.1875 0.29688,-0.5625 0.8125,-0.92188 0.375,-0.28125 1.03125,-0.46875 0.67188,-0.20312 1.42188,-0.20312 1.14062,0 2,0.32812 0.85937,0.32813 1.26562,0.89063 0.42188,0.5625 0.57813,1.5 l -1.60938,0.21875 q -0.10937,-0.75 -0.64062,-1.17188 -0.51563,-0.42187 -1.46875,-0.42187 -1.14063,0 -1.625,0.375 -0.46875,0.375 -0.46875,0.875 0,0.3125 0.1875,0.57812 0.20312,0.26563 0.64062,0.4375 0.23438,0.0937 1.4375,0.42188 1.75,0.45312 2.4375,0.75 0.6875,0.29687 1.07813,0.85937 0.39062,0.5625 0.39062,1.40625 0,0.82813 -0.48437,1.54688 -0.46875,0.71875 -1.375,1.125 -0.90625,0.39062 -2.04688,0.39062 -1.875,0 -2.875,-0.78125 -0.98437,-0.78125 -1.25,-2.32812 z m 9.32813,0 1.625,-0.25 q 0.125,0.96875 0.75,1.5 0.625,0.51562 1.75,0.51562 1.125,0 1.67187,-0.45312 0.54688,-0.46875 0.54688,-1.09375 0,-0.54688 -0.48438,-0.875 -0.32812,-0.21875 -1.67187,-0.54688 -1.8125,-0.46875 -2.51563,-0.79687 -0.6875,-0.32813 -1.04687,-0.90625 -0.35938,-0.59375 -0.35938,-1.3125 0,-0.64063 0.29688,-1.1875 0.29687,-0.5625 0.8125,-0.92188 0.375,-0.28125 1.03125,-0.46875 0.67187,-0.20312 1.42187,-0.20312 1.14063,0 2,0.32812 0.85938,0.32813 1.26563,0.89063 0.42187,0.5625 0.57812,1.5 l -1.60937,0.21875 q -0.10938,-0.75 -0.64063,-1.17188 -0.51562,-0.42187 -1.46875,-0.42187 -1.14062,0 -1.625,0.375 -0.46875,0.375 -0.46875,0.875 0,0.3125 0.1875,0.57812 0.20313,0.26563 0.64063,0.4375 0.23437,0.0937 1.4375,0.42188 1.75,0.45312 2.4375,0.75 0.6875,0.29687 1.07812,0.85937 0.39063,0.5625 0.39063,1.40625 0,0.82813 -0.48438,1.54688 -0.46875,0.71875 -1.375,1.125 -0.90625,0.39062 -2.04687,0.39062 -1.875,0 -2.875,-0.78125 -0.98438,-0.78125 -1.25,-2.32812 z"
         fill-rule="nonzero"
         id="path450"
         style="fill:#cccccc"
         inkscape:connector-curvature="0" />
    </g>
    <defs
       id="defs470">
      <filter
         id="shadowFilter-g409398e341_0_22.17"
         filterUnits="userSpaceOnUse">
        <feGaussianBlur
           in="SourceAlpha"
           stdDeviation="2.0"
           result="blur"
           id="feGaussianBlur457" />
        <feComponentTransfer
           in="blur"
           color-interpolation-filters="sRGB"
           id="feComponentTransfer467">
          <feFuncR
             type="linear"
             slope="0"
             intercept="0.0"
             id="feFuncR459" />
          <feFuncG
             type="linear"
             slope="0"
             intercept="0.0"
             id="feFuncG461" />
          <feFuncB
             type="linear"
             slope="0"
             intercept="0.0"
             id="feFuncB463" />
          <feFuncA
             type="linear"
             slope="0.5"
             intercept="0"
             id="feFuncA465" />
        </feComponentTransfer>
      </filter>
    </defs>
    <g
       id="g409398e341_0_22.17"
       style="fill:#cccccc">
      <path
         fill="#ffe599"
         d="m 674.5105,393.021 h 216.69293 v 32.06299 H 674.5105 Z"
         fill-rule="evenodd"
         id="path472"
         style="fill:#cccccc"
         inkscape:connector-curvature="0" />
      <path
         stroke="#595959"
         stroke-width="1.0"
         stroke-linejoin="round"
         stroke-linecap="butt"
         d="m 674.5105,393.021 h 216.69293 v 32.06299 H 674.5105 Z"
         fill-rule="evenodd"
         id="path474"
         style="fill:#cccccc"
         inkscape:connector-curvature="0" />
      <path
         fill="#000000"
         d="m 769.15137,412.42563 1.60938,0.21875 q -0.26563,1.65625 -1.35938,2.60937 -1.07812,0.9375 -2.67187,0.9375 -1.98438,0 -3.1875,-1.29687 -1.20313,-1.29688 -1.20313,-3.71875 0,-1.57813 0.51563,-2.75 0.51562,-1.17188 1.57812,-1.75 1.0625,-0.59375 2.3125,-0.59375 1.57813,0 2.57813,0.79687 1,0.79688 1.28125,2.26563 l -1.59375,0.23437 q -0.23438,-0.96875 -0.8125,-1.45312 -0.57813,-0.5 -1.39063,-0.5 -1.23437,0 -2.01562,0.89062 -0.78125,0.89063 -0.78125,2.8125 0,1.95313 0.75,2.84375 0.75,0.875 1.95312,0.875 0.96875,0 1.60938,-0.59375 0.65625,-0.59375 0.82812,-1.82812 z m 2.96875,3.54687 v -13.35937 h 1.64063 v 13.35937 z m 10.50421,-1.1875 q -0.92187,0.76563 -1.76562,1.09375 -0.82813,0.3125 -1.79688,0.3125 -1.59375,0 -2.45312,-0.78125 -0.85938,-0.78125 -0.85938,-1.98437 0,-0.71875 0.32813,-1.29688 0.32812,-0.59375 0.84375,-0.9375 0.53125,-0.35937 1.1875,-0.54687 0.46875,-0.125 1.45312,-0.25 1.98438,-0.23438 2.92188,-0.5625 0.0156,-0.34375 0.0156,-0.42188 0,-1 -0.46875,-1.42187 -0.625,-0.54688 -1.875,-0.54688 -1.15625,0 -1.70312,0.40625 -0.54688,0.40625 -0.8125,1.42188 l -1.60938,-0.21875 q 0.21875,-1.01563 0.71875,-1.64063 0.5,-0.64062 1.45313,-0.98437 0.95312,-0.34375 2.1875,-0.34375 1.25,0 2.01562,0.29687 0.78125,0.28125 1.14063,0.73438 0.375,0.4375 0.51562,1.10937 0.0781,0.42188 0.0781,1.51563 v 2.1875 q 0,2.28125 0.10937,2.89062 0.10938,0.59375 0.40625,1.15625 h -1.70312 q -0.26563,-0.51562 -0.32813,-1.1875 z m -0.14062,-3.67187 q -0.89063,0.375 -2.67188,0.625 -1.01562,0.14062 -1.4375,0.32812 -0.42187,0.1875 -0.65625,0.53125 -0.21875,0.34375 -0.21875,0.78125 0,0.65625 0.5,1.09375 0.5,0.4375 1.45313,0.4375 0.9375,0 1.67187,-0.40625 0.75,-0.42187 1.09375,-1.14062 0.26563,-0.5625 0.26563,-1.64063 z m 3.5476,1.96875 1.625,-0.25 q 0.125,0.96875 0.75,1.5 0.625,0.51562 1.75,0.51562 1.125,0 1.67188,-0.45312 0.54687,-0.46875 0.54687,-1.09375 0,-0.54688 -0.48437,-0.875 -0.32813,-0.21875 -1.67188,-0.54688 -1.8125,-0.46875 -2.51562,-0.79687 -0.6875,-0.32813 -1.04688,-0.90625 -0.35937,-0.59375 -0.35937,-1.3125 0,-0.64063 0.29687,-1.1875 0.29688,-0.5625 0.8125,-0.92188 0.375,-0.28125 1.03125,-0.46875 0.67188,-0.20312 1.42188,-0.20312 1.14062,0 2,0.32812 0.85937,0.32813 1.26562,0.89063 0.42188,0.5625 0.57813,1.5 l -1.60938,0.21875 q -0.10937,-0.75 -0.64062,-1.17188 -0.51563,-0.42187 -1.46875,-0.42187 -1.14063,0 -1.625,0.375 -0.46875,0.375 -0.46875,0.875 0,0.3125 0.1875,0.57812 0.20312,0.26563 0.64062,0.4375 0.23438,0.0937 1.4375,0.42188 1.75,0.45312 2.4375,0.75 0.6875,0.29687 1.07813,0.85937 0.39062,0.5625 0.39062,1.40625 0,0.82813 -0.48437,1.54688 -0.46875,0.71875 -1.375,1.125 -0.90625,0.39062 -2.04688,0.39062 -1.875,0 -2.875,-0.78125 -0.98437,-0.78125 -1.25,-2.32812 z m 9.32813,0 1.625,-0.25 q 0.125,0.96875 0.75,1.5 0.625,0.51562 1.75,0.51562 1.125,0 1.67187,-0.45312 0.54688,-0.46875 0.54688,-1.09375 0,-0.54688 -0.48438,-0.875 -0.32812,-0.21875 -1.67187,-0.54688 -1.8125,-0.46875 -2.51563,-0.79687 -0.6875,-0.32813 -1.04687,-0.90625 -0.35938,-0.59375 -0.35938,-1.3125 0,-0.64063 0.29688,-1.1875 0.29687,-0.5625 0.8125,-0.92188 0.375,-0.28125 1.03125,-0.46875 0.67187,-0.20312 1.42187,-0.20312 1.14063,0 2,0.32812 0.85938,0.32813 1.26563,0.89063 0.42187,0.5625 0.57812,1.5 l -1.60937,0.21875 q -0.10938,-0.75 -0.64063,-1.17188 -0.51562,-0.42187 -1.46875,-0.42187 -1.14062,0 -1.625,0.375 -0.46875,0.375 -0.46875,0.875 0,0.3125 0.1875,0.57812 0.20313,0.26563 0.64063,0.4375 0.23437,0.0937 1.4375,0.42188 1.75,0.45312 2.4375,0.75 0.6875,0.29687 1.07812,0.85937 0.39063,0.5625 0.39063,1.40625 0,0.82813 -0.48438,1.54688 -0.46875,0.71875 -1.375,1.125 -0.90625,0.39062 -2.04687,0.39062 -1.875,0 -2.875,-0.78125 -0.98438,-0.78125 -1.25,-2.32812 z"
         fill-rule="nonzero"
         id="path476"
         style="fill:#cccccc"
         inkscape:connector-curvature="0" />
    </g>
    <defs
       id="defs496">
      <filter
         id="shadowFilter-g409398e341_0_22.18"
         filterUnits="userSpaceOnUse">
        <feGaussianBlur
           in="SourceAlpha"
           stdDeviation="2.0"
           result="blur"
           id="feGaussianBlur483" />
        <feComponentTransfer
           in="blur"
           color-interpolation-filters="sRGB"
           id="feComponentTransfer493">
          <feFuncR
             type="linear"
             slope="0"
             intercept="0.0"
             id="feFuncR485" />
          <feFuncG
             type="linear"
             slope="0"
             intercept="0.0"
             id="feFuncG487" />
          <feFuncB
             type="linear"
             slope="0"
             intercept="0.0"
             id="feFuncB489" />
          <feFuncA
             type="linear"
             slope="0.5"
             intercept="0"
             id="feFuncA491" />
        </feComponentTransfer>
      </filter>
    </defs>
    <g
       id="g409398e341_0_22.18">
      <path
         fill="#b6d7a8"
         d="m 218.03291,325.701 v 0 c 0,-5.53455 4.48665,-10.02121 10.02121,-10.02121 h 176.27257 c 2.65778,0 5.2067,1.05582 7.08606,2.93515 1.87933,1.87933 2.93512,4.42828 2.93512,7.08606 v 40.08359 c 0,5.53454 -4.48663,10.02121 -10.02118,10.02121 H 228.05412 c -5.53456,0 -10.02121,-4.48667 -10.02121,-10.02121 z"
         fill-rule="evenodd"
         id="path498"
         style="fill:#cccccc"
         inkscape:connector-curvature="0" />
      <path
         stroke="#595959"
         stroke-width="1.0"
         stroke-linejoin="round"
         stroke-linecap="butt"
         d="m 218.03291,325.701 v 0 c 0,-5.53455 4.48665,-10.02121 10.02121,-10.02121 h 176.27257 c 2.65778,0 5.2067,1.05582 7.08606,2.93515 1.87933,1.87933 2.93512,4.42828 2.93512,7.08606 v 40.08359 c 0,5.53454 -4.48663,10.02121 -10.02118,10.02121 H 228.05412 c -5.53456,0 -10.02121,-4.48667 -10.02121,-10.02121 z"
         fill-rule="evenodd"
         id="path500"
         inkscape:connector-curvature="0" />
      <path
         fill="#000000"
         d="m 263.4852,352.66278 v -11.78125 h -4.40625 v -1.57813 h 10.57813 v 1.57813 h -4.40625 v 11.78125 z m 6.67853,3.71875 -0.1875,-1.53125 q 0.54687,0.14062 0.9375,0.14062 0.54687,0 0.875,-0.1875 0.32812,-0.17187 0.54687,-0.5 0.15625,-0.25 0.5,-1.21875 0.0469,-0.14062 0.14063,-0.40625 l -3.67188,-9.6875 h 1.76563 l 2.01562,5.59375 q 0.39063,1.07813 0.70313,2.25 0.28125,-1.125 0.67187,-2.20312 l 2.07813,-5.64063 h 1.64062 l -3.6875,9.82813 q -0.59375,1.60937 -0.92187,2.20312 -0.4375,0.8125 -1,1.1875 -0.5625,0.375 -1.34375,0.375 -0.48438,0 -1.0625,-0.20312 z m 9.40625,-0.0156 v -13.375 h 1.48437 v 1.25 q 0.53125,-0.73437 1.1875,-1.09375 0.67188,-0.375 1.625,-0.375 1.23438,0 2.17188,0.64063 0.95312,0.625 1.4375,1.79687 0.48437,1.15625 0.48437,2.54688 0,1.48437 -0.53125,2.67187 -0.53125,1.1875 -1.54687,1.82813 -1.01563,0.625 -2.14063,0.625 -0.8125,0 -1.46875,-0.34375 -0.65625,-0.34375 -1.0625,-0.875 v 4.70312 z m 1.48437,-8.48437 q 0,1.85937 0.75,2.76562 0.76563,0.89063 1.82813,0.89063 1.09375,0 1.875,-0.92188 0.78125,-0.9375 0.78125,-2.875 0,-1.84375 -0.76563,-2.76562 -0.75,-0.92188 -1.8125,-0.92188 -1.04687,0 -1.85937,0.98438 -0.79688,0.96875 -0.79688,2.84375 z m 15.51633,1.67187 1.6875,0.20313 q -0.40625,1.48437 -1.48438,2.3125 -1.07812,0.8125 -2.76562,0.8125 -2.125,0 -3.375,-1.29688 -1.23438,-1.3125 -1.23438,-3.67187 0,-2.45313 1.25,-3.79688 1.26563,-1.34375 3.26563,-1.34375 1.9375,0 3.15625,1.32813 1.23437,1.3125 1.23437,3.70312 0,0.15625 0,0.4375 h -7.21875 q 0.0937,1.59375 0.90625,2.45313 0.8125,0.84375 2.01563,0.84375 0.90625,0 1.54687,-0.46875 0.64063,-0.48438 1.01563,-1.51563 z m -5.39063,-2.65625 h 5.40625 q -0.10937,-1.21875 -0.625,-1.82812 -0.78125,-0.95313 -2.03125,-0.95313 -1.125,0 -1.90625,0.76563 -0.76562,0.75 -0.84375,2.01562 z m 24.05903,1.07813 1.76562,0.45312 q -0.5625,2.17188 -2,3.32813 -1.4375,1.14062 -3.53125,1.14062 -2.15625,0 -3.51562,-0.875 -1.34375,-0.89062 -2.0625,-2.54687 -0.70313,-1.67188 -0.70313,-3.59375 0,-2.07813 0.79688,-3.625 0.79687,-1.5625 2.26562,-2.35938 1.48438,-0.8125 3.25,-0.8125 2,0 3.35938,1.01563 1.375,1.01562 1.90625,2.875 l -1.73438,0.40625 q -0.46875,-1.45313 -1.35937,-2.10938 -0.875,-0.67187 -2.20313,-0.67187 -1.54687,0 -2.57812,0.73437 -1.03125,0.73438 -1.45313,1.98438 -0.42187,1.23437 -0.42187,2.5625 0,1.70312 0.5,2.96875 0.5,1.26562 1.54687,1.90625 1.04688,0.625 2.26563,0.625 1.48437,0 2.51562,-0.85938 1.03125,-0.85937 1.39063,-2.54687 z m 3.73858,4.6875 V 339.3034 h 1.64063 v 4.79688 q 1.14062,-1.32813 2.89062,-1.32813 1.07813,0 1.85938,0.42188 0.79687,0.42187 1.14062,1.17187 0.34375,0.75 0.34375,2.17188 v 6.125 h -1.64062 v -6.125 q 0,-1.23438 -0.53125,-1.79688 -0.53125,-0.5625 -1.51563,-0.5625 -0.71875,0 -1.35937,0.39063 -0.64063,0.375 -0.92188,1.01562 -0.26562,0.64063 -0.26562,1.78125 v 5.29688 z m 17.0007,-3.10938 1.6875,0.20313 q -0.40625,1.48437 -1.48437,2.3125 -1.07813,0.8125 -2.76563,0.8125 -2.125,0 -3.375,-1.29688 -1.23437,-1.3125 -1.23437,-3.67187 0,-2.45313 1.25,-3.79688 1.26562,-1.34375 3.26562,-1.34375 1.9375,0 3.15625,1.32813 1.23438,1.3125 1.23438,3.70312 0,0.15625 0,0.4375 h -7.21875 q 0.0937,1.59375 0.90625,2.45313 0.8125,0.84375 2.01562,0.84375 0.90625,0 1.54688,-0.46875 0.64062,-0.48438 1.01562,-1.51563 z m -5.39062,-2.65625 h 5.40625 q -0.10938,-1.21875 -0.625,-1.82812 -0.78125,-0.95313 -2.03125,-0.95313 -1.125,0 -1.90625,0.76563 -0.76563,0.75 -0.84375,2.01562 z m 15.45386,2.21875 1.60937,0.21875 q -0.26562,1.65625 -1.35937,2.60938 -1.07813,0.9375 -2.67188,0.9375 -1.98437,0 -3.1875,-1.29688 -1.20312,-1.29687 -1.20312,-3.71875 0,-1.57812 0.51562,-2.75 0.51563,-1.17187 1.57813,-1.75 1.0625,-0.59375 2.3125,-0.59375 1.57812,0 2.57812,0.79688 1,0.79687 1.28125,2.26562 l -1.59375,0.23438 q -0.23437,-0.96875 -0.8125,-1.45313 -0.57812,-0.5 -1.39062,-0.5 -1.23438,0 -2.01563,0.89063 -0.78125,0.89062 -0.78125,2.8125 0,1.95312 0.75,2.84375 0.75,0.875 1.95313,0.875 0.96875,0 1.60937,-0.59375 0.65625,-0.59375 0.82813,-1.82813 z m 3.01562,3.54688 V 339.3034 h 1.64063 v 7.625 l 3.89062,-3.9375 h 2.10938 l -3.6875,3.59375 4.0625,6.07813 h -2.01563 l -3.20312,-4.95313 -1.15625,1.125 v 3.82813 z m 15.95313,-3.10938 1.6875,0.20313 q -0.40625,1.48437 -1.48438,2.3125 -1.07812,0.8125 -2.76562,0.8125 -2.125,0 -3.375,-1.29688 -1.23438,-1.3125 -1.23438,-3.67187 0,-2.45313 1.25,-3.79688 1.26563,-1.34375 3.26563,-1.34375 1.9375,0 3.15625,1.32813 1.23437,1.3125 1.23437,3.70312 0,0.15625 0,0.4375 h -7.21875 q 0.0937,1.59375 0.90625,2.45313 0.8125,0.84375 2.01563,0.84375 0.90625,0 1.54687,-0.46875 0.64063,-0.48438 1.01563,-1.51563 z m -5.39063,-2.65625 h 5.40625 q -0.10937,-1.21875 -0.625,-1.82812 -0.78125,-0.95313 -2.03125,-0.95313 -1.125,0 -1.90625,0.76563 -0.76562,0.75 -0.84375,2.01562 z m 9.1257,5.76563 v -9.67188 h 1.46875 v 1.46875 q 0.5625,-1.03125 1.03125,-1.35937 0.48438,-0.32813 1.0625,-0.32813 0.82813,0 1.6875,0.53125 l -0.5625,1.51563 q -0.60937,-0.35938 -1.20312,-0.35938 -0.54688,0 -0.96875,0.32813 -0.42188,0.32812 -0.60938,0.89062 -0.28125,0.875 -0.28125,1.92188 v 5.0625 z"
         fill-rule="nonzero"
         id="path502"
         inkscape:connector-curvature="0" />
    </g>
    <defs
       id="defs522">
      <filter
         id="shadowFilter-g409398e341_0_22.19"
         filterUnits="userSpaceOnUse">
        <feGaussianBlur
           in="SourceAlpha"
           stdDeviation="2.0"
           result="blur"
           id="feGaussianBlur509" />
        <feComponentTransfer
           in="blur"
           color-interpolation-filters="sRGB"
           id="feComponentTransfer519">
          <feFuncR
             type="linear"
             slope="0"
             intercept="0.0"
             id="feFuncR511" />
          <feFuncG
             type="linear"
             slope="0"
             intercept="0.0"
             id="feFuncG513" />
          <feFuncB
             type="linear"
             slope="0"
             intercept="0.0"
             id="feFuncB515" />
          <feFuncA
             type="linear"
             slope="0.5"
             intercept="0"
             id="feFuncA517" />
        </feComponentTransfer>
      </filter>
    </defs>
    <g
       id="g409398e341_0_22.19"
       style="fill:#cccccc">
      <path
         fill="#b6d7a8"
         d="m 218.03291,286.91345 v 0 c 0,-2.17148 1.76035,-3.93182 3.93184,-3.93182 h 188.4513 c 1.04278,0 2.04288,0.41424 2.78021,1.15161 0.73737,0.73736 1.15161,1.73742 1.15161,2.78021 v 15.7269 c 0,2.17148 -1.76034,3.93182 -3.93182,3.93182 h -188.4513 c -2.17149,0 -3.93184,-1.76034 -3.93184,-3.93182 z"
         fill-rule="evenodd"
         id="path524"
         style="fill:#cccccc"
         inkscape:connector-curvature="0" />
      <path
         stroke="#595959"
         stroke-width="1.0"
         stroke-linejoin="round"
         stroke-linecap="butt"
         d="m 218.03291,286.91345 v 0 c 0,-2.17148 1.76035,-3.93182 3.93184,-3.93182 h 188.4513 c 1.04278,0 2.04288,0.41424 2.78021,1.15161 0.73737,0.73736 1.15161,1.73742 1.15161,2.78021 v 15.7269 c 0,2.17148 -1.76034,3.93182 -3.93182,3.93182 h -188.4513 c -2.17149,0 -3.93184,-1.76034 -3.93184,-3.93182 z"
         fill-rule="evenodd"
         id="path526"
         style="fill:#cccccc"
         inkscape:connector-curvature="0" />
    </g>
    <defs
       id="defs546">
      <filter
         id="shadowFilter-g409398e341_0_22.20"
         filterUnits="userSpaceOnUse">
        <feGaussianBlur
           in="SourceAlpha"
           stdDeviation="2.0"
           result="blur"
           id="feGaussianBlur533" />
        <feComponentTransfer
           in="blur"
           color-interpolation-filters="sRGB"
           id="feComponentTransfer543">
          <feFuncR
             type="linear"
             slope="0"
             intercept="0.0"
             id="feFuncR535" />
          <feFuncG
             type="linear"
             slope="0"
             intercept="0.0"
             id="feFuncG537" />
          <feFuncB
             type="linear"
             slope="0"
             intercept="0.0"
             id="feFuncB539" />
          <feFuncA
             type="linear"
             slope="0.5"
             intercept="0"
             id="feFuncA541" />
        </feComponentTransfer>
      </filter>
    </defs>
    <g
       id="g409398e341_0_22.20"
       style="fill:#cccccc">
      <path
         fill="#b6d7a8"
         d="m 218.03291,388.8452 v 0 c 0,-2.17148 1.76035,-3.93182 3.93184,-3.93182 h 188.4513 c 1.04278,0 2.04288,0.41424 2.78021,1.15161 0.73737,0.73736 1.15161,1.73742 1.15161,2.78021 v 15.7269 c 0,2.17148 -1.76034,3.93182 -3.93182,3.93182 h -188.4513 c -2.17149,0 -3.93184,-1.76034 -3.93184,-3.93182 z"
         fill-rule="evenodd"
         id="path548"
         style="fill:#cccccc"
         inkscape:connector-curvature="0" />
      <path
         stroke="#595959"
         stroke-width="1.0"
         stroke-linejoin="round"
         stroke-linecap="butt"
         d="m 218.03291,388.8452 v 0 c 0,-2.17148 1.76035,-3.93182 3.93184,-3.93182 h 188.4513 c 1.04278,0 2.04288,0.41424 2.78021,1.15161 0.73737,0.73736 1.15161,1.73742 1.15161,2.78021 v 15.7269 c 0,2.17148 -1.76034,3.93182 -3.93182,3.93182 h -188.4513 c -2.17149,0 -3.93184,-1.76034 -3.93184,-3.93182 z"
         fill-rule="evenodd"
         id="path550"
         style="fill:#cccccc"
         inkscape:connector-curvature="0" />
    </g>
    <defs
       id="defs570">
      <filter
         id="shadowFilter-g409398e341_0_22.21"
         filterUnits="userSpaceOnUse">
        <feGaussianBlur
           in="SourceAlpha"
           stdDeviation="2.0"
           result="blur"
           id="feGaussianBlur557" />
        <feComponentTransfer
           in="blur"
           color-interpolation-filters="sRGB"
           id="feComponentTransfer567">
          <feFuncR
             type="linear"
             slope="0"
             intercept="0.0"
             id="feFuncR559" />
          <feFuncG
             type="linear"
             slope="0"
             intercept="0.0"
             id="feFuncG561" />
          <feFuncB
             type="linear"
             slope="0"
             intercept="0.0"
             id="feFuncB563" />
          <feFuncA
             type="linear"
             slope="0.5"
             intercept="0"
             id="feFuncA565" />
        </feComponentTransfer>
      </filter>
    </defs>
    <g
       id="g409398e341_0_22.21"
       style="fill:#cccccc">
      <path
         fill="#b6d7a8"
         d="m 218.03291,254.2153 v 0 c 0,-2.17149 1.76035,-3.93184 3.93184,-3.93184 h 188.4513 c 1.04278,0 2.04288,0.41425 2.78021,1.15161 0.73737,0.73737 1.15161,1.73744 1.15161,2.78023 v 15.72687 c 0,2.17151 -1.76034,3.93185 -3.93182,3.93185 h -188.4513 c -2.17149,0 -3.93184,-1.76034 -3.93184,-3.93185 z"
         fill-rule="evenodd"
         id="path572"
         style="fill:#cccccc"
         inkscape:connector-curvature="0" />
      <path
         stroke="#595959"
         stroke-width="1.0"
         stroke-linejoin="round"
         stroke-linecap="butt"
         d="m 218.03291,254.2153 v 0 c 0,-2.17149 1.76035,-3.93184 3.93184,-3.93184 h 188.4513 c 1.04278,0 2.04288,0.41425 2.78021,1.15161 0.73737,0.73737 1.15161,1.73744 1.15161,2.78023 v 15.72687 c 0,2.17151 -1.76034,3.93185 -3.93182,3.93185 h -188.4513 c -2.17149,0 -3.93184,-1.76034 -3.93184,-3.93185 z"
         fill-rule="evenodd"
         id="path574"
         style="fill:#cccccc"
         inkscape:connector-curvature="0" />
    </g>
    <defs
       id="defs594">
      <filter
         id="shadowFilter-g409398e341_0_22.22"
         filterUnits="userSpaceOnUse">
        <feGaussianBlur
           in="SourceAlpha"
           stdDeviation="2.0"
           result="blur"
           id="feGaussianBlur581" />
        <feComponentTransfer
           in="blur"
           color-interpolation-filters="sRGB"
           id="feComponentTransfer591">
          <feFuncR
             type="linear"
             slope="0"
             intercept="0.0"
             id="feFuncR583" />
          <feFuncG
             type="linear"
             slope="0"
             intercept="0.0"
             id="feFuncG585" />
          <feFuncB
             type="linear"
             slope="0"
             intercept="0.0"
             id="feFuncB587" />
          <feFuncA
             type="linear"
             slope="0.5"
             intercept="0"
             id="feFuncA589" />
        </feComponentTransfer>
      </filter>
    </defs>
    <g
       id="g409398e341_0_22.22"
       style="fill:#cccccc">
      <path
         fill="#b6d7a8"
         d="m 218.03291,221.51714 v 0 c 0,-2.17149 1.76035,-3.93184 3.93184,-3.93184 h 188.4513 c 1.04278,0 2.04288,0.41425 2.78021,1.15161 0.73737,0.73737 1.15161,1.73744 1.15161,2.78023 v 15.72688 c 0,2.1715 -1.76034,3.93184 -3.93182,3.93184 h -188.4513 c -2.17149,0 -3.93184,-1.76034 -3.93184,-3.93184 z"
         fill-rule="evenodd"
         id="path596"
         style="fill:#cccccc"
         inkscape:connector-curvature="0" />
      <path
         stroke="#595959"
         stroke-width="1.0"
         stroke-linejoin="round"
         stroke-linecap="butt"
         d="m 218.03291,221.51714 v 0 c 0,-2.17149 1.76035,-3.93184 3.93184,-3.93184 h 188.4513 c 1.04278,0 2.04288,0.41425 2.78021,1.15161 0.73737,0.73737 1.15161,1.73744 1.15161,2.78023 v 15.72688 c 0,2.1715 -1.76034,3.93184 -3.93182,3.93184 h -188.4513 c -2.17149,0 -3.93184,-1.76034 -3.93184,-3.93184 z"
         fill-rule="evenodd"
         id="path598"
         style="fill:#cccccc"
         inkscape:connector-curvature="0" />
    </g>
    <defs
       id="defs618">
      <filter
         id="shadowFilter-g409398e341_0_22.23"
         filterUnits="userSpaceOnUse">
        <feGaussianBlur
           in="SourceAlpha"
           stdDeviation="2.0"
           result="blur"
           id="feGaussianBlur605" />
        <feComponentTransfer
           in="blur"
           color-interpolation-filters="sRGB"
           id="feComponentTransfer615">
          <feFuncR
             type="linear"
             slope="0"
             intercept="0.0"
             id="feFuncR607" />
          <feFuncG
             type="linear"
             slope="0"
             intercept="0.0"
             id="feFuncG609" />
          <feFuncB
             type="linear"
             slope="0"
             intercept="0.0"
             id="feFuncB611" />
          <feFuncA
             type="linear"
             slope="0.5"
             intercept="0"
             id="feFuncA613" />
        </feComponentTransfer>
      </filter>
    </defs>
    <g
       id="g409398e341_0_22.23">
      <path
         fill="#eeeeee"
         d="m 116.33719,292.37616 55.19685,-0.0199 v -16.16534 l 32.33071,32.31906 -32.33071,32.34235 v -16.16535 l -55.19685,0.0199 z"
         fill-rule="evenodd"
         id="path620"
         inkscape:connector-curvature="0" />
      <path
         stroke="#595959"
         stroke-width="1.0"
         stroke-linejoin="round"
         stroke-linecap="butt"
         d="m 116.33719,292.37616 55.19685,-0.0199 v -16.16534 l 32.33071,32.31906 -32.33071,32.34235 v -16.16535 l -55.19685,0.0199 z"
         fill-rule="evenodd"
         id="path622"
         inkscape:connector-curvature="0" />
    </g>
    <defs
       id="defs642">
      <filter
         id="shadowFilter-g409398e341_0_22.24"
         filterUnits="userSpaceOnUse">
        <feGaussianBlur
           in="SourceAlpha"
           stdDeviation="2.0"
           result="blur"
           id="feGaussianBlur629" />
        <feComponentTransfer
           in="blur"
           color-interpolation-filters="sRGB"
           id="feComponentTransfer639">
          <feFuncR
             type="linear"
             slope="0"
             intercept="0.0"
             id="feFuncR631" />
          <feFuncG
             type="linear"
             slope="0"
             intercept="0.0"
             id="feFuncG633" />
          <feFuncB
             type="linear"
             slope="0"
             intercept="0.0"
             id="feFuncB635" />
          <feFuncA
             type="linear"
             slope="0.5"
             intercept="0"
             id="feFuncA637" />
        </feComponentTransfer>
      </filter>
    </defs>
    <g
       id="g409398e341_0_22.24">
      <path
         fill="#eeeeee"
         d="m 420.9942,292.3644 55.19684,-0.0199 v -16.16534 l 32.33072,32.31906 -32.33072,32.34235 v -16.16535 l -55.19684,0.0199 z"
         fill-rule="evenodd"
         id="path644"
         inkscape:connector-curvature="0" />
      <path
         stroke="#595959"
         stroke-width="1.0"
         stroke-linejoin="round"
         stroke-linecap="butt"
         d="m 420.9942,292.3644 55.19684,-0.0199 v -16.16534 l 32.33072,32.31906 -32.33072,32.34235 v -16.16535 l -55.19684,0.0199 z"
         fill-rule="evenodd"
         id="path646"
         inkscape:connector-curvature="0" />
    </g>
    <path
       fill="#000000"
       fill-opacity="0.0"
       d="m 215.19568,302.4029 h 201.98944 v 86.67978 H 215.19568 Z"
       fill-rule="evenodd"
       id="path649"
       inkscape:connector-curvature="0" />
    <g
       transform="matrix(0.43166639,0.02259676,-0.015003,0.28660265,209.33527,267.62504)"
       id="g656">
      <clipPath
         id="g409398e341_0_22.25">
        <path
           d="M 17.745087,119.94609 484.39585,83.15371 494.8787,384.76608 28.227936,421.55847 Z"
           clip-rule="evenodd"
           id="path651"
           inkscape:connector-curvature="0" />
      </clipPath>
    </g>
    <text
       id="text1139"
       y="467.91214"
       x="285.68439"
       style="font-style:normal;font-weight:normal;font-size:18.6667px;line-height:1.25;font-family:sans-serif;fill:#000000;fill-opacity:1;stroke:none"
       xml:space="preserve"><tspan
         y="467.91214"
         x="285.68439"
         id="tspan1137"
         sodipodi:role="line">kotlinc</tspan></text>
    <text
       xml:space="preserve"
       style="font-style:normal;font-weight:normal;font-size:18.6667px;line-height:1.25;font-family:sans-serif;fill:#000000;fill-opacity:1;stroke:none"
       x="760.96619"
       y="467.65237"
       id="text1145"><tspan
         sodipodi:role="line"
         id="tspan1143"
         x="760.96619"
         y="467.65237">JVM</tspan></text>
  </g>
</svg>
