<?xml version="1.0" encoding="UTF-8" standalone="no"?>
<svg
        xmlns:dc="http://purl.org/dc/elements/1.1/"
        xmlns:cc="http://creativecommons.org/ns#"
        xmlns:rdf="http://www.w3.org/1999/02/22-rdf-syntax-ns#"
        xmlns:svg="http://www.w3.org/2000/svg"
        xmlns="http://www.w3.org/2000/svg"
        xmlns:sodipodi="http://sodipodi.sourceforge.net/DTD/sodipodi-0.dtd"
        xmlns:inkscape="http://www.inkscape.org/namespaces/inkscape"
        inkscape:version="1.0beta2 (2b71d25, 2019-12-03)"
        height="326.71652"
        width="854.08386"
        sodipodi:docname="The Kotlin Type Hierarchy.svg"
        id="svg660"
        stroke-miterlimit="10"
        stroke-linecap="square"
        stroke="none"
        fill="none"
        viewBox="0 0 854.08386 326.71652"
        version="1.1" xmlns:xsi="http://www.w3.org/2001/XMLSchema-instance"
        xsi:schemaLocation="http://purl.org/dc/elements/1.1/ ">
  <metadata
          id="metadata666">
    <rdf:RDF>
      <cc:Work
              rdf:about="">
        <dc:format>image/svg+xml</dc:format>
        <dc:type
                rdf:resource="http://purl.org/dc/dcmitype/StillImage"/>
        <dc:title></dc:title>
      </cc:Work>
    </rdf:RDF>
  </metadata>
  <defs
          id="defs664"/>
  <sodipodi:namedview
          inkscape:current-layer="g658"
          inkscape:window-maximized="0"
          inkscape:window-y="23"
          inkscape:window-x="0"
          inkscape:cy="180.04046"
          inkscape:cx="631.00475"
          inkscape:zoom="0.64550295"
          fit-margin-bottom="0"
          fit-margin-right="0"
          fit-margin-left="0"
          fit-margin-top="0"
          showgrid="false"
          id="namedview662"
          inkscape:window-height="844"
          inkscape:window-width="1366"
          inkscape:pageshadow="2"
          inkscape:pageopacity="0"
          guidetolerance="10"
          gridtolerance="10"
          objecttolerance="10"
          borderopacity="1"
          inkscape:document-rotation="0"
          bordercolor="#666666"
          pagecolor="#ffffff"/>
  <clipPath
          id="g409398e341_0_22.0">
    <path
            inkscape:connector-curvature="0"
            id="path10"
            clip-rule="nonzero"
            d="M 0,0 H 960 V 540 H 0 Z"/>
  </clipPath>
  <g
          transform="translate(-52.95811,-161.17455)"
          id="g658"
          clip-path="url(#g409398e341_0_22.0)">
    <defs
            id="defs32">
      <filter
              filterUnits="userSpaceOnUse"
              id="shadowFilter-g409398e341_0_22.1">
        <feGaussianBlur
                id="feGaussianBlur19"
                result="blur"
                stdDeviation="2.0"
                in="SourceAlpha"/>
        <feComponentTransfer
                id="feComponentTransfer29"
                color-interpolation-filters="sRGB"
                in="blur">
          <feFuncR
                  id="feFuncR21"
                  intercept="0.0"
                  slope="0"
                  type="linear"/>
          <feFuncG
                  id="feFuncG23"
                  intercept="0.0"
                  slope="0"
                  type="linear"/>
          <feFuncB
                  id="feFuncB25"
                  intercept="0.0"
                  slope="0"
                  type="linear"/>
          <feFuncA
                  id="feFuncA27"
                  intercept="0"
                  slope="0.5"
                  type="linear"/>
        </feComponentTransfer>
      </filter>
    </defs>
    <g
            id="g409398e341_0_22.1">
      <path
              inkscape:connector-curvature="0"
              style="fill:#f2f2f2"
              id="path34"
              fill-rule="evenodd"
              d="m 659.17194,202.91946 v 0 c 0,-22.77025 18.45892,-41.22917 41.22913,-41.22917 h 164.91174 v 0 c 10.93469,0 21.42144,4.34377 29.15344,12.07574 7.73199,7.73197 12.07574,18.21877 12.07574,29.15343 v 243.24243 c 0,22.77027 -18.45892,41.22919 -41.22918,41.22919 H 700.40107 c -22.77021,0 -41.22913,-18.45892 -41.22913,-41.22919 z"
              fill="#fff2cc"/>
      <path
              inkscape:connector-curvature="0"
              id="path36"
              fill-rule="evenodd"
              d="m 659.17194,202.91946 v 0 c 0,-22.77025 18.45892,-41.22917 41.22913,-41.22917 h 164.91174 v 0 c 10.93469,0 21.42144,4.34377 29.15344,12.07574 7.73199,7.73197 12.07574,18.21877 12.07574,29.15343 v 243.24243 c 0,22.77027 -18.45892,41.22919 -41.22918,41.22919 H 700.40107 c -22.77021,0 -41.22913,-18.45892 -41.22913,-41.22919 z"
              stroke-linecap="butt"
              stroke-linejoin="round"
              stroke-width="1.0"
              stroke="#595959"/>
      <path
              inkscape:connector-curvature="0"
              id="path38"
              fill-rule="nonzero"
              d="m 764.73193,458.43857 1.59375,-0.21875 q 0.0781,1.53125 0.57813,2.10938 0.51562,0.5625 1.42187,0.5625 0.65625,0 1.14063,-0.29688 0.48437,-0.3125 0.65625,-0.82812 0.1875,-0.53125 0.1875,-1.6875 v -9.20313 h 1.76562 v 9.10938 q 0,1.67187 -0.40625,2.59375 -0.40625,0.92187 -1.28125,1.40625 -0.875,0.48437 -2.0625,0.48437 -1.75,0 -2.6875,-1.01562 -0.9375,-1.01563 -0.90625,-3.01563 z m 14.04688,3.79688 -5.17188,-13.35938 h 1.92188 l 3.46875,9.70313 q 0.42187,1.17187 0.70312,2.1875 0.3125,-1.09375 0.71875,-2.1875 l 3.60938,-9.70313 h 1.79687 l -5.23437,13.35938 z m 8.58422,0 v -13.35938 h 2.65625 l 3.15625,9.45313 q 0.4375,1.32812 0.64063,1.98437 0.23437,-0.73437 0.70312,-2.14062 l 3.20313,-9.29688 h 2.375 v 13.35938 h -1.70313 v -11.17188 l -3.875,11.17188 h -1.59375 l -3.85937,-11.375 v 11.375 z"
              fill="#000000"/>
    </g>
    <defs
            id="defs58">
      <filter
              filterUnits="userSpaceOnUse"
              id="shadowFilter-g409398e341_0_22.2">
        <feGaussianBlur
                id="feGaussianBlur45"
                result="blur"
                stdDeviation="2.0"
                in="SourceAlpha"/>
        <feComponentTransfer
                id="feComponentTransfer55"
                color-interpolation-filters="sRGB"
                in="blur">
          <feFuncR
                  id="feFuncR47"
                  intercept="0.0"
                  slope="0"
                  type="linear"/>
          <feFuncG
                  id="feFuncG49"
                  intercept="0.0"
                  slope="0"
                  type="linear"/>
          <feFuncB
                  id="feFuncB51"
                  intercept="0.0"
                  slope="0"
                  type="linear"/>
          <feFuncA
                  id="feFuncA53"
                  intercept="0"
                  slope="0.5"
                  type="linear"/>
        </feComponentTransfer>
      </filter>
    </defs>
    <g
            style="fill:#cccccc"
            id="g409398e341_0_22.2">
      <path
              inkscape:connector-curvature="0"
              style="fill:#cccccc"
              id="path60"
              fill-rule="evenodd"
              d="m 674.5105,186.01581 h 216.69293 v 161.7638 H 674.5105 Z"
              fill="#ffe599"/>
      <path
              inkscape:connector-curvature="0"
              style="fill:#cccccc"
              id="path62"
              fill-rule="evenodd"
              d="m 674.5105,186.01581 h 216.69293 v 161.7638 H 674.5105 Z"
              stroke-linecap="butt"
              stroke-linejoin="round"
              stroke-width="1.0"
              stroke="#595959"/>
      <path
              inkscape:connector-curvature="0"
              style="fill:#cccccc"
              id="path64"
              fill-rule="nonzero"
              d="m 763.3399,334.6996 v -13.35938 h 1.64062 v 4.79688 q 1.14063,-1.32813 2.89063,-1.32813 1.07812,0 1.85937,0.42188 0.79688,0.42187 1.14063,1.17187 0.34375,0.75 0.34375,2.17188 v 6.125 h -1.64063 v -6.125 q 0,-1.23438 -0.53125,-1.79688 -0.53125,-0.5625 -1.51562,-0.5625 -0.71875,0 -1.35938,0.39063 -0.64062,0.375 -0.92187,1.01562 -0.26563,0.64063 -0.26563,1.78125 v 5.29688 z m 17.00073,-3.10938 1.6875,0.20313 q -0.40625,1.48437 -1.48437,2.3125 -1.07813,0.8125 -2.76563,0.8125 -2.125,0 -3.375,-1.29688 -1.23437,-1.3125 -1.23437,-3.67187 0,-2.45313 1.25,-3.79688 1.26562,-1.34375 3.26562,-1.34375 1.9375,0 3.15625,1.32813 1.23438,1.3125 1.23438,3.70312 0,0.15625 0,0.4375 h -7.21875 q 0.0937,1.59375 0.90625,2.45313 0.8125,0.84375 2.01562,0.84375 0.90625,0 1.54688,-0.46875 0.64062,-0.48438 1.01562,-1.51563 z m -5.39062,-2.65625 h 5.40625 q -0.10938,-1.21875 -0.625,-1.82812 -0.78125,-0.95313 -2.03125,-0.95313 -1.125,0 -1.90625,0.76563 -0.76563,0.75 -0.84375,2.01562 z m 15.45379,4.57813 q -0.92187,0.76562 -1.76562,1.09375 -0.82813,0.3125 -1.79688,0.3125 -1.59375,0 -2.45312,-0.78125 -0.85938,-0.78125 -0.85938,-1.98438 0,-0.71875 0.32813,-1.29687 0.32812,-0.59375 0.84375,-0.9375 0.53125,-0.35938 1.1875,-0.54688 0.46875,-0.125 1.45312,-0.25 1.98438,-0.23437 2.92188,-0.5625 0.0156,-0.34375 0.0156,-0.42187 0,-1 -0.46875,-1.42188 -0.625,-0.54687 -1.875,-0.54687 -1.15625,0 -1.70312,0.40625 -0.54688,0.40625 -0.8125,1.42187 l -1.60938,-0.21875 q 0.21875,-1.01562 0.71875,-1.64062 0.5,-0.64063 1.45313,-0.98438 0.95312,-0.34375 2.1875,-0.34375 1.25,0 2.01562,0.29688 0.78125,0.28125 1.14063,0.73437 0.375,0.4375 0.51562,1.10938 0.0781,0.42187 0.0781,1.51562 v 2.1875 q 0,2.28125 0.10937,2.89063 0.10938,0.59375 0.40625,1.15625 h -1.70312 q -0.26563,-0.51563 -0.32813,-1.1875 z m -0.14062,-3.67188 q -0.89063,0.375 -2.67188,0.625 -1.01562,0.14063 -1.4375,0.32813 -0.42187,0.1875 -0.65625,0.53125 -0.21875,0.34375 -0.21875,0.78125 0,0.65625 0.5,1.09375 0.5,0.4375 1.45313,0.4375 0.9375,0 1.67187,-0.40625 0.75,-0.42188 1.09375,-1.14063 0.26563,-0.5625 0.26563,-1.64062 z m 4.20386,8.5625 v -13.375 h 1.48437 v 1.25 q 0.53125,-0.73437 1.1875,-1.09375 0.67188,-0.375 1.625,-0.375 1.23438,0 2.17188,0.64063 0.95312,0.625 1.4375,1.79687 0.48437,1.15625 0.48437,2.54688 0,1.48437 -0.53125,2.67187 -0.53125,1.1875 -1.54687,1.82813 -1.01563,0.625 -2.14063,0.625 -0.8125,0 -1.46875,-0.34375 -0.65625,-0.34375 -1.0625,-0.875 v 4.70312 z m 1.48437,-8.48437 q 0,1.85937 0.75,2.76562 0.76563,0.89063 1.82813,0.89063 1.09375,0 1.875,-0.92188 0.78125,-0.9375 0.78125,-2.875 0,-1.84375 -0.76563,-2.76562 -0.75,-0.92188 -1.8125,-0.92188 -1.04687,0 -1.85937,0.98438 -0.79688,0.96875 -0.79688,2.84375 z"
              fill="#000000"/>
    </g>
    <defs
            id="defs84">
      <filter
              filterUnits="userSpaceOnUse"
              id="shadowFilter-g409398e341_0_22.3">
        <feGaussianBlur
                id="feGaussianBlur71"
                result="blur"
                stdDeviation="2.0"
                in="SourceAlpha"/>
        <feComponentTransfer
                id="feComponentTransfer81"
                color-interpolation-filters="sRGB"
                in="blur">
          <feFuncR
                  id="feFuncR73"
                  intercept="0.0"
                  slope="0"
                  type="linear"/>
          <feFuncG
                  id="feFuncG75"
                  intercept="0.0"
                  slope="0"
                  type="linear"/>
          <feFuncB
                  id="feFuncB77"
                  intercept="0.0"
                  slope="0"
                  type="linear"/>
          <feFuncA
                  id="feFuncA79"
                  intercept="0"
                  slope="0.5"
                  type="linear"/>
        </feComponentTransfer>
      </filter>
    </defs>
    <g
            id="g409398e341_0_22.3">
      <path
              inkscape:connector-curvature="0"
              id="path86"
              fill-rule="evenodd"
              d="m 509.75732,263.51706 h 87.52759 v 91.42752 l -14.58826,14.58823 h -72.93933 z"
              fill="#ffffff"/>
      <path
              inkscape:connector-curvature="0"
              id="path88"
              fill-rule="evenodd"
              d="m 582.69666,369.5328 2.91766,-11.67056 11.6706,-2.91767 z"
              fill="#cbcbcb"/>
      <path
              inkscape:connector-curvature="0"
              id="path90"
              fill-rule="evenodd"
              d="m 582.69666,369.5328 2.91766,-11.67056 11.6706,-2.91767 -14.58826,14.58823 H 509.75733 V 263.51705 h 87.52759 v 91.42752"
              fill-opacity="0.0"
              fill="#000000"/>
      <path
              inkscape:connector-curvature="0"
              id="path92"
              fill-rule="evenodd"
              d="m 582.69666,369.5328 2.91766,-11.67056 11.6706,-2.91767 -14.58826,14.58823 H 509.75733 V 263.51705 h 87.52759 v 91.42752"
              stroke-linecap="butt"
              stroke-linejoin="round"
              stroke-width="1.0"
              stroke="#595959"/>
      <path
              inkscape:connector-curvature="0"
              id="path94"
              fill-rule="nonzero"
              d="m 529.7261,289.46332 1.76562,0.45312 q -0.5625,2.17188 -2,3.32813 -1.4375,1.14062 -3.53125,1.14062 -2.15625,0 -3.51562,-0.875 -1.34375,-0.89062 -2.0625,-2.54687 -0.70313,-1.67188 -0.70313,-3.59375 0,-2.07813 0.79688,-3.625 0.79687,-1.5625 2.26562,-2.35938 1.48438,-0.8125 3.25,-0.8125 2,0 3.35938,1.01563 1.375,1.01562 1.90625,2.875 l -1.73438,0.40625 q -0.46875,-1.45313 -1.35937,-2.10938 -0.875,-0.67187 -2.20313,-0.67187 -1.54687,0 -2.57812,0.73437 -1.03125,0.73438 -1.45313,1.98438 -0.42187,1.23437 -0.42187,2.5625 0,1.70312 0.5,2.96875 0.5,1.26562 1.54687,1.90625 1.04688,0.625 2.26563,0.625 1.48437,0 2.51562,-0.85938 1.03125,-0.85937 1.39063,-2.54687 z m 2.47296,4.6875 5.125,-13.35938 h 1.90625 l 5.46875,13.35938 h -2.01562 l -1.54688,-4.04688 h -5.59375 l -1.46875,4.04688 z m 3.85938,-5.48438 h 4.53125 l -1.40625,-3.70312 q -0.625,-1.6875 -0.9375,-2.76563 -0.26563,1.28125 -0.71875,2.54688 z m 10.14666,5.48438 v -13.35938 h 9.01563 v 1.57813 h -7.25 v 4.14062 h 6.26562 v 1.57813 h -6.26562 v 6.0625 z m 11.3335,0 v -13.35938 h 9.65625 v 1.57813 h -7.875 v 4.09375 h 7.375 v 1.5625 h -7.375 v 4.54687 h 8.1875 v 1.57813 z"
              fill="#000000"/>
      <path
              inkscape:connector-curvature="0"
              id="path96"
              fill-rule="nonzero"
              d="m 520.1167,316.15082 v -13.35938 h 5.01563 q 1.53125,0 2.45312,0.40625 0.92188,0.40625 1.4375,1.25 0.53125,0.84375 0.53125,1.76563 0,0.85937 -0.46875,1.625 -0.45312,0.75 -1.39062,1.20312 1.20312,0.35938 1.85937,1.21875 0.65625,0.85938 0.65625,2.01563 0,0.9375 -0.40625,1.75 -0.39062,0.79687 -0.98437,1.23437 -0.57813,0.4375 -1.45313,0.67188 -0.875,0.21875 -2.15625,0.21875 z m 1.78125,-7.75 h 2.875 q 1.1875,0 1.6875,-0.14063 0.67188,-0.20312 1.01563,-0.67187 0.34375,-0.46875 0.34375,-1.17188 0,-0.65625 -0.32813,-1.15625 -0.3125,-0.51562 -0.90625,-0.70312 -0.59375,-0.1875 -2.03125,-0.1875 h -2.65625 z m 0,6.17187 h 3.3125 q 0.85938,0 1.20313,-0.0625 0.60937,-0.10937 1.01562,-0.35937 0.42188,-0.26563 0.6875,-0.75 0.26563,-0.48438 0.26563,-1.125 0,-0.75 -0.39063,-1.29688 -0.375,-0.54687 -1.0625,-0.76562 -0.67187,-0.23438 -1.95312,-0.23438 h -3.07813 z m 9.27173,1.57813 5.125,-13.35938 h 1.90625 l 5.46875,13.35938 h -2.01563 l -1.54687,-4.04688 h -5.59375 l -1.46875,4.04688 z m 3.85937,-5.48438 h 4.53125 l -1.40625,-3.70312 q -0.625,-1.6875 -0.9375,-2.76563 -0.26562,1.28125 -0.71875,2.54688 z m 9.9748,5.48438 v -13.35938 h 5.01562 q 1.53125,0 2.45313,0.40625 0.92187,0.40625 1.4375,1.25 0.53125,0.84375 0.53125,1.76563 0,0.85937 -0.46875,1.625 -0.45313,0.75 -1.39063,1.20312 1.20313,0.35938 1.85938,1.21875 0.65625,0.85938 0.65625,2.01563 0,0.9375 -0.40625,1.75 -0.39063,0.79687 -0.98438,1.23437 -0.57812,0.4375 -1.45312,0.67188 -0.875,0.21875 -2.15625,0.21875 z m 1.78125,-7.75 h 2.875 q 1.1875,0 1.6875,-0.14063 0.67187,-0.20312 1.01562,-0.67187 0.34375,-0.46875 0.34375,-1.17188 0,-0.65625 -0.32812,-1.15625 -0.3125,-0.51562 -0.90625,-0.70312 -0.59375,-0.1875 -2.03125,-0.1875 h -2.65625 z m 0,6.17187 h 3.3125 q 0.85937,0 1.20312,-0.0625 0.60938,-0.10937 1.01563,-0.35937 0.42187,-0.26563 0.6875,-0.75 0.26562,-0.48438 0.26562,-1.125 0,-0.75 -0.39062,-1.29688 -0.375,-0.54687 -1.0625,-0.76562 -0.67188,-0.23438 -1.95313,-0.23438 h -3.07812 z m 10.77172,1.57813 v -13.35938 h 9.65625 v 1.57813 h -7.875 v 4.09375 h 7.375 v 1.5625 h -7.375 v 4.54687 h 8.1875 v 1.57813 z"
              fill="#000000"/>
      <path
              inkscape:connector-curvature="0"
              id="path98"
              fill-rule="nonzero"
              d="m 520.4448,338.15082 v -1.875 h 1.875 v 1.875 z m 5.18329,0 v -1.875 h 1.875 v 1.875 z m 5.18335,0 v -1.875 h 1.875 v 1.875 z"
              fill="#000000"/>
    </g>
    <defs
            id="defs118">
      <filter
              filterUnits="userSpaceOnUse"
              id="shadowFilter-g409398e341_0_22.4">
        <feGaussianBlur
                id="feGaussianBlur105"
                result="blur"
                stdDeviation="2.0"
                in="SourceAlpha"/>
        <feComponentTransfer
                id="feComponentTransfer115"
                color-interpolation-filters="sRGB"
                in="blur">
          <feFuncR
                  id="feFuncR107"
                  intercept="0.0"
                  slope="0"
                  type="linear"/>
          <feFuncG
                  id="feFuncG109"
                  intercept="0.0"
                  slope="0"
                  type="linear"/>
          <feFuncB
                  id="feFuncB111"
                  intercept="0.0"
                  slope="0"
                  type="linear"/>
          <feFuncA
                  id="feFuncA113"
                  intercept="0"
                  slope="0.5"
                  type="linear"/>
        </feComponentTransfer>
      </filter>
    </defs>
    <g
            id="g409398e341_0_22.4">
      <path
              inkscape:connector-curvature="0"
              id="path120"
              fill-rule="evenodd"
              d="m 61.45812,255.51706 h 87.52756 v 91.42752 l -14.58821,14.58823 H 61.458119 Z"
              fill="#ffffff"/>
      <path
              inkscape:connector-curvature="0"
              id="path122"
              fill-rule="evenodd"
              d="m 134.39746,361.5328 2.91763,-11.67056 11.67058,-2.91767 z"
              fill="#cbcbcb"/>
      <path
              inkscape:connector-curvature="0"
              id="path124"
              fill-rule="evenodd"
              d="m 134.39746,361.5328 2.91763,-11.67056 11.67058,-2.91767 -14.58821,14.58823 H 61.45811 V 255.51705 h 87.52756 v 91.42752"
              fill-opacity="0.0"
              fill="#000000"/>
      <path
              inkscape:connector-curvature="0"
              id="path126"
              fill-rule="evenodd"
              d="m 134.39746,361.5328 2.91763,-11.67056 11.67058,-2.91767 -14.58821,14.58823 H 61.45811 V 255.51705 h 87.52756 v 91.42752"
              stroke-linecap="butt"
              stroke-linejoin="round"
              stroke-width="1.0"
              stroke="#595959"/>
      <path
              inkscape:connector-curvature="0"
              id="path128"
              fill-rule="nonzero"
              d="m 72.083115,286.15082 v -8.40625 H 70.62999 v -1.26563 h 1.453125 v -1.03125 q 0,-0.96875 0.171875,-1.45312 0.234375,-0.64063 0.828125,-1.03125 0.59375,-0.39063 1.671875,-0.39063 0.6875,0 1.53125,0.15625 l -0.25,1.4375 q -0.5,-0.0937 -0.953125,-0.0937 -0.75,0 -1.0625,0.32813 -0.3125,0.3125 -0.3125,1.1875 v 0.89062 h 1.890625 v 1.26563 h -1.890625 v 8.40625 z m 4.183304,-4.84375 q 0,-2.6875 1.484375,-3.96875 1.25,-1.07813 3.046875,-1.07813 2,0 3.265625,1.3125 1.265625,1.29688 1.265625,3.60938 0,1.85937 -0.5625,2.9375 -0.5625,1.0625 -1.640625,1.65625 -1.0625,0.59375 -2.328125,0.59375 -2.03125,0 -3.28125,-1.29688 -1.25,-1.3125 -1.25,-3.76562 z m 1.6875,0 q 0,1.85937 0.796875,2.79687 0.8125,0.92188 2.046875,0.92188 1.21875,0 2.03125,-0.92188 0.8125,-0.9375 0.8125,-2.84375 0,-1.79687 -0.8125,-2.71875 -0.8125,-0.92187 -2.03125,-0.92187 -1.234375,0 -2.046875,0.92187 -0.796875,0.90625 -0.796875,2.76563 z m 8.688217,0 q 0,-2.6875 1.484375,-3.96875 1.25,-1.07813 3.046875,-1.07813 2,0 3.265625,1.3125 1.265625,1.29688 1.265625,3.60938 0,1.85937 -0.5625,2.9375 -0.5625,1.0625 -1.640625,1.65625 -1.0625,0.59375 -2.328125,0.59375 -2.03125,0 -3.28125,-1.29688 -1.25,-1.3125 -1.25,-3.76562 z m 1.6875,0 q 0,1.85937 0.796875,2.79687 0.8125,0.92188 2.046875,0.92188 1.21875,0 2.03125,-0.92188 0.8125,-0.9375 0.8125,-2.84375 0,-1.79687 -0.8125,-2.71875 -0.8125,-0.92187 -2.03125,-0.92187 -1.234375,0 -2.046875,0.92187 -0.796875,0.90625 -0.796875,2.76563 z m 12.422594,8.76562 q -1.359377,-1.70312 -2.296877,-4 -0.9375,-2.29687 -0.9375,-4.76562 0,-2.15625 0.703125,-4.14063 0.828125,-2.3125 2.531252,-4.59375 h 1.17187 q -1.09375,1.89063 -1.45312,2.70313 -0.546877,1.25 -0.875002,2.625 -0.390625,1.70312 -0.390625,3.42187 0,4.375 2.718747,8.75 z m 4.1658,0 h -1.1875 q 2.73438,-4.375 2.73438,-8.75 0,-1.71875 -0.39063,-3.39062 -0.3125,-1.375 -0.875,-2.625 -0.35937,-0.82813 -1.46875,-2.73438 h 1.1875 q 1.70313,2.28125 2.53125,4.59375 0.6875,1.98438 0.6875,4.14063 0,2.46875 -0.9375,4.76562 -0.9375,2.29688 -2.28125,4 z m 9.59911,-9.5 q 0.70312,-0.0156 1.14062,-0.375 0.45313,-0.35937 0.59375,-0.98437 0.14063,-0.625 0.14063,-2.14063 0.0156,-1.53125 0.0625,-2.01562 0.0937,-0.76563 0.3125,-1.23438 0.21875,-0.46875 0.54687,-0.73437 0.32813,-0.28125 0.84375,-0.42188 0.34375,-0.0937 1.125,-0.0937 h 0.51563 v 1.42188 h -0.28125 q -0.95313,0 -1.26563,0.34375 -0.3125,0.34375 -0.3125,1.53125 0,2.39062 -0.0937,3.01562 -0.15625,0.96875 -0.5625,1.5 -0.39062,0.53125 -1.23437,0.9375 1,0.42188 1.4375,1.28125 0.45312,0.85938 0.45312,2.8125 0,1.78125 0.0469,2.125 0.0625,0.60938 0.35937,0.85938 0.29688,0.25 1.17188,0.25 h 0.28125 v 1.42187 h -0.51563 q -0.89062,0 -1.29687,-0.14062 -0.57813,-0.20313 -0.96875,-0.6875 -0.375,-0.46875 -0.5,-1.1875 -0.10938,-0.71875 -0.125,-2.35938 0,-1.64062 -0.14063,-2.26562 -0.14062,-0.625 -0.59375,-0.98438 -0.4375,-0.375 -1.14062,-0.39062 z"
              fill="#000000"/>
      <path
              inkscape:connector-curvature="0"
              id="path130"
              fill-rule="nonzero"
              d="m 72.145615,308.15082 v -1.875 h 1.875 v 1.875 z m 5.183304,0 v -1.875 h 1.875 v 1.875 z m 5.183304,0 v -1.875 h 1.875 v 1.875 z"
              fill="#000000"/>
      <path
              inkscape:connector-curvature="0"
              id="path132"
              fill-rule="nonzero"
              d="m 76.16124,324.5727 v 1.48437 q -0.703125,0.0156 -1.140625,0.39063 -0.4375,0.35937 -0.59375,0.98437 -0.140625,0.625 -0.15625,2.15625 0,1.51563 -0.04687,2 -0.07813,0.76563 -0.3125,1.21875 -0.21875,0.46875 -0.546875,0.75 -0.328125,0.28125 -0.84375,0.42188 -0.34375,0.0937 -1.125,0.0937 h -0.51563 v -1.42188 h 0.28125 q 0.953125,0 1.265625,-0.34375 0.3125,-0.34375 0.3125,-1.53125 0,-2.28125 0.07813,-2.89062 0.140625,-1.01563 0.578125,-1.60938 0.4375,-0.60937 1.25,-0.95312 -1.046875,-0.5 -1.484375,-1.32813 -0.421875,-0.82812 -0.421875,-2.78125 0,-1.78125 -0.04687,-2.125 -0.0625,-0.60937 -0.359375,-0.84375 -0.296875,-0.25 -1.171875,-0.25 H 70.88 v -1.42187 h 0.515625 q 0.890625,0 1.296875,0.14062 0.578125,0.20313 0.953125,0.6875 0.390625,0.46875 0.5,1.1875 0.125,0.71875 0.125,2.35938 0.01563,1.64062 0.15625,2.26562 0.15625,0.60938 0.59375,0.98438 0.4375,0.35937 1.140625,0.375 z"
              fill="#000000"/>
    </g>
    <defs
            id="defs156">
      <filter
              filterUnits="userSpaceOnUse"
              id="shadowFilter-g409398e341_0_22.5">
        <feGaussianBlur
                id="feGaussianBlur143"
                result="blur"
                stdDeviation="2.0"
                in="SourceAlpha"/>
        <feComponentTransfer
                id="feComponentTransfer153"
                color-interpolation-filters="sRGB"
                in="blur">
          <feFuncR
                  id="feFuncR145"
                  intercept="0.0"
                  slope="0"
                  type="linear"/>
          <feFuncG
                  id="feFuncG147"
                  intercept="0.0"
                  slope="0"
                  type="linear"/>
          <feFuncB
                  id="feFuncB149"
                  intercept="0.0"
                  slope="0"
                  type="linear"/>
          <feFuncA
                  id="feFuncA151"
                  intercept="0"
                  slope="0.5"
                  type="linear"/>
        </feComponentTransfer>
      </filter>
    </defs>
    <g
            id="g409398e341_0_22.5">
      <path
              inkscape:connector-curvature="0"
              id="path158"
              fill-rule="evenodd"
              d="m 53.45812,247.51706 h 87.52756 v 91.42752 l -14.58821,14.58823 H 53.458119 Z"
              fill="#ffffff"/>
      <path
              inkscape:connector-curvature="0"
              id="path160"
              fill-rule="evenodd"
              d="m 126.39746,353.5328 2.91763,-11.67056 11.67058,-2.91767 z"
              fill="#cbcbcb"/>
      <path
              inkscape:connector-curvature="0"
              id="path162"
              fill-rule="evenodd"
              d="m 126.39746,353.5328 2.91763,-11.67056 11.67058,-2.91767 -14.58821,14.58823 H 53.45811 V 247.51705 h 87.52756 v 91.42752"
              fill-opacity="0.0"
              fill="#000000"/>
      <path
              inkscape:connector-curvature="0"
              id="path164"
              fill-rule="evenodd"
              d="m 126.39746,353.5328 2.91763,-11.67056 11.67058,-2.91767 -14.58821,14.58823 H 53.45811 V 247.51705 h 87.52756 v 91.42752"
              stroke-linecap="butt"
              stroke-linejoin="round"
              stroke-width="1.0"
              stroke="#595959"/>
      <path
              inkscape:connector-curvature="0"
              id="path166"
              fill-rule="nonzero"
              d="m 64.083115,278.15082 v -8.40625 h -1.453121 v -1.26563 h 1.453121 v -1.03125 q 0,-0.96875 0.171875,-1.45312 0.234375,-0.64063 0.828125,-1.03125 0.59375,-0.39063 1.671875,-0.39063 0.6875,0 1.53125,0.15625 l -0.25,1.4375 q -0.5,-0.0937 -0.953125,-0.0937 -0.75,0 -1.0625,0.32813 -0.3125,0.3125 -0.3125,1.1875 v 0.89062 h 1.890625 v 1.26563 h -1.890625 v 8.40625 z m 11.120804,0 v -1.42188 q -1.125,1.64063 -3.0625,1.64063 -0.859375,0 -1.609375,-0.32813 -0.734375,-0.32812 -1.09375,-0.82812 -0.359375,-0.5 -0.5,-1.21875 -0.109375,-0.46875 -0.109375,-1.53125 v -5.98438 h 1.640625 v 5.35938 q 0,1.28125 0.109375,1.73437 0.15625,0.64063 0.65625,1.01563 0.5,0.375 1.234375,0.375 0.734375,0 1.375,-0.375 0.65625,-0.39063 0.921875,-1.03125 0.265625,-0.65625 0.265625,-1.89063 v -5.1875 h 1.640625 v 9.67188 z m 4.047592,0 v -9.67188 h 1.46875 v 1.375 q 1.0625,-1.59375 3.078125,-1.59375 0.875,0 1.609375,0.3125 0.734375,0.3125 1.09375,0.82813 0.375,0.5 0.515625,1.20312 0.09375,0.45313 0.09375,1.59375 v 5.95313 h -1.640625 v -5.89063 q 0,-1 -0.203125,-1.48437 -0.1875,-0.5 -0.671875,-0.79688 -0.484375,-0.29687 -1.140625,-0.29687 -1.046875,0 -1.8125,0.67187 -0.75,0.65625 -0.75,2.51563 v 5.28125 z m 15.949646,0 v -8.40625 h -1.453125 v -1.26563 h 1.453125 v -1.03125 q 0,-0.96875 0.171875,-1.45312 0.234375,-0.64063 0.828125,-1.03125 0.59375,-0.39063 1.671875,-0.39063 0.6875,0 1.53125,0.15625 l -0.25,1.4375 q -0.5,-0.0937 -0.953125,-0.0937 -0.75,0 -1.0625,0.32813 -0.3125,0.3125 -0.3125,1.1875 v 0.89062 h 1.890625 v 1.26563 h -1.890625 v 8.40625 z m 7.917683,3.92187 q -1.35938,-1.70312 -2.29688,-4 -0.937499,-2.29687 -0.937499,-4.76562 0,-2.15625 0.703129,-4.14063 0.82812,-2.3125 2.53125,-4.59375 h 1.17187 q -1.09375,1.89063 -1.45312,2.70313 -0.54688,1.25 -0.875,2.625 -0.39063,1.70312 -0.39063,3.42187 0,4.375 2.71875,8.75 z m 4.1658,0 h -1.1875 q 2.73437,-4.375 2.73437,-8.75 0,-1.71875 -0.39062,-3.39062 -0.3125,-1.375 -0.875,-2.625 -0.35938,-0.82813 -1.46875,-2.73438 h 1.1875 q 1.70312,2.28125 2.53125,4.59375 0.6875,1.98438 0.6875,4.14063 0,2.46875 -0.9375,4.76562 -0.9375,2.29688 -2.28125,4 z m 9.5991,-9.5 q 0.70313,-0.0156 1.14063,-0.375 0.45312,-0.35937 0.59375,-0.98437 0.14062,-0.625 0.14062,-2.14063 0.0156,-1.53125 0.0625,-2.01562 0.0937,-0.76563 0.3125,-1.23438 0.21875,-0.46875 0.54688,-0.73437 0.32812,-0.28125 0.84375,-0.42188 0.34375,-0.0937 1.125,-0.0937 h 0.51562 v 1.42188 h -0.28125 q -0.95312,0 -1.26562,0.34375 -0.3125,0.34375 -0.3125,1.53125 0,2.39062 -0.0937,3.01562 -0.15625,0.96875 -0.5625,1.5 -0.39063,0.53125 -1.23438,0.9375 1,0.42188 1.4375,1.28125 0.45313,0.85938 0.45313,2.8125 0,1.78125 0.0469,2.125 0.0625,0.60938 0.35938,0.85938 0.29687,0.25 1.17187,0.25 h 0.28125 v 1.42187 h -0.51562 q -0.89063,0 -1.29688,-0.14062 -0.57812,-0.20313 -0.96875,-0.6875 -0.375,-0.46875 -0.5,-1.1875 -0.10937,-0.71875 -0.125,-2.35938 0,-1.64062 -0.14062,-2.26562 -0.14063,-0.625 -0.59375,-0.98438 -0.4375,-0.375 -1.14063,-0.39062 z"
              fill="#000000"/>
      <path
              inkscape:connector-curvature="0"
              id="path168"
              fill-rule="nonzero"
              d="m 84.87883,300.15082 v -1.875 h 1.875 v 1.875 z m 5.183304,0 v -1.875 h 1.875 v 1.875 z m 5.183304,0 v -1.875 h 1.875 v 1.875 z"
              fill="#000000"/>
      <path
              inkscape:connector-curvature="0"
              id="path170"
              fill-rule="nonzero"
              d="m 68.16124,316.5727 v 1.48437 q -0.703125,0.0156 -1.140625,0.39063 -0.4375,0.35937 -0.59375,0.98437 -0.140625,0.625 -0.15625,2.15625 0,1.51563 -0.04687,2 -0.07813,0.76563 -0.3125,1.21875 -0.21875,0.46875 -0.546875,0.75 -0.328125,0.28125 -0.84375,0.42188 -0.34375,0.0937 -1.124996,0.0937 h -0.515625 v -1.42188 h 0.28125 q 0.953121,0 1.265621,-0.34375 0.3125,-0.34375 0.3125,-1.53125 0,-2.28125 0.07813,-2.89062 0.140625,-1.01563 0.578125,-1.60938 0.4375,-0.60937 1.25,-0.95312 -1.046875,-0.5 -1.484375,-1.32813 -0.421875,-0.82812 -0.421875,-2.78125 0,-1.78125 -0.04687,-2.125 -0.0625,-0.60937 -0.359375,-0.84375 -0.296875,-0.25 -1.171871,-0.25 h -0.28125 v -1.42187 h 0.515625 q 0.890621,0 1.296871,0.14062 0.578125,0.20313 0.953125,0.6875 0.390625,0.46875 0.5,1.1875 0.125,0.71875 0.125,2.35938 0.01563,1.64062 0.15625,2.26562 0.15625,0.60938 0.59375,0.98438 0.4375,0.35937 1.140625,0.375 z"
              fill="#000000"/>
    </g>
    <defs
            id="defs190">
      <filter
              filterUnits="userSpaceOnUse"
              id="shadowFilter-g409398e341_0_22.6">
        <feGaussianBlur
                id="feGaussianBlur177"
                result="blur"
                stdDeviation="2.0"
                in="SourceAlpha"/>
        <feComponentTransfer
                id="feComponentTransfer187"
                color-interpolation-filters="sRGB"
                in="blur">
          <feFuncR
                  id="feFuncR179"
                  intercept="0.0"
                  slope="0"
                  type="linear"/>
          <feFuncG
                  id="feFuncG181"
                  intercept="0.0"
                  slope="0"
                  type="linear"/>
          <feFuncB
                  id="feFuncB183"
                  intercept="0.0"
                  slope="0"
                  type="linear"/>
          <feFuncA
                  id="feFuncA185"
                  intercept="0"
                  slope="0.5"
                  type="linear"/>
        </feComponentTransfer>
      </filter>
    </defs>
    <g
            id="g409398e341_0_22.6">
      <path
              inkscape:connector-curvature="0"
              id="path192"
              fill-rule="evenodd"
              d="m 501.75732,255.51706 h 87.52759 v 91.42752 l -14.58826,14.58823 h -72.93933 z"
              fill="#ffffff"/>
      <path
              inkscape:connector-curvature="0"
              id="path194"
              fill-rule="evenodd"
              d="m 574.69666,361.5328 2.91766,-11.67056 11.6706,-2.91767 z"
              fill="#cbcbcb"/>
      <path
              inkscape:connector-curvature="0"
              id="path196"
              fill-rule="evenodd"
              d="m 574.69666,361.5328 2.91766,-11.67056 11.6706,-2.91767 -14.58826,14.58823 H 501.75733 V 255.51705 h 87.52759 v 91.42752"
              fill-opacity="0.0"
              fill="#000000"/>
      <path
              inkscape:connector-curvature="0"
              id="path198"
              fill-rule="evenodd"
              d="m 574.69666,361.5328 2.91766,-11.67056 11.6706,-2.91767 -14.58826,14.58823 H 501.75733 V 255.51705 h 87.52759 v 91.42752"
              stroke-linecap="butt"
              stroke-linejoin="round"
              stroke-width="1.0"
              stroke="#595959"/>
      <path
              inkscape:connector-curvature="0"
              id="path200"
              fill-rule="nonzero"
              d="m 517.71045,282.43707 h -1.64062 v -10.45313 q -0.59375,0.5625 -1.5625,1.14063 -0.95313,0.5625 -1.71875,0.84375 v -1.59375 q 1.375,-0.64063 2.40625,-1.5625 1.03125,-0.92188 1.45312,-1.78125 h 1.0625 z m 4.20386,-6.59375 q 0,-2.35938 0.48437,-3.79688 0.48438,-1.45312 1.4375,-2.23437 0.96875,-0.78125 2.42188,-0.78125 1.07812,0 1.89062,0.4375 0.8125,0.42187 1.32813,1.25 0.53125,0.8125 0.82812,1.98437 0.3125,1.15625 0.3125,3.14063 0,2.35937 -0.48437,3.8125 -0.48438,1.4375 -1.45313,2.23437 -0.95312,0.78125 -2.42187,0.78125 -1.92188,0 -3.03125,-1.39062 -1.3125,-1.67188 -1.3125,-5.4375 z m 1.67187,0 q 0,3.29687 0.76563,4.39062 0.78125,1.07813 1.90625,1.07813 1.14062,0 1.90625,-1.09375 0.76562,-1.09375 0.76562,-4.375 0,-3.29688 -0.76562,-4.375 -0.76563,-1.07813 -1.92188,-1.07813 -1.125,0 -1.79687,0.95313 -0.85938,1.21875 -0.85938,4.5 z m 14.87573,6.59375 h -1.64062 v -10.45313 q -0.59375,0.5625 -1.5625,1.14063 -0.95313,0.5625 -1.71875,0.84375 v -1.59375 q 1.375,-0.64063 2.40625,-1.5625 1.03125,-0.92188 1.45312,-1.78125 h 1.0625 z m 4.2038,-6.59375 q 0,-2.35938 0.48438,-3.79688 0.48437,-1.45312 1.4375,-2.23437 0.96875,-0.78125 2.42187,-0.78125 1.07813,0 1.89063,0.4375 0.8125,0.42187 1.32812,1.25 0.53125,0.8125 0.82813,1.98437 0.3125,1.15625 0.3125,3.14063 0,2.35937 -0.48438,3.8125 -0.48437,1.4375 -1.45312,2.23437 -0.95313,0.78125 -2.42188,0.78125 -1.92187,0 -3.03125,-1.39062 -1.3125,-1.67188 -1.3125,-5.4375 z m 1.67188,0 q 0,3.29687 0.76562,4.39062 0.78125,1.07813 1.90625,1.07813 1.14063,0 1.90625,-1.09375 0.76563,-1.09375 0.76563,-4.375 0,-3.29688 -0.76563,-4.375 -0.76562,-1.07813 -1.92187,-1.07813 -1.125,0 -1.79688,0.95313 -0.85937,1.21875 -0.85937,4.5 z m 8.70385,0 q 0,-2.35938 0.48438,-3.79688 0.48437,-1.45312 1.4375,-2.23437 0.96875,-0.78125 2.42187,-0.78125 1.07813,0 1.89063,0.4375 0.8125,0.42187 1.32812,1.25 0.53125,0.8125 0.82813,1.98437 0.3125,1.15625 0.3125,3.14063 0,2.35937 -0.48438,3.8125 -0.48437,1.4375 -1.45312,2.23437 -0.95313,0.78125 -2.42188,0.78125 -1.92187,0 -3.03125,-1.39062 -1.3125,-1.67188 -1.3125,-5.4375 z m 1.67188,0 q 0,3.29687 0.76562,4.39062 0.78125,1.07813 1.90625,1.07813 1.14063,0 1.90625,-1.09375 0.76563,-1.09375 0.76563,-4.375 0,-3.29688 -0.76563,-4.375 -0.76562,-1.07813 -1.92187,-1.07813 -1.125,0 -1.79688,0.95313 -0.85937,1.21875 -0.85937,4.5 z m 14.87573,6.59375 h -1.64063 v -10.45313 q -0.59375,0.5625 -1.5625,1.14063 -0.95312,0.5625 -1.71875,0.84375 v -1.59375 q 1.375,-0.64063 2.40625,-1.5625 1.03125,-0.92188 1.45313,-1.78125 h 1.0625 z"
              fill="#000000"/>
      <path
              inkscape:connector-curvature="0"
              id="path202"
              fill-rule="nonzero"
              d="m 511.53857,297.84332 q 0,-2.35938 0.48437,-3.79688 0.48438,-1.45312 1.4375,-2.23437 0.96875,-0.78125 2.42188,-0.78125 1.07812,0 1.89062,0.4375 0.8125,0.42187 1.32813,1.25 0.53125,0.8125 0.82812,1.98437 0.3125,1.15625 0.3125,3.14063 0,2.35937 -0.48437,3.8125 -0.48438,1.4375 -1.45313,2.23437 -0.95312,0.78125 -2.42187,0.78125 -1.92188,0 -3.03125,-1.39062 -1.3125,-1.67188 -1.3125,-5.4375 z m 1.67187,0 q 0,3.29687 0.76563,4.39062 0.78125,1.07813 1.90625,1.07813 1.14062,0 1.90625,-1.09375 0.76562,-1.09375 0.76562,-4.375 0,-3.29688 -0.76562,-4.375 -0.76563,-1.07813 -1.92188,-1.07813 -1.125,0 -1.79687,0.95313 -0.85938,1.21875 -0.85938,4.5 z m 14.87574,6.59375 h -1.64063 v -10.45313 q -0.59375,0.5625 -1.5625,1.14063 -0.95312,0.5625 -1.71875,0.84375 v -1.59375 q 1.375,-0.64063 2.40625,-1.5625 1.03125,-0.92188 1.45313,-1.78125 h 1.0625 z m 8.99029,0 h -1.64062 v -10.45313 q -0.59375,0.5625 -1.5625,1.14063 -0.95313,0.5625 -1.71875,0.84375 v -1.59375 q 1.375,-0.64063 2.40625,-1.5625 1.03125,-0.92188 1.45312,-1.78125 h 1.0625 z m 4.20386,-6.59375 q 0,-2.35938 0.48437,-3.79688 0.48438,-1.45312 1.4375,-2.23437 0.96875,-0.78125 2.42188,-0.78125 1.07812,0 1.89062,0.4375 0.8125,0.42187 1.32813,1.25 0.53125,0.8125 0.82812,1.98437 0.3125,1.15625 0.3125,3.14063 0,2.35937 -0.48437,3.8125 -0.48438,1.4375 -1.45313,2.23437 -0.95312,0.78125 -2.42187,0.78125 -1.92188,0 -3.03125,-1.39062 -1.3125,-1.67188 -1.3125,-5.4375 z m 1.67187,0 q 0,3.29687 0.76563,4.39062 0.78125,1.07813 1.90625,1.07813 1.14062,0 1.90625,-1.09375 0.76562,-1.09375 0.76562,-4.375 0,-3.29688 -0.76562,-4.375 -0.76563,-1.07813 -1.92188,-1.07813 -1.125,0 -1.79687,0.95313 -0.85938,1.21875 -0.85938,4.5 z m 8.7038,0 q 0,-2.35938 0.48438,-3.79688 0.48437,-1.45312 1.4375,-2.23437 0.96875,-0.78125 2.42187,-0.78125 1.07813,0 1.89063,0.4375 0.8125,0.42187 1.32812,1.25 0.53125,0.8125 0.82813,1.98437 0.3125,1.15625 0.3125,3.14063 0,2.35937 -0.48438,3.8125 -0.48437,1.4375 -1.45312,2.23437 -0.95313,0.78125 -2.42188,0.78125 -1.92187,0 -3.03125,-1.39062 -1.3125,-1.67188 -1.3125,-5.4375 z m 1.67188,0 q 0,3.29687 0.76562,4.39062 0.78125,1.07813 1.90625,1.07813 1.14063,0 1.90625,-1.09375 0.76563,-1.09375 0.76563,-4.375 0,-3.29688 -0.76563,-4.375 -0.76562,-1.07813 -1.92187,-1.07813 -1.125,0 -1.79688,0.95313 -0.85937,1.21875 -0.85937,4.5 z m 14.87573,6.59375 h -1.64063 v -10.45313 q -0.59375,0.5625 -1.5625,1.14063 -0.95312,0.5625 -1.71875,0.84375 v -1.59375 q 1.375,-0.64063 2.40625,-1.5625 1.03125,-0.92188 1.45313,-1.78125 h 1.0625 z"
              fill="#000000"/>
      <path
              inkscape:connector-curvature="0"
              id="path204"
              fill-rule="nonzero"
              d="m 511.53857,319.84332 q 0,-2.35938 0.48437,-3.79688 0.48438,-1.45312 1.4375,-2.23437 0.96875,-0.78125 2.42188,-0.78125 1.07812,0 1.89062,0.4375 0.8125,0.42187 1.32813,1.25 0.53125,0.8125 0.82812,1.98437 0.3125,1.15625 0.3125,3.14063 0,2.35937 -0.48437,3.8125 -0.48438,1.4375 -1.45313,2.23437 -0.95312,0.78125 -2.42187,0.78125 -1.92188,0 -3.03125,-1.39062 -1.3125,-1.67188 -1.3125,-5.4375 z m 1.67187,0 q 0,3.29687 0.76563,4.39062 0.78125,1.07813 1.90625,1.07813 1.14062,0 1.90625,-1.09375 0.76562,-1.09375 0.76562,-4.375 0,-3.29688 -0.76562,-4.375 -0.76563,-1.07813 -1.92188,-1.07813 -1.125,0 -1.79687,0.95313 -0.85938,1.21875 -0.85938,4.5 z m 14.87574,6.59375 h -1.64063 v -10.45313 q -0.59375,0.5625 -1.5625,1.14063 -0.95312,0.5625 -1.71875,0.84375 v -1.59375 q 1.375,-0.64063 2.40625,-1.5625 1.03125,-0.92188 1.45313,-1.78125 h 1.0625 z m 8.99029,0 h -1.64062 v -10.45313 q -0.59375,0.5625 -1.5625,1.14063 -0.95313,0.5625 -1.71875,0.84375 v -1.59375 q 1.375,-0.64063 2.40625,-1.5625 1.03125,-0.92188 1.45312,-1.78125 h 1.0625 z m 8.9903,0 h -1.64063 v -10.45313 q -0.59375,0.5625 -1.5625,1.14063 -0.95312,0.5625 -1.71875,0.84375 v -1.59375 q 1.375,-0.64063 2.40625,-1.5625 1.03125,-0.92188 1.45313,-1.78125 h 1.0625 z m 4.20385,-6.59375 q 0,-2.35938 0.48438,-3.79688 0.48437,-1.45312 1.4375,-2.23437 0.96875,-0.78125 2.42187,-0.78125 1.07813,0 1.89063,0.4375 0.8125,0.42187 1.32812,1.25 0.53125,0.8125 0.82813,1.98437 0.3125,1.15625 0.3125,3.14063 0,2.35937 -0.48438,3.8125 -0.48437,1.4375 -1.45312,2.23437 -0.95313,0.78125 -2.42188,0.78125 -1.92187,0 -3.03125,-1.39062 -1.3125,-1.67188 -1.3125,-5.4375 z m 1.67188,0 q 0,3.29687 0.76562,4.39062 0.78125,1.07813 1.90625,1.07813 1.14063,0 1.90625,-1.09375 0.76563,-1.09375 0.76563,-4.375 0,-3.29688 -0.76563,-4.375 -0.76562,-1.07813 -1.92187,-1.07813 -1.125,0 -1.79688,0.95313 -0.85937,1.21875 -0.85937,4.5 z m 8.7038,0 q 0,-2.35938 0.48437,-3.79688 0.48438,-1.45312 1.4375,-2.23437 0.96875,-0.78125 2.42188,-0.78125 1.07812,0 1.89062,0.4375 0.8125,0.42187 1.32813,1.25 0.53125,0.8125 0.82812,1.98437 0.3125,1.15625 0.3125,3.14063 0,2.35937 -0.48437,3.8125 -0.48438,1.4375 -1.45313,2.23437 -0.95312,0.78125 -2.42187,0.78125 -1.92188,0 -3.03125,-1.39062 -1.3125,-1.67188 -1.3125,-5.4375 z m 1.67187,0 q 0,3.29687 0.76563,4.39062 0.78125,1.07813 1.90625,1.07813 1.14062,0 1.90625,-1.09375 0.76562,-1.09375 0.76562,-4.375 0,-3.29688 -0.76562,-4.375 -0.76563,-1.07813 -1.92188,-1.07813 -1.125,0 -1.79687,0.95313 -0.85938,1.21875 -0.85938,4.5 z"
              fill="#000000"/>
      <path
              inkscape:connector-curvature="0"
              id="path206"
              fill-rule="nonzero"
              d="m 517.71045,348.43707 h -1.64062 v -10.45313 q -0.59375,0.5625 -1.5625,1.14063 -0.95313,0.5625 -1.71875,0.84375 v -1.59375 q 1.375,-0.64063 2.40625,-1.5625 1.03125,-0.92188 1.45312,-1.78125 h 1.0625 z m 8.99029,0 h -1.64062 v -10.45313 q -0.59375,0.5625 -1.5625,1.14063 -0.95313,0.5625 -1.71875,0.84375 v -1.59375 q 1.375,-0.64063 2.40625,-1.5625 1.03125,-0.92188 1.45312,-1.78125 h 1.0625 z m 4.20386,-6.59375 q 0,-2.35938 0.48438,-3.79688 0.48437,-1.45312 1.4375,-2.23437 0.96875,-0.78125 2.42187,-0.78125 1.07813,0 1.89063,0.4375 0.8125,0.42187 1.32812,1.25 0.53125,0.8125 0.82813,1.98437 0.3125,1.15625 0.3125,3.14063 0,2.35937 -0.48438,3.8125 -0.48437,1.4375 -1.45312,2.23437 -0.95313,0.78125 -2.42188,0.78125 -1.92187,0 -3.03125,-1.39062 -1.3125,-1.67188 -1.3125,-5.4375 z m 1.67188,0 q 0,3.29687 0.76562,4.39062 0.78125,1.07813 1.90625,1.07813 1.14063,0 1.90625,-1.09375 0.76563,-1.09375 0.76563,-4.375 0,-3.29688 -0.76563,-4.375 -0.76562,-1.07813 -1.92187,-1.07813 -1.125,0 -1.79688,0.95313 -0.85937,1.21875 -0.85937,4.5 z m 8.70385,0 q 0,-2.35938 0.48438,-3.79688 0.48437,-1.45312 1.4375,-2.23437 0.96875,-0.78125 2.42187,-0.78125 1.07813,0 1.89063,0.4375 0.8125,0.42187 1.32812,1.25 0.53125,0.8125 0.82813,1.98437 0.3125,1.15625 0.3125,3.14063 0,2.35937 -0.48438,3.8125 -0.48437,1.4375 -1.45312,2.23437 -0.95313,0.78125 -2.42188,0.78125 -1.92187,0 -3.03125,-1.39062 -1.3125,-1.67188 -1.3125,-5.4375 z m 1.67188,0 q 0,3.29687 0.76562,4.39062 0.78125,1.07813 1.90625,1.07813 1.14063,0 1.90625,-1.09375 0.76563,-1.09375 0.76563,-4.375 0,-3.29688 -0.76563,-4.375 -0.76562,-1.07813 -1.92187,-1.07813 -1.125,0 -1.79688,0.95313 -0.85937,1.21875 -0.85937,4.5 z m 9.61005,6.59375 v -1.875 h 1.875 v 1.875 z m 5.18334,0 v -1.875 h 1.875 v 1.875 z m 5.18329,0 v -1.875 h 1.875 v 1.875 z"
              fill="#000000"/>
    </g>
    <defs
            id="defs226">
      <filter
              filterUnits="userSpaceOnUse"
              id="shadowFilter-g409398e341_0_22.7">
        <feGaussianBlur
                id="feGaussianBlur213"
                result="blur"
                stdDeviation="2.0"
                in="SourceAlpha"/>
        <feComponentTransfer
                id="feComponentTransfer223"
                color-interpolation-filters="sRGB"
                in="blur">
          <feFuncR
                  id="feFuncR215"
                  intercept="0.0"
                  slope="0"
                  type="linear"/>
          <feFuncG
                  id="feFuncG217"
                  intercept="0.0"
                  slope="0"
                  type="linear"/>
          <feFuncB
                  id="feFuncB219"
                  intercept="0.0"
                  slope="0"
                  type="linear"/>
          <feFuncA
                  id="feFuncA221"
                  intercept="0"
                  slope="0.5"
                  type="linear"/>
        </feComponentTransfer>
      </filter>
    </defs>
    <g
            id="g409398e341_0_22.7">
      <path
              inkscape:connector-curvature="0"
              id="path228"
              fill-rule="evenodd"
              d="m 192.50536,202.90372 v 0 c 0,-22.77025 18.45894,-41.22917 41.22917,-41.22917 h 164.91174 v 0 c 10.93466,0 21.42145,4.34377 29.15341,12.07574 7.732,7.73197 12.07575,18.21877 12.07575,29.15343 v 243.24243 c 0,22.77027 -18.45893,41.22919 -41.22916,41.22919 H 233.73453 c -22.77023,0 -41.22917,-18.45892 -41.22917,-41.22919 z"
              fill="#d9ead3"/>
      <path
              inkscape:connector-curvature="0"
              style="fill:#e6e6e6"
              id="path230"
              fill-rule="evenodd"
              d="m 192.50536,202.90372 v 0 c 0,-22.77025 18.45894,-41.22917 41.22917,-41.22917 h 164.91174 v 0 c 10.93466,0 21.42145,4.34377 29.15341,12.07574 7.732,7.73197 12.07575,18.21877 12.07575,29.15343 v 243.24243 c 0,22.77027 -18.45893,41.22919 -41.22916,41.22919 H 233.73453 c -22.77023,0 -41.22917,-18.45892 -41.22917,-41.22919 z"
              stroke-linecap="butt"
              stroke-linejoin="round"
              stroke-width="1.0"
              stroke="#595959"/>
      <path
              inkscape:connector-curvature="0"
              id="path232"
              fill-rule="nonzero"
              d="m 290.98447,462.2197 v -13.35938 h 1.64062 v 7.625 l 3.89063,-3.9375 h 2.10937 l -3.6875,3.59375 4.0625,6.07813 h -2.01562 l -3.20313,-4.95313 -1.15625,1.125 v 3.82813 z m 8.71875,-4.84375 q 0,-2.6875 1.48437,-3.96875 1.25,-1.07813 3.04688,-1.07813 2,0 3.26562,1.3125 1.26563,1.29688 1.26563,3.60938 0,1.85937 -0.5625,2.9375 -0.5625,1.0625 -1.64063,1.65625 -1.0625,0.59375 -2.32812,0.59375 -2.03125,0 -3.28125,-1.29688 -1.25,-1.3125 -1.25,-3.76562 z m 1.6875,0 q 0,1.85937 0.79687,2.79687 0.8125,0.92188 2.04688,0.92188 1.21875,0 2.03125,-0.92188 0.8125,-0.9375 0.8125,-2.84375 0,-1.79687 -0.8125,-2.71875 -0.8125,-0.92187 -2.03125,-0.92187 -1.23438,0 -2.04688,0.92187 -0.79687,0.90625 -0.79687,2.76563 z m 12.8757,3.375 0.23438,1.45312 q -0.6875,0.14063 -1.23438,0.14063 -0.89062,0 -1.39062,-0.28125 -0.48438,-0.28125 -0.6875,-0.73438 -0.20313,-0.46875 -0.20313,-1.9375 v -5.57812 h -1.20312 v -1.26563 h 1.20312 v -2.39062 l 1.625,-0.98438 v 3.375 h 1.65625 v 1.26563 h -1.65625 v 5.67187 q 0,0.6875 0.0781,0.89063 0.0937,0.20312 0.28125,0.32812 0.20312,0.10938 0.57812,0.10938 0.26563,0 0.71875,-0.0625 z m 1.55832,1.46875 v -13.35938 h 1.64063 v 13.35938 z m 4.19168,-11.46875 v -1.89063 h 1.64063 v 1.89063 z m 0,11.46875 v -9.67188 h 1.64063 v 9.67188 z m 4.14484,0 v -9.67188 h 1.46875 v 1.375 q 1.0625,-1.59375 3.07812,-1.59375 0.875,0 1.60938,0.3125 0.73437,0.3125 1.09375,0.82813 0.375,0.5 0.51562,1.20312 0.0937,0.45313 0.0937,1.59375 v 5.95313 h -1.64062 v -5.89063 q 0,-1 -0.20313,-1.48437 -0.1875,-0.5 -0.67187,-0.79688 -0.48438,-0.29687 -1.14063,-0.29687 -1.04687,0 -1.8125,0.67187 -0.75,0.65625 -0.75,2.51563 v 5.28125 z m 16.6882,-3.54688 1.60938,0.21875 q -0.26563,1.65625 -1.35938,2.60938 -1.07812,0.9375 -2.67187,0.9375 -1.98438,0 -3.1875,-1.29688 -1.20313,-1.29687 -1.20313,-3.71875 0,-1.57812 0.51563,-2.75 0.51562,-1.17187 1.57812,-1.75 1.0625,-0.59375 2.3125,-0.59375 1.57813,0 2.57813,0.79688 1,0.79687 1.28125,2.26562 l -1.59375,0.23438 q -0.23438,-0.96875 -0.8125,-1.45313 -0.57813,-0.5 -1.39063,-0.5 -1.23437,0 -2.01562,0.89063 -0.78125,0.89062 -0.78125,2.8125 0,1.95312 0.75,2.84375 0.75,0.875 1.95312,0.875 0.96875,0 1.60938,-0.59375 0.65625,-0.59375 0.82812,-1.82813 z"
              fill="#000000"/>
    </g>
    <defs
            id="defs252">
      <filter
              filterUnits="userSpaceOnUse"
              id="shadowFilter-g409398e341_0_22.8">
        <feGaussianBlur
                id="feGaussianBlur239"
                result="blur"
                stdDeviation="2.0"
                in="SourceAlpha"/>
        <feComponentTransfer
                id="feComponentTransfer249"
                color-interpolation-filters="sRGB"
                in="blur">
          <feFuncR
                  id="feFuncR241"
                  intercept="0.0"
                  slope="0"
                  type="linear"/>
          <feFuncG
                  id="feFuncG243"
                  intercept="0.0"
                  slope="0"
                  type="linear"/>
          <feFuncB
                  id="feFuncB245"
                  intercept="0.0"
                  slope="0"
                  type="linear"/>
          <feFuncA
                  id="feFuncA247"
                  intercept="0"
                  slope="0.5"
                  type="linear"/>
        </feComponentTransfer>
      </filter>
    </defs>
    <g
            id="g409398e341_0_22.8">
      <path
              inkscape:connector-curvature="0"
              id="path254"
              fill-rule="evenodd"
              d="m 580.3221,292.35095 h 55.18109 v -16.17322 l 32.3465,32.34647 -32.3465,32.34643 V 324.69742 H 580.3221 Z"
              fill="#eeeeee"/>
      <path
              inkscape:connector-curvature="0"
              id="path256"
              fill-rule="evenodd"
              d="m 580.3221,292.35095 h 55.18109 v -16.17322 l 32.3465,32.34647 -32.3465,32.34643 V 324.69742 H 580.3221 Z"
              stroke-linecap="butt"
              stroke-linejoin="round"
              stroke-width="1.0"
              stroke="#595959"/>
    </g>
    <defs
            id="defs276">
      <filter
              filterUnits="userSpaceOnUse"
              id="shadowFilter-g409398e341_0_22.9">
        <feGaussianBlur
                id="feGaussianBlur263"
                result="blur"
                stdDeviation="2.0"
                in="SourceAlpha"/>
        <feComponentTransfer
                id="feComponentTransfer273"
                color-interpolation-filters="sRGB"
                in="blur">
          <feFuncR
                  id="feFuncR265"
                  intercept="0.0"
                  slope="0"
                  type="linear"/>
          <feFuncG
                  id="feFuncG267"
                  intercept="0.0"
                  slope="0"
                  type="linear"/>
          <feFuncB
                  id="feFuncB269"
                  intercept="0.0"
                  slope="0"
                  type="linear"/>
          <feFuncA
                  id="feFuncA271"
                  intercept="0"
                  slope="0.5"
                  type="linear"/>
        </feComponentTransfer>
      </filter>
    </defs>
    <g
            style="fill:#b3b3b3"
            id="g409398e341_0_22.9">
      <path
              inkscape:connector-curvature="0"
              style="fill:#b3b3b3"
              id="path278"
              fill-rule="evenodd"
              d="m 724.8753,246.94226 v 0 c 0,-8.85396 7.17755,-16.03149 16.03149,-16.03149 v 0 c 4.25184,0 8.32953,1.68902 11.336,4.69551 3.00647,3.00648 4.6955,7.08416 4.6955,11.33598 v 0 c 0,8.85394 -7.17749,16.03149 -16.0315,16.03149 v 0 c -8.85394,0 -16.03149,-7.17755 -16.03149,-16.03149 z"
              fill="#ffe599"/>
      <path
              inkscape:connector-curvature="0"
              style="fill:#b3b3b3"
              id="path280"
              fill-rule="evenodd"
              d="m 724.8753,246.94226 v 0 c 0,-8.85396 7.17755,-16.03149 16.03149,-16.03149 v 0 c 4.25184,0 8.32953,1.68902 11.336,4.69551 3.00647,3.00648 4.6955,7.08416 4.6955,11.33598 v 0 c 0,8.85394 -7.17749,16.03149 -16.0315,16.03149 v 0 c -8.85394,0 -16.03149,-7.17755 -16.03149,-16.03149 z"
              stroke-linecap="butt"
              stroke-linejoin="round"
              stroke-width="1.0"
              stroke="#595959"/>
    </g>
    <defs
            id="defs300">
      <filter
              filterUnits="userSpaceOnUse"
              id="shadowFilter-g409398e341_0_22.10">
        <feGaussianBlur
                id="feGaussianBlur287"
                result="blur"
                stdDeviation="2.0"
                in="SourceAlpha"/>
        <feComponentTransfer
                id="feComponentTransfer297"
                color-interpolation-filters="sRGB"
                in="blur">
          <feFuncR
                  id="feFuncR289"
                  intercept="0.0"
                  slope="0"
                  type="linear"/>
          <feFuncG
                  id="feFuncG291"
                  intercept="0.0"
                  slope="0"
                  type="linear"/>
          <feFuncB
                  id="feFuncB293"
                  intercept="0.0"
                  slope="0"
                  type="linear"/>
          <feFuncA
                  id="feFuncA295"
                  intercept="0"
                  slope="0.5"
                  type="linear"/>
        </feComponentTransfer>
      </filter>
    </defs>
    <g
            style="fill:#b3b3b3"
            id="g409398e341_0_22.10">
      <path
              inkscape:connector-curvature="0"
              style="fill:#b3b3b3"
              id="path302"
              fill-rule="evenodd"
              d="m 714.7756,299.6483 v 0 c 0,-8.85394 7.17755,-16.03149 16.03149,-16.03149 v 0 c 4.25184,0 8.32953,1.68902 11.336,4.69552 3.00647,3.0065 4.6955,7.08417 4.6955,11.33597 v 0 c 0,8.85397 -7.17755,16.03149 -16.0315,16.03149 v 0 c -8.85394,0 -16.03149,-7.17752 -16.03149,-16.03149 z"
              fill="#ffe599"/>
      <path
              inkscape:connector-curvature="0"
              style="fill:#b3b3b3"
              id="path304"
              fill-rule="evenodd"
              d="m 714.7756,299.6483 v 0 c 0,-8.85394 7.17755,-16.03149 16.03149,-16.03149 v 0 c 4.25184,0 8.32953,1.68902 11.336,4.69552 3.00647,3.0065 4.6955,7.08417 4.6955,11.33597 v 0 c 0,8.85397 -7.17755,16.03149 -16.0315,16.03149 v 0 c -8.85394,0 -16.03149,-7.17752 -16.03149,-16.03149 z"
              stroke-linecap="butt"
              stroke-linejoin="round"
              stroke-width="1.0"
              stroke="#595959"/>
    </g>
    <defs
            id="defs324">
      <filter
              filterUnits="userSpaceOnUse"
              id="shadowFilter-g409398e341_0_22.11">
        <feGaussianBlur
                id="feGaussianBlur311"
                result="blur"
                stdDeviation="2.0"
                in="SourceAlpha"/>
        <feComponentTransfer
                id="feComponentTransfer321"
                color-interpolation-filters="sRGB"
                in="blur">
          <feFuncR
                  id="feFuncR313"
                  intercept="0.0"
                  slope="0"
                  type="linear"/>
          <feFuncG
                  id="feFuncG315"
                  intercept="0.0"
                  slope="0"
                  type="linear"/>
          <feFuncB
                  id="feFuncB317"
                  intercept="0.0"
                  slope="0"
                  type="linear"/>
          <feFuncA
                  id="feFuncA319"
                  intercept="0"
                  slope="0.5"
                  type="linear"/>
        </feComponentTransfer>
      </filter>
    </defs>
    <g
            style="fill:#b3b3b3"
            id="g409398e341_0_22.11">
      <path
              inkscape:connector-curvature="0"
              style="fill:#b3b3b3"
              id="path326"
              fill-rule="evenodd"
              d="m 778.4344,235.59842 v 0 c 0,-8.85394 7.17755,-16.03149 16.03149,-16.03149 v 0 c 4.25183,0 8.32947,1.68902 11.336,4.69552 3.00647,3.00649 4.6955,7.08415 4.6955,11.33597 v 0 c 0,8.85396 -7.17755,16.03151 -16.0315,16.03151 v 0 c -8.85394,0 -16.03149,-7.17755 -16.03149,-16.03151 z"
              fill="#ffe599"/>
      <path
              inkscape:connector-curvature="0"
              style="fill:#b3b3b3"
              id="path328"
              fill-rule="evenodd"
              d="m 778.4344,235.59842 v 0 c 0,-8.85394 7.17755,-16.03149 16.03149,-16.03149 v 0 c 4.25183,0 8.32947,1.68902 11.336,4.69552 3.00647,3.00649 4.6955,7.08415 4.6955,11.33597 v 0 c 0,8.85396 -7.17755,16.03151 -16.0315,16.03151 v 0 c -8.85394,0 -16.03149,-7.17755 -16.03149,-16.03151 z"
              stroke-linecap="butt"
              stroke-linejoin="round"
              stroke-width="1.0"
              stroke="#595959"/>
    </g>
    <defs
            id="defs348">
      <filter
              filterUnits="userSpaceOnUse"
              id="shadowFilter-g409398e341_0_22.12">
        <feGaussianBlur
                id="feGaussianBlur335"
                result="blur"
                stdDeviation="2.0"
                in="SourceAlpha"/>
        <feComponentTransfer
                id="feComponentTransfer345"
                color-interpolation-filters="sRGB"
                in="blur">
          <feFuncR
                  id="feFuncR337"
                  intercept="0.0"
                  slope="0"
                  type="linear"/>
          <feFuncG
                  id="feFuncG339"
                  intercept="0.0"
                  slope="0"
                  type="linear"/>
          <feFuncB
                  id="feFuncB341"
                  intercept="0.0"
                  slope="0"
                  type="linear"/>
          <feFuncA
                  id="feFuncA343"
                  intercept="0"
                  slope="0.5"
                  type="linear"/>
        </feComponentTransfer>
      </filter>
    </defs>
    <g
            style="fill:#b3b3b3"
            id="g409398e341_0_22.12">
      <path
              inkscape:connector-curvature="0"
              style="fill:#b3b3b3"
              id="path350"
              fill-rule="evenodd"
              d="m 778.4344,294.77692 v 0 c 0,-8.85397 7.17755,-16.03152 16.03149,-16.03152 v 0 c 4.25183,0 8.32947,1.68905 11.336,4.69552 3.00647,3.0065 4.6955,7.08417 4.6955,11.336 v 0 c 0,8.85394 -7.17755,16.03149 -16.0315,16.03149 v 0 c -8.85394,0 -16.03149,-7.17755 -16.03149,-16.03149 z"
              fill="#ffe599"/>
      <path
              inkscape:connector-curvature="0"
              style="fill:#b3b3b3"
              id="path352"
              fill-rule="evenodd"
              d="m 778.4344,294.77692 v 0 c 0,-8.85397 7.17755,-16.03152 16.03149,-16.03152 v 0 c 4.25183,0 8.32947,1.68905 11.336,4.69552 3.00647,3.0065 4.6955,7.08417 4.6955,11.336 v 0 c 0,8.85394 -7.17755,16.03149 -16.0315,16.03149 v 0 c -8.85394,0 -16.03149,-7.17755 -16.03149,-16.03149 z"
              stroke-linecap="butt"
              stroke-linejoin="round"
              stroke-width="1.0"
              stroke="#595959"/>
    </g>
    <defs
            id="defs372">
      <filter
              filterUnits="userSpaceOnUse"
              id="shadowFilter-g409398e341_0_22.13">
        <feGaussianBlur
                id="feGaussianBlur359"
                result="blur"
                stdDeviation="2.0"
                in="SourceAlpha"/>
        <feComponentTransfer
                id="feComponentTransfer369"
                color-interpolation-filters="sRGB"
                in="blur">
          <feFuncR
                  id="feFuncR361"
                  intercept="0.0"
                  slope="0"
                  type="linear"/>
          <feFuncG
                  id="feFuncG363"
                  intercept="0.0"
                  slope="0"
                  type="linear"/>
          <feFuncB
                  id="feFuncB365"
                  intercept="0.0"
                  slope="0"
                  type="linear"/>
          <feFuncA
                  id="feFuncA367"
                  intercept="0"
                  slope="0.5"
                  type="linear"/>
        </feComponentTransfer>
      </filter>
    </defs>
    <g
            style="fill:#b3b3b3"
            id="g409398e341_0_22.13">
      <path
              inkscape:connector-curvature="0"
              style="fill:#b3b3b3"
              id="path374"
              fill-rule="evenodd"
              d="m 831.9934,240.59317 v 0 c 0,-8.85394 7.17755,-16.03149 16.03155,-16.03149 v 0 c 4.25177,0 8.32947,1.68902 11.33594,4.69552 3.00653,3.00649 4.69556,7.08415 4.69556,11.33597 v 0 c 0,8.85396 -7.17755,16.03149 -16.03149,16.03149 v 0 c -8.85401,0 -16.03156,-7.17753 -16.03156,-16.03149 z"
              fill="#ffe599"/>
      <path
              inkscape:connector-curvature="0"
              style="fill:#b3b3b3"
              id="path376"
              fill-rule="evenodd"
              d="m 831.9934,240.59317 v 0 c 0,-8.85394 7.17755,-16.03149 16.03155,-16.03149 v 0 c 4.25177,0 8.32947,1.68902 11.33594,4.69552 3.00653,3.00649 4.69556,7.08415 4.69556,11.33597 v 0 c 0,8.85396 -7.17755,16.03149 -16.03149,16.03149 v 0 c -8.85401,0 -16.03156,-7.17753 -16.03156,-16.03149 z"
              stroke-linecap="butt"
              stroke-linejoin="round"
              stroke-width="1.0"
              stroke="#595959"/>
    </g>
    <defs
            id="defs396">
      <filter
              filterUnits="userSpaceOnUse"
              id="shadowFilter-g409398e341_0_22.14">
        <feGaussianBlur
                id="feGaussianBlur383"
                result="blur"
                stdDeviation="2.0"
                in="SourceAlpha"/>
        <feComponentTransfer
                id="feComponentTransfer393"
                color-interpolation-filters="sRGB"
                in="blur">
          <feFuncR
                  id="feFuncR385"
                  intercept="0.0"
                  slope="0"
                  type="linear"/>
          <feFuncG
                  id="feFuncG387"
                  intercept="0.0"
                  slope="0"
                  type="linear"/>
          <feFuncB
                  id="feFuncB389"
                  intercept="0.0"
                  slope="0"
                  type="linear"/>
          <feFuncA
                  id="feFuncA391"
                  intercept="0"
                  slope="0.5"
                  type="linear"/>
        </feComponentTransfer>
      </filter>
    </defs>
    <g
            style="fill:#b3b3b3"
            id="g409398e341_0_22.14">
      <path
              inkscape:connector-curvature="0"
              style="fill:#b3b3b3"
              id="path398"
              fill-rule="evenodd"
              d="m 831.9934,299.6483 v 0 c 0,-8.85394 7.17755,-16.03149 16.03155,-16.03149 v 0 c 4.25177,0 8.32947,1.68902 11.33594,4.69552 3.00653,3.0065 4.69556,7.08417 4.69556,11.33597 v 0 c 0,8.85397 -7.17755,16.03149 -16.03149,16.03149 v 0 c -8.85401,0 -16.03156,-7.17752 -16.03156,-16.03149 z"
              fill="#ffe599"/>
      <path
              inkscape:connector-curvature="0"
              style="fill:#b3b3b3"
              id="path400"
              fill-rule="evenodd"
              d="m 831.9934,299.6483 v 0 c 0,-8.85394 7.17755,-16.03149 16.03155,-16.03149 v 0 c 4.25177,0 8.32947,1.68902 11.33594,4.69552 3.00653,3.0065 4.69556,7.08417 4.69556,11.33597 v 0 c 0,8.85397 -7.17755,16.03149 -16.03149,16.03149 v 0 c -8.85401,0 -16.03156,-7.17752 -16.03156,-16.03149 z"
              stroke-linecap="butt"
              stroke-linejoin="round"
              stroke-width="1.0"
              stroke="#595959"/>
    </g>
    <defs
            id="defs420">
      <filter
              filterUnits="userSpaceOnUse"
              id="shadowFilter-g409398e341_0_22.15">
        <feGaussianBlur
                id="feGaussianBlur407"
                result="blur"
                stdDeviation="2.0"
                in="SourceAlpha"/>
        <feComponentTransfer
                id="feComponentTransfer417"
                color-interpolation-filters="sRGB"
                in="blur">
          <feFuncR
                  id="feFuncR409"
                  intercept="0.0"
                  slope="0"
                  type="linear"/>
          <feFuncG
                  id="feFuncG411"
                  intercept="0.0"
                  slope="0"
                  type="linear"/>
          <feFuncB
                  id="feFuncB413"
                  intercept="0.0"
                  slope="0"
                  type="linear"/>
          <feFuncA
                  id="feFuncA415"
                  intercept="0"
                  slope="0.5"
                  type="linear"/>
        </feComponentTransfer>
      </filter>
    </defs>
    <g
            style="fill:#b3b3b3"
            id="g409398e341_0_22.15">
      <path
              inkscape:connector-curvature="0"
              style="fill:#b3b3b3"
              id="path422"
              fill-rule="evenodd"
              d="m 686.0696,214.30708 v 0 c 0,-8.85394 7.17749,-16.03149 16.03149,-16.03149 v 0 c 4.25177,0 8.32947,1.68902 11.33594,4.69551 3.00653,3.0065 4.69556,7.08416 4.69556,11.33598 v 0 c 0,8.85396 -7.17755,16.03149 -16.0315,16.03149 v 0 c -8.854,0 -16.03149,-7.17753 -16.03149,-16.03149 z"
              fill="#ffe599"/>
      <path
              inkscape:connector-curvature="0"
              style="fill:#b3b3b3"
              id="path424"
              fill-rule="evenodd"
              d="m 686.0696,214.30708 v 0 c 0,-8.85394 7.17749,-16.03149 16.03149,-16.03149 v 0 c 4.25177,0 8.32947,1.68902 11.33594,4.69551 3.00653,3.0065 4.69556,7.08416 4.69556,11.33598 v 0 c 0,8.85396 -7.17755,16.03149 -16.0315,16.03149 v 0 c -8.854,0 -16.03149,-7.17753 -16.03149,-16.03149 z"
              stroke-linecap="butt"
              stroke-linejoin="round"
              stroke-width="1.0"
              stroke="#595959"/>
    </g>
    <defs
            id="defs444">
      <filter
              filterUnits="userSpaceOnUse"
              id="shadowFilter-g409398e341_0_22.16">
        <feGaussianBlur
                id="feGaussianBlur431"
                result="blur"
                stdDeviation="2.0"
                in="SourceAlpha"/>
        <feComponentTransfer
                id="feComponentTransfer441"
                color-interpolation-filters="sRGB"
                in="blur">
          <feFuncR
                  id="feFuncR433"
                  intercept="0.0"
                  slope="0"
                  type="linear"/>
          <feFuncG
                  id="feFuncG435"
                  intercept="0.0"
                  slope="0"
                  type="linear"/>
          <feFuncB
                  id="feFuncB437"
                  intercept="0.0"
                  slope="0"
                  type="linear"/>
          <feFuncA
                  id="feFuncA439"
                  intercept="0"
                  slope="0.5"
                  type="linear"/>
        </feComponentTransfer>
      </filter>
    </defs>
    <g
            style="fill:#cccccc"
            id="g409398e341_0_22.16">
      <path
              inkscape:connector-curvature="0"
              style="fill:#cccccc"
              id="path446"
              fill-rule="evenodd"
              d="m 674.5105,360.958 h 216.69293 v 32.06299 H 674.5105 Z"
              fill="#ffe599"/>
      <path
              inkscape:connector-curvature="0"
              style="fill:#cccccc"
              id="path448"
              fill-rule="evenodd"
              d="m 674.5105,360.958 h 216.69293 v 32.06299 H 674.5105 Z"
              stroke-linecap="butt"
              stroke-linejoin="round"
              stroke-width="1.0"
              stroke="#595959"/>
      <path
              inkscape:connector-curvature="0"
              style="fill:#cccccc"
              id="path450"
              fill-rule="nonzero"
              d="m 769.15137,380.3626 1.60938,0.21875 q -0.26563,1.65625 -1.35938,2.60937 -1.07812,0.9375 -2.67187,0.9375 -1.98438,0 -3.1875,-1.29687 -1.20313,-1.29688 -1.20313,-3.71875 0,-1.57813 0.51563,-2.75 0.51562,-1.17188 1.57812,-1.75 1.0625,-0.59375 2.3125,-0.59375 1.57813,0 2.57813,0.79687 1,0.79688 1.28125,2.26563 l -1.59375,0.23437 q -0.23438,-0.96875 -0.8125,-1.45312 -0.57813,-0.5 -1.39063,-0.5 -1.23437,0 -2.01562,0.89062 -0.78125,0.89063 -0.78125,2.8125 0,1.95313 0.75,2.84375 0.75,0.875 1.95312,0.875 0.96875,0 1.60938,-0.59375 0.65625,-0.59375 0.82812,-1.82812 z m 2.96875,3.54687 V 370.5501 h 1.64063 v 13.35937 z m 10.50421,-1.1875 q -0.92187,0.76563 -1.76562,1.09375 -0.82813,0.3125 -1.79688,0.3125 -1.59375,0 -2.45312,-0.78125 -0.85938,-0.78125 -0.85938,-1.98437 0,-0.71875 0.32813,-1.29688 0.32812,-0.59375 0.84375,-0.9375 0.53125,-0.35937 1.1875,-0.54687 0.46875,-0.125 1.45312,-0.25 1.98438,-0.23438 2.92188,-0.5625 0.0156,-0.34375 0.0156,-0.42188 0,-1 -0.46875,-1.42187 -0.625,-0.54688 -1.875,-0.54688 -1.15625,0 -1.70312,0.40625 -0.54688,0.40625 -0.8125,1.42188 l -1.60938,-0.21875 q 0.21875,-1.01563 0.71875,-1.64063 0.5,-0.64062 1.45313,-0.98437 0.95312,-0.34375 2.1875,-0.34375 1.25,0 2.01562,0.29687 0.78125,0.28125 1.14063,0.73438 0.375,0.4375 0.51562,1.10937 0.0781,0.42188 0.0781,1.51563 v 2.1875 q 0,2.28125 0.10937,2.89062 0.10938,0.59375 0.40625,1.15625 h -1.70312 q -0.26563,-0.51562 -0.32813,-1.1875 z m -0.14062,-3.67187 q -0.89063,0.375 -2.67188,0.625 -1.01562,0.14062 -1.4375,0.32812 -0.42187,0.1875 -0.65625,0.53125 -0.21875,0.34375 -0.21875,0.78125 0,0.65625 0.5,1.09375 0.5,0.4375 1.45313,0.4375 0.9375,0 1.67187,-0.40625 0.75,-0.42187 1.09375,-1.14062 0.26563,-0.5625 0.26563,-1.64063 z m 3.5476,1.96875 1.625,-0.25 q 0.125,0.96875 0.75,1.5 0.625,0.51562 1.75,0.51562 1.125,0 1.67188,-0.45312 0.54687,-0.46875 0.54687,-1.09375 0,-0.54688 -0.48437,-0.875 -0.32813,-0.21875 -1.67188,-0.54688 -1.8125,-0.46875 -2.51562,-0.79687 -0.6875,-0.32813 -1.04688,-0.90625 -0.35937,-0.59375 -0.35937,-1.3125 0,-0.64063 0.29687,-1.1875 0.29688,-0.5625 0.8125,-0.92188 0.375,-0.28125 1.03125,-0.46875 0.67188,-0.20312 1.42188,-0.20312 1.14062,0 2,0.32812 0.85937,0.32813 1.26562,0.89063 0.42188,0.5625 0.57813,1.5 l -1.60938,0.21875 q -0.10937,-0.75 -0.64062,-1.17188 -0.51563,-0.42187 -1.46875,-0.42187 -1.14063,0 -1.625,0.375 -0.46875,0.375 -0.46875,0.875 0,0.3125 0.1875,0.57812 0.20312,0.26563 0.64062,0.4375 0.23438,0.0937 1.4375,0.42188 1.75,0.45312 2.4375,0.75 0.6875,0.29687 1.07813,0.85937 0.39062,0.5625 0.39062,1.40625 0,0.82813 -0.48437,1.54688 -0.46875,0.71875 -1.375,1.125 -0.90625,0.39062 -2.04688,0.39062 -1.875,0 -2.875,-0.78125 -0.98437,-0.78125 -1.25,-2.32812 z m 9.32813,0 1.625,-0.25 q 0.125,0.96875 0.75,1.5 0.625,0.51562 1.75,0.51562 1.125,0 1.67187,-0.45312 0.54688,-0.46875 0.54688,-1.09375 0,-0.54688 -0.48438,-0.875 -0.32812,-0.21875 -1.67187,-0.54688 -1.8125,-0.46875 -2.51563,-0.79687 -0.6875,-0.32813 -1.04687,-0.90625 -0.35938,-0.59375 -0.35938,-1.3125 0,-0.64063 0.29688,-1.1875 0.29687,-0.5625 0.8125,-0.92188 0.375,-0.28125 1.03125,-0.46875 0.67187,-0.20312 1.42187,-0.20312 1.14063,0 2,0.32812 0.85938,0.32813 1.26563,0.89063 0.42187,0.5625 0.57812,1.5 l -1.60937,0.21875 q -0.10938,-0.75 -0.64063,-1.17188 -0.51562,-0.42187 -1.46875,-0.42187 -1.14062,0 -1.625,0.375 -0.46875,0.375 -0.46875,0.875 0,0.3125 0.1875,0.57812 0.20313,0.26563 0.64063,0.4375 0.23437,0.0937 1.4375,0.42188 1.75,0.45312 2.4375,0.75 0.6875,0.29687 1.07812,0.85937 0.39063,0.5625 0.39063,1.40625 0,0.82813 -0.48438,1.54688 -0.46875,0.71875 -1.375,1.125 -0.90625,0.39062 -2.04687,0.39062 -1.875,0 -2.875,-0.78125 -0.98438,-0.78125 -1.25,-2.32812 z"
              fill="#000000"/>
    </g>
    <defs
            id="defs470">
      <filter
              filterUnits="userSpaceOnUse"
              id="shadowFilter-g409398e341_0_22.17">
        <feGaussianBlur
                id="feGaussianBlur457"
                result="blur"
                stdDeviation="2.0"
                in="SourceAlpha"/>
        <feComponentTransfer
                id="feComponentTransfer467"
                color-interpolation-filters="sRGB"
                in="blur">
          <feFuncR
                  id="feFuncR459"
                  intercept="0.0"
                  slope="0"
                  type="linear"/>
          <feFuncG
                  id="feFuncG461"
                  intercept="0.0"
                  slope="0"
                  type="linear"/>
          <feFuncB
                  id="feFuncB463"
                  intercept="0.0"
                  slope="0"
                  type="linear"/>
          <feFuncA
                  id="feFuncA465"
                  intercept="0"
                  slope="0.5"
                  type="linear"/>
        </feComponentTransfer>
      </filter>
    </defs>
    <g
            style="fill:#cccccc"
            id="g409398e341_0_22.17">
      <path
              inkscape:connector-curvature="0"
              style="fill:#cccccc"
              id="path472"
              fill-rule="evenodd"
              d="m 674.5105,393.021 h 216.69293 v 32.06299 H 674.5105 Z"
              fill="#ffe599"/>
      <path
              inkscape:connector-curvature="0"
              style="fill:#cccccc"
              id="path474"
              fill-rule="evenodd"
              d="m 674.5105,393.021 h 216.69293 v 32.06299 H 674.5105 Z"
              stroke-linecap="butt"
              stroke-linejoin="round"
              stroke-width="1.0"
              stroke="#595959"/>
      <path
              inkscape:connector-curvature="0"
              style="fill:#cccccc"
              id="path476"
              fill-rule="nonzero"
              d="m 769.15137,412.42563 1.60938,0.21875 q -0.26563,1.65625 -1.35938,2.60937 -1.07812,0.9375 -2.67187,0.9375 -1.98438,0 -3.1875,-1.29687 -1.20313,-1.29688 -1.20313,-3.71875 0,-1.57813 0.51563,-2.75 0.51562,-1.17188 1.57812,-1.75 1.0625,-0.59375 2.3125,-0.59375 1.57813,0 2.57813,0.79687 1,0.79688 1.28125,2.26563 l -1.59375,0.23437 q -0.23438,-0.96875 -0.8125,-1.45312 -0.57813,-0.5 -1.39063,-0.5 -1.23437,0 -2.01562,0.89062 -0.78125,0.89063 -0.78125,2.8125 0,1.95313 0.75,2.84375 0.75,0.875 1.95312,0.875 0.96875,0 1.60938,-0.59375 0.65625,-0.59375 0.82812,-1.82812 z m 2.96875,3.54687 v -13.35937 h 1.64063 v 13.35937 z m 10.50421,-1.1875 q -0.92187,0.76563 -1.76562,1.09375 -0.82813,0.3125 -1.79688,0.3125 -1.59375,0 -2.45312,-0.78125 -0.85938,-0.78125 -0.85938,-1.98437 0,-0.71875 0.32813,-1.29688 0.32812,-0.59375 0.84375,-0.9375 0.53125,-0.35937 1.1875,-0.54687 0.46875,-0.125 1.45312,-0.25 1.98438,-0.23438 2.92188,-0.5625 0.0156,-0.34375 0.0156,-0.42188 0,-1 -0.46875,-1.42187 -0.625,-0.54688 -1.875,-0.54688 -1.15625,0 -1.70312,0.40625 -0.54688,0.40625 -0.8125,1.42188 l -1.60938,-0.21875 q 0.21875,-1.01563 0.71875,-1.64063 0.5,-0.64062 1.45313,-0.98437 0.95312,-0.34375 2.1875,-0.34375 1.25,0 2.01562,0.29687 0.78125,0.28125 1.14063,0.73438 0.375,0.4375 0.51562,1.10937 0.0781,0.42188 0.0781,1.51563 v 2.1875 q 0,2.28125 0.10937,2.89062 0.10938,0.59375 0.40625,1.15625 h -1.70312 q -0.26563,-0.51562 -0.32813,-1.1875 z m -0.14062,-3.67187 q -0.89063,0.375 -2.67188,0.625 -1.01562,0.14062 -1.4375,0.32812 -0.42187,0.1875 -0.65625,0.53125 -0.21875,0.34375 -0.21875,0.78125 0,0.65625 0.5,1.09375 0.5,0.4375 1.45313,0.4375 0.9375,0 1.67187,-0.40625 0.75,-0.42187 1.09375,-1.14062 0.26563,-0.5625 0.26563,-1.64063 z m 3.5476,1.96875 1.625,-0.25 q 0.125,0.96875 0.75,1.5 0.625,0.51562 1.75,0.51562 1.125,0 1.67188,-0.45312 0.54687,-0.46875 0.54687,-1.09375 0,-0.54688 -0.48437,-0.875 -0.32813,-0.21875 -1.67188,-0.54688 -1.8125,-0.46875 -2.51562,-0.79687 -0.6875,-0.32813 -1.04688,-0.90625 -0.35937,-0.59375 -0.35937,-1.3125 0,-0.64063 0.29687,-1.1875 0.29688,-0.5625 0.8125,-0.92188 0.375,-0.28125 1.03125,-0.46875 0.67188,-0.20312 1.42188,-0.20312 1.14062,0 2,0.32812 0.85937,0.32813 1.26562,0.89063 0.42188,0.5625 0.57813,1.5 l -1.60938,0.21875 q -0.10937,-0.75 -0.64062,-1.17188 -0.51563,-0.42187 -1.46875,-0.42187 -1.14063,0 -1.625,0.375 -0.46875,0.375 -0.46875,0.875 0,0.3125 0.1875,0.57812 0.20312,0.26563 0.64062,0.4375 0.23438,0.0937 1.4375,0.42188 1.75,0.45312 2.4375,0.75 0.6875,0.29687 1.07813,0.85937 0.39062,0.5625 0.39062,1.40625 0,0.82813 -0.48437,1.54688 -0.46875,0.71875 -1.375,1.125 -0.90625,0.39062 -2.04688,0.39062 -1.875,0 -2.875,-0.78125 -0.98437,-0.78125 -1.25,-2.32812 z m 9.32813,0 1.625,-0.25 q 0.125,0.96875 0.75,1.5 0.625,0.51562 1.75,0.51562 1.125,0 1.67187,-0.45312 0.54688,-0.46875 0.54688,-1.09375 0,-0.54688 -0.48438,-0.875 -0.32812,-0.21875 -1.67187,-0.54688 -1.8125,-0.46875 -2.51563,-0.79687 -0.6875,-0.32813 -1.04687,-0.90625 -0.35938,-0.59375 -0.35938,-1.3125 0,-0.64063 0.29688,-1.1875 0.29687,-0.5625 0.8125,-0.92188 0.375,-0.28125 1.03125,-0.46875 0.67187,-0.20312 1.42187,-0.20312 1.14063,0 2,0.32812 0.85938,0.32813 1.26563,0.89063 0.42187,0.5625 0.57812,1.5 l -1.60937,0.21875 q -0.10938,-0.75 -0.64063,-1.17188 -0.51562,-0.42187 -1.46875,-0.42187 -1.14062,0 -1.625,0.375 -0.46875,0.375 -0.46875,0.875 0,0.3125 0.1875,0.57812 0.20313,0.26563 0.64063,0.4375 0.23437,0.0937 1.4375,0.42188 1.75,0.45312 2.4375,0.75 0.6875,0.29687 1.07812,0.85937 0.39063,0.5625 0.39063,1.40625 0,0.82813 -0.48438,1.54688 -0.46875,0.71875 -1.375,1.125 -0.90625,0.39062 -2.04687,0.39062 -1.875,0 -2.875,-0.78125 -0.98438,-0.78125 -1.25,-2.32812 z"
              fill="#000000"/>
    </g>
    <defs
            id="defs496">
      <filter
              filterUnits="userSpaceOnUse"
              id="shadowFilter-g409398e341_0_22.18">
        <feGaussianBlur
                id="feGaussianBlur483"
                result="blur"
                stdDeviation="2.0"
                in="SourceAlpha"/>
        <feComponentTransfer
                id="feComponentTransfer493"
                color-interpolation-filters="sRGB"
                in="blur">
          <feFuncR
                  id="feFuncR485"
                  intercept="0.0"
                  slope="0"
                  type="linear"/>
          <feFuncG
                  id="feFuncG487"
                  intercept="0.0"
                  slope="0"
                  type="linear"/>
          <feFuncB
                  id="feFuncB489"
                  intercept="0.0"
                  slope="0"
                  type="linear"/>
          <feFuncA
                  id="feFuncA491"
                  intercept="0"
                  slope="0.5"
                  type="linear"/>
        </feComponentTransfer>
      </filter>
    </defs>
    <g
            id="g409398e341_0_22.18">
      <path
              inkscape:connector-curvature="0"
              style="fill:#cccccc"
              id="path498"
              fill-rule="evenodd"
              d="m 218.03291,325.701 v 0 c 0,-5.53455 4.48665,-10.02121 10.02121,-10.02121 h 176.27257 c 2.65778,0 5.2067,1.05582 7.08606,2.93515 1.87933,1.87933 2.93512,4.42828 2.93512,7.08606 v 40.08359 c 0,5.53454 -4.48663,10.02121 -10.02118,10.02121 H 228.05412 c -5.53456,0 -10.02121,-4.48667 -10.02121,-10.02121 z"
              fill="#b6d7a8"/>
      <path
              inkscape:connector-curvature="0"
              id="path500"
              fill-rule="evenodd"
              d="m 218.03291,325.701 v 0 c 0,-5.53455 4.48665,-10.02121 10.02121,-10.02121 h 176.27257 c 2.65778,0 5.2067,1.05582 7.08606,2.93515 1.87933,1.87933 2.93512,4.42828 2.93512,7.08606 v 40.08359 c 0,5.53454 -4.48663,10.02121 -10.02118,10.02121 H 228.05412 c -5.53456,0 -10.02121,-4.48667 -10.02121,-10.02121 z"
              stroke-linecap="butt"
              stroke-linejoin="round"
              stroke-width="1.0"
              stroke="#595959"/>
      <path
              inkscape:connector-curvature="0"
              id="path502"
              fill-rule="nonzero"
              d="m 263.4852,352.66278 v -11.78125 h -4.40625 v -1.57813 h 10.57813 v 1.57813 h -4.40625 v 11.78125 z m 6.67853,3.71875 -0.1875,-1.53125 q 0.54687,0.14062 0.9375,0.14062 0.54687,0 0.875,-0.1875 0.32812,-0.17187 0.54687,-0.5 0.15625,-0.25 0.5,-1.21875 0.0469,-0.14062 0.14063,-0.40625 l -3.67188,-9.6875 h 1.76563 l 2.01562,5.59375 q 0.39063,1.07813 0.70313,2.25 0.28125,-1.125 0.67187,-2.20312 l 2.07813,-5.64063 h 1.64062 l -3.6875,9.82813 q -0.59375,1.60937 -0.92187,2.20312 -0.4375,0.8125 -1,1.1875 -0.5625,0.375 -1.34375,0.375 -0.48438,0 -1.0625,-0.20312 z m 9.40625,-0.0156 v -13.375 h 1.48437 v 1.25 q 0.53125,-0.73437 1.1875,-1.09375 0.67188,-0.375 1.625,-0.375 1.23438,0 2.17188,0.64063 0.95312,0.625 1.4375,1.79687 0.48437,1.15625 0.48437,2.54688 0,1.48437 -0.53125,2.67187 -0.53125,1.1875 -1.54687,1.82813 -1.01563,0.625 -2.14063,0.625 -0.8125,0 -1.46875,-0.34375 -0.65625,-0.34375 -1.0625,-0.875 v 4.70312 z m 1.48437,-8.48437 q 0,1.85937 0.75,2.76562 0.76563,0.89063 1.82813,0.89063 1.09375,0 1.875,-0.92188 0.78125,-0.9375 0.78125,-2.875 0,-1.84375 -0.76563,-2.76562 -0.75,-0.92188 -1.8125,-0.92188 -1.04687,0 -1.85937,0.98438 -0.79688,0.96875 -0.79688,2.84375 z m 15.51633,1.67187 1.6875,0.20313 q -0.40625,1.48437 -1.48438,2.3125 -1.07812,0.8125 -2.76562,0.8125 -2.125,0 -3.375,-1.29688 -1.23438,-1.3125 -1.23438,-3.67187 0,-2.45313 1.25,-3.79688 1.26563,-1.34375 3.26563,-1.34375 1.9375,0 3.15625,1.32813 1.23437,1.3125 1.23437,3.70312 0,0.15625 0,0.4375 h -7.21875 q 0.0937,1.59375 0.90625,2.45313 0.8125,0.84375 2.01563,0.84375 0.90625,0 1.54687,-0.46875 0.64063,-0.48438 1.01563,-1.51563 z m -5.39063,-2.65625 h 5.40625 q -0.10937,-1.21875 -0.625,-1.82812 -0.78125,-0.95313 -2.03125,-0.95313 -1.125,0 -1.90625,0.76563 -0.76562,0.75 -0.84375,2.01562 z m 24.05903,1.07813 1.76562,0.45312 q -0.5625,2.17188 -2,3.32813 -1.4375,1.14062 -3.53125,1.14062 -2.15625,0 -3.51562,-0.875 -1.34375,-0.89062 -2.0625,-2.54687 -0.70313,-1.67188 -0.70313,-3.59375 0,-2.07813 0.79688,-3.625 0.79687,-1.5625 2.26562,-2.35938 1.48438,-0.8125 3.25,-0.8125 2,0 3.35938,1.01563 1.375,1.01562 1.90625,2.875 l -1.73438,0.40625 q -0.46875,-1.45313 -1.35937,-2.10938 -0.875,-0.67187 -2.20313,-0.67187 -1.54687,0 -2.57812,0.73437 -1.03125,0.73438 -1.45313,1.98438 -0.42187,1.23437 -0.42187,2.5625 0,1.70312 0.5,2.96875 0.5,1.26562 1.54687,1.90625 1.04688,0.625 2.26563,0.625 1.48437,0 2.51562,-0.85938 1.03125,-0.85937 1.39063,-2.54687 z m 3.73858,4.6875 V 339.3034 h 1.64063 v 4.79688 q 1.14062,-1.32813 2.89062,-1.32813 1.07813,0 1.85938,0.42188 0.79687,0.42187 1.14062,1.17187 0.34375,0.75 0.34375,2.17188 v 6.125 h -1.64062 v -6.125 q 0,-1.23438 -0.53125,-1.79688 -0.53125,-0.5625 -1.51563,-0.5625 -0.71875,0 -1.35937,0.39063 -0.64063,0.375 -0.92188,1.01562 -0.26562,0.64063 -0.26562,1.78125 v 5.29688 z m 17.0007,-3.10938 1.6875,0.20313 q -0.40625,1.48437 -1.48437,2.3125 -1.07813,0.8125 -2.76563,0.8125 -2.125,0 -3.375,-1.29688 -1.23437,-1.3125 -1.23437,-3.67187 0,-2.45313 1.25,-3.79688 1.26562,-1.34375 3.26562,-1.34375 1.9375,0 3.15625,1.32813 1.23438,1.3125 1.23438,3.70312 0,0.15625 0,0.4375 h -7.21875 q 0.0937,1.59375 0.90625,2.45313 0.8125,0.84375 2.01562,0.84375 0.90625,0 1.54688,-0.46875 0.64062,-0.48438 1.01562,-1.51563 z m -5.39062,-2.65625 h 5.40625 q -0.10938,-1.21875 -0.625,-1.82812 -0.78125,-0.95313 -2.03125,-0.95313 -1.125,0 -1.90625,0.76563 -0.76563,0.75 -0.84375,2.01562 z m 15.45386,2.21875 1.60937,0.21875 q -0.26562,1.65625 -1.35937,2.60938 -1.07813,0.9375 -2.67188,0.9375 -1.98437,0 -3.1875,-1.29688 -1.20312,-1.29687 -1.20312,-3.71875 0,-1.57812 0.51562,-2.75 0.51563,-1.17187 1.57813,-1.75 1.0625,-0.59375 2.3125,-0.59375 1.57812,0 2.57812,0.79688 1,0.79687 1.28125,2.26562 l -1.59375,0.23438 q -0.23437,-0.96875 -0.8125,-1.45313 -0.57812,-0.5 -1.39062,-0.5 -1.23438,0 -2.01563,0.89063 -0.78125,0.89062 -0.78125,2.8125 0,1.95312 0.75,2.84375 0.75,0.875 1.95313,0.875 0.96875,0 1.60937,-0.59375 0.65625,-0.59375 0.82813,-1.82813 z m 3.01562,3.54688 V 339.3034 h 1.64063 v 7.625 l 3.89062,-3.9375 h 2.10938 l -3.6875,3.59375 4.0625,6.07813 h -2.01563 l -3.20312,-4.95313 -1.15625,1.125 v 3.82813 z m 15.95313,-3.10938 1.6875,0.20313 q -0.40625,1.48437 -1.48438,2.3125 -1.07812,0.8125 -2.76562,0.8125 -2.125,0 -3.375,-1.29688 -1.23438,-1.3125 -1.23438,-3.67187 0,-2.45313 1.25,-3.79688 1.26563,-1.34375 3.26563,-1.34375 1.9375,0 3.15625,1.32813 1.23437,1.3125 1.23437,3.70312 0,0.15625 0,0.4375 h -7.21875 q 0.0937,1.59375 0.90625,2.45313 0.8125,0.84375 2.01563,0.84375 0.90625,0 1.54687,-0.46875 0.64063,-0.48438 1.01563,-1.51563 z m -5.39063,-2.65625 h 5.40625 q -0.10937,-1.21875 -0.625,-1.82812 -0.78125,-0.95313 -2.03125,-0.95313 -1.125,0 -1.90625,0.76563 -0.76562,0.75 -0.84375,2.01562 z m 9.1257,5.76563 v -9.67188 h 1.46875 v 1.46875 q 0.5625,-1.03125 1.03125,-1.35937 0.48438,-0.32813 1.0625,-0.32813 0.82813,0 1.6875,0.53125 l -0.5625,1.51563 q -0.60937,-0.35938 -1.20312,-0.35938 -0.54688,0 -0.96875,0.32813 -0.42188,0.32812 -0.60938,0.89062 -0.28125,0.875 -0.28125,1.92188 v 5.0625 z"
              fill="#000000"/>
    </g>
    <defs
            id="defs522">
      <filter
              filterUnits="userSpaceOnUse"
              id="shadowFilter-g409398e341_0_22.19">
        <feGaussianBlur
                id="feGaussianBlur509"
                result="blur"
                stdDeviation="2.0"
                in="SourceAlpha"/>
        <feComponentTransfer
                id="feComponentTransfer519"
                color-interpolation-filters="sRGB"
                in="blur">
          <feFuncR
                  id="feFuncR511"
                  intercept="0.0"
                  slope="0"
                  type="linear"/>
          <feFuncG
                  id="feFuncG513"
                  intercept="0.0"
                  slope="0"
                  type="linear"/>
          <feFuncB
                  id="feFuncB515"
                  intercept="0.0"
                  slope="0"
                  type="linear"/>
          <feFuncA
                  id="feFuncA517"
                  intercept="0"
                  slope="0.5"
                  type="linear"/>
        </feComponentTransfer>
      </filter>
    </defs>
    <g
            style="fill:#cccccc"
            id="g409398e341_0_22.19">
      <path
              inkscape:connector-curvature="0"
              style="fill:#cccccc"
              id="path524"
              fill-rule="evenodd"
              d="m 218.03291,286.91345 v 0 c 0,-2.17148 1.76035,-3.93182 3.93184,-3.93182 h 188.4513 c 1.04278,0 2.04288,0.41424 2.78021,1.15161 0.73737,0.73736 1.15161,1.73742 1.15161,2.78021 v 15.7269 c 0,2.17148 -1.76034,3.93182 -3.93182,3.93182 h -188.4513 c -2.17149,0 -3.93184,-1.76034 -3.93184,-3.93182 z"
              fill="#b6d7a8"/>
      <path
              inkscape:connector-curvature="0"
              style="fill:#cccccc"
              id="path526"
              fill-rule="evenodd"
              d="m 218.03291,286.91345 v 0 c 0,-2.17148 1.76035,-3.93182 3.93184,-3.93182 h 188.4513 c 1.04278,0 2.04288,0.41424 2.78021,1.15161 0.73737,0.73736 1.15161,1.73742 1.15161,2.78021 v 15.7269 c 0,2.17148 -1.76034,3.93182 -3.93182,3.93182 h -188.4513 c -2.17149,0 -3.93184,-1.76034 -3.93184,-3.93182 z"
              stroke-linecap="butt"
              stroke-linejoin="round"
              stroke-width="1.0"
              stroke="#595959"/>
    </g>
    <defs
            id="defs546">
      <filter
              filterUnits="userSpaceOnUse"
              id="shadowFilter-g409398e341_0_22.20">
        <feGaussianBlur
                id="feGaussianBlur533"
                result="blur"
                stdDeviation="2.0"
                in="SourceAlpha"/>
        <feComponentTransfer
                id="feComponentTransfer543"
                color-interpolation-filters="sRGB"
                in="blur">
          <feFuncR
                  id="feFuncR535"
                  intercept="0.0"
                  slope="0"
                  type="linear"/>
          <feFuncG
                  id="feFuncG537"
                  intercept="0.0"
                  slope="0"
                  type="linear"/>
          <feFuncB
                  id="feFuncB539"
                  intercept="0.0"
                  slope="0"
                  type="linear"/>
          <feFuncA
                  id="feFuncA541"
                  intercept="0"
                  slope="0.5"
                  type="linear"/>
        </feComponentTransfer>
      </filter>
    </defs>
    <g
            style="fill:#cccccc"
            id="g409398e341_0_22.20">
      <path
              inkscape:connector-curvature="0"
              style="fill:#cccccc"
              id="path548"
              fill-rule="evenodd"
              d="m 218.03291,388.8452 v 0 c 0,-2.17148 1.76035,-3.93182 3.93184,-3.93182 h 188.4513 c 1.04278,0 2.04288,0.41424 2.78021,1.15161 0.73737,0.73736 1.15161,1.73742 1.15161,2.78021 v 15.7269 c 0,2.17148 -1.76034,3.93182 -3.93182,3.93182 h -188.4513 c -2.17149,0 -3.93184,-1.76034 -3.93184,-3.93182 z"
              fill="#b6d7a8"/>
      <path
              inkscape:connector-curvature="0"
              style="fill:#cccccc"
              id="path550"
              fill-rule="evenodd"
              d="m 218.03291,388.8452 v 0 c 0,-2.17148 1.76035,-3.93182 3.93184,-3.93182 h 188.4513 c 1.04278,0 2.04288,0.41424 2.78021,1.15161 0.73737,0.73736 1.15161,1.73742 1.15161,2.78021 v 15.7269 c 0,2.17148 -1.76034,3.93182 -3.93182,3.93182 h -188.4513 c -2.17149,0 -3.93184,-1.76034 -3.93184,-3.93182 z"
              stroke-linecap="butt"
              stroke-linejoin="round"
              stroke-width="1.0"
              stroke="#595959"/>
    </g>
    <defs
            id="defs570">
      <filter
              filterUnits="userSpaceOnUse"
              id="shadowFilter-g409398e341_0_22.21">
        <feGaussianBlur
                id="feGaussianBlur557"
                result="blur"
                stdDeviation="2.0"
                in="SourceAlpha"/>
        <feComponentTransfer
                id="feComponentTransfer567"
                color-interpolation-filters="sRGB"
                in="blur">
          <feFuncR
                  id="feFuncR559"
                  intercept="0.0"
                  slope="0"
                  type="linear"/>
          <feFuncG
                  id="feFuncG561"
                  intercept="0.0"
                  slope="0"
                  type="linear"/>
          <feFuncB
                  id="feFuncB563"
                  intercept="0.0"
                  slope="0"
                  type="linear"/>
          <feFuncA
                  id="feFuncA565"
                  intercept="0"
                  slope="0.5"
                  type="linear"/>
        </feComponentTransfer>
      </filter>
    </defs>
    <g
            style="fill:#cccccc"
            id="g409398e341_0_22.21">
      <path
              inkscape:connector-curvature="0"
              style="fill:#cccccc"
              id="path572"
              fill-rule="evenodd"
              d="m 218.03291,254.2153 v 0 c 0,-2.17149 1.76035,-3.93184 3.93184,-3.93184 h 188.4513 c 1.04278,0 2.04288,0.41425 2.78021,1.15161 0.73737,0.73737 1.15161,1.73744 1.15161,2.78023 v 15.72687 c 0,2.17151 -1.76034,3.93185 -3.93182,3.93185 h -188.4513 c -2.17149,0 -3.93184,-1.76034 -3.93184,-3.93185 z"
              fill="#b6d7a8"/>
      <path
              inkscape:connector-curvature="0"
              style="fill:#cccccc"
              id="path574"
              fill-rule="evenodd"
              d="m 218.03291,254.2153 v 0 c 0,-2.17149 1.76035,-3.93184 3.93184,-3.93184 h 188.4513 c 1.04278,0 2.04288,0.41425 2.78021,1.15161 0.73737,0.73737 1.15161,1.73744 1.15161,2.78023 v 15.72687 c 0,2.17151 -1.76034,3.93185 -3.93182,3.93185 h -188.4513 c -2.17149,0 -3.93184,-1.76034 -3.93184,-3.93185 z"
              stroke-linecap="butt"
              stroke-linejoin="round"
              stroke-width="1.0"
              stroke="#595959"/>
    </g>
    <defs
            id="defs594">
      <filter
              filterUnits="userSpaceOnUse"
              id="shadowFilter-g409398e341_0_22.22">
        <feGaussianBlur
                id="feGaussianBlur581"
                result="blur"
                stdDeviation="2.0"
                in="SourceAlpha"/>
        <feComponentTransfer
                id="feComponentTransfer591"
                color-interpolation-filters="sRGB"
                in="blur">
          <feFuncR
                  id="feFuncR583"
                  intercept="0.0"
                  slope="0"
                  type="linear"/>
          <feFuncG
                  id="feFuncG585"
                  intercept="0.0"
                  slope="0"
                  type="linear"/>
          <feFuncB
                  id="feFuncB587"
                  intercept="0.0"
                  slope="0"
                  type="linear"/>
          <feFuncA
                  id="feFuncA589"
                  intercept="0"
                  slope="0.5"
                  type="linear"/>
        </feComponentTransfer>
      </filter>
    </defs>
    <g
            style="fill:#cccccc"
            id="g409398e341_0_22.22">
      <path
              inkscape:connector-curvature="0"
              style="fill:#cccccc"
              id="path596"
              fill-rule="evenodd"
              d="m 218.03291,221.51714 v 0 c 0,-2.17149 1.76035,-3.93184 3.93184,-3.93184 h 188.4513 c 1.04278,0 2.04288,0.41425 2.78021,1.15161 0.73737,0.73737 1.15161,1.73744 1.15161,2.78023 v 15.72688 c 0,2.1715 -1.76034,3.93184 -3.93182,3.93184 h -188.4513 c -2.17149,0 -3.93184,-1.76034 -3.93184,-3.93184 z"
              fill="#b6d7a8"/>
      <path
              inkscape:connector-curvature="0"
              style="fill:#cccccc"
              id="path598"
              fill-rule="evenodd"
              d="m 218.03291,221.51714 v 0 c 0,-2.17149 1.76035,-3.93184 3.93184,-3.93184 h 188.4513 c 1.04278,0 2.04288,0.41425 2.78021,1.15161 0.73737,0.73737 1.15161,1.73744 1.15161,2.78023 v 15.72688 c 0,2.1715 -1.76034,3.93184 -3.93182,3.93184 h -188.4513 c -2.17149,0 -3.93184,-1.76034 -3.93184,-3.93184 z"
              stroke-linecap="butt"
              stroke-linejoin="round"
              stroke-width="1.0"
              stroke="#595959"/>
    </g>
    <defs
            id="defs618">
      <filter
              filterUnits="userSpaceOnUse"
              id="shadowFilter-g409398e341_0_22.23">
        <feGaussianBlur
                id="feGaussianBlur605"
                result="blur"
                stdDeviation="2.0"
                in="SourceAlpha"/>
        <feComponentTransfer
                id="feComponentTransfer615"
                color-interpolation-filters="sRGB"
                in="blur">
          <feFuncR
                  id="feFuncR607"
                  intercept="0.0"
                  slope="0"
                  type="linear"/>
          <feFuncG
                  id="feFuncG609"
                  intercept="0.0"
                  slope="0"
                  type="linear"/>
          <feFuncB
                  id="feFuncB611"
                  intercept="0.0"
                  slope="0"
                  type="linear"/>
          <feFuncA
                  id="feFuncA613"
                  intercept="0"
                  slope="0.5"
                  type="linear"/>
        </feComponentTransfer>
      </filter>
    </defs>
    <g
            id="g409398e341_0_22.23">
      <path
              inkscape:connector-curvature="0"
              id="path620"
              fill-rule="evenodd"
              d="m 116.33719,292.37616 55.19685,-0.0199 v -16.16534 l 32.33071,32.31906 -32.33071,32.34235 v -16.16535 l -55.19685,0.0199 z"
              fill="#eeeeee"/>
      <path
              inkscape:connector-curvature="0"
              id="path622"
              fill-rule="evenodd"
              d="m 116.33719,292.37616 55.19685,-0.0199 v -16.16534 l 32.33071,32.31906 -32.33071,32.34235 v -16.16535 l -55.19685,0.0199 z"
              stroke-linecap="butt"
              stroke-linejoin="round"
              stroke-width="1.0"
              stroke="#595959"/>
    </g>
    <defs
            id="defs642">
      <filter
              filterUnits="userSpaceOnUse"
              id="shadowFilter-g409398e341_0_22.24">
        <feGaussianBlur
                id="feGaussianBlur629"
                result="blur"
                stdDeviation="2.0"
                in="SourceAlpha"/>
        <feComponentTransfer
                id="feComponentTransfer639"
                color-interpolation-filters="sRGB"
                in="blur">
          <feFuncR
                  id="feFuncR631"
                  intercept="0.0"
                  slope="0"
                  type="linear"/>
          <feFuncG
                  id="feFuncG633"
                  intercept="0.0"
                  slope="0"
                  type="linear"/>
          <feFuncB
                  id="feFuncB635"
                  intercept="0.0"
                  slope="0"
                  type="linear"/>
          <feFuncA
                  id="feFuncA637"
                  intercept="0"
                  slope="0.5"
                  type="linear"/>
        </feComponentTransfer>
      </filter>
    </defs>
    <g
            id="g409398e341_0_22.24">
      <path
              inkscape:connector-curvature="0"
              id="path644"
              fill-rule="evenodd"
              d="m 420.9942,292.3644 55.19684,-0.0199 v -16.16534 l 32.33072,32.31906 -32.33072,32.34235 v -16.16535 l -55.19684,0.0199 z"
              fill="#eeeeee"/>
      <path
              inkscape:connector-curvature="0"
              id="path646"
              fill-rule="evenodd"
              d="m 420.9942,292.3644 55.19684,-0.0199 v -16.16534 l 32.33072,32.31906 -32.33072,32.34235 v -16.16535 l -55.19684,0.0199 z"
              stroke-linecap="butt"
              stroke-linejoin="round"
              stroke-width="1.0"
              stroke="#595959"/>
    </g>
    <path
            inkscape:connector-curvature="0"
            id="path649"
            fill-rule="evenodd"
            d="m 215.19568,302.4029 h 201.98944 v 86.67978 H 215.19568 Z"
            fill-opacity="0.0"
            fill="#000000"/>
    <g
            id="g656"
            transform="matrix(0.43166639,0.02259676,-0.015003,0.28660265,209.33527,267.62504)">
      <clipPath
              id="g409398e341_0_22.25">
        <path
                inkscape:connector-curvature="0"
                id="path651"
                clip-rule="evenodd"
                d="M 17.745087,119.94609 484.39585,83.15371 494.8787,384.76608 28.227936,421.55847 Z"/>
      </clipPath>
    </g>
  </g>
</svg>
